<?xml version="1.0" standalone="no"?>
<!DOCTYPE svg PUBLIC "-//W3C//DTD SVG 1.1//EN" "http://www.w3.org/Graphics/SVG/1.1/DTD/svg11.dtd" >
<svg>
<metadata>
Created by FontForge 20090622 at Wed Feb 14 09:00:02 2018
 By deploy user
Copyright (c) 2017 by B&#197;&#130;a&#197;&#188;ej Ostoja Lniski. All rights reserved.
</metadata>
<defs>
<font id="KapraNeue-MediumExpanded" horiz-adv-x="526" >
  <font-face 
    font-family="Kapra Neue Medium Expanded"
    font-weight="600"
    font-stretch="expanded"
    units-per-em="1000"
    panose-1="0 0 7 5 0 0 0 0 0 0"
    ascent="800"
    descent="-200"
    x-height="480"
    cap-height="750"
    bbox="-760.565 -282.455 883 967"
    underline-thickness="50"
    underline-position="-50"
    unicode-range="U+0020-U+2248"
  />
<missing-glyph horiz-adv-x="741" 
 />
    <glyph glyph-name=".notdef" horiz-adv-x="741" 
 />
    <glyph glyph-name=".null" horiz-adv-x="0" 
 />
    <glyph glyph-name="nonmarkingreturn" horiz-adv-x="333" 
 />
    <glyph glyph-name="space" unicode=" " horiz-adv-x="180" 
 />
    <glyph glyph-name="exclam" unicode="!" horiz-adv-x="245" 
d="M107 200q-15 0 -15 15l-20 520q0 15 15 15h75q15 0 15 -15l-20 -520q0 -15 -15 -15h-35zM122 0q-26 0 -44 18t-18 44t18 44t44 18t44.5 -18t18.5 -44t-18.5 -44t-44.5 -18z" />
    <glyph glyph-name="quotedbl" unicode="&#x22;" horiz-adv-x="275" 
d="M60 628q-10 0 -13.5 5.5t-5.5 21.5l-20 121q-5 27 23 27h52q27 0 23 -27l-20 -121q-3 -17 -6.5 -22t-12.5 -5h-20zM195 628q-9 0 -13 5.5t-6 21.5l-20 121q-5 27 23 27h52q27 0 23 -27l-20 -121q-3 -17 -6.5 -22t-12.5 -5h-20z" />
    <glyph glyph-name="numbersign" unicode="#" horiz-adv-x="653" 
d="M125 0q-16 0 -13 15l26 125q3 14 -10 14h-93q-15 0 -15 15v64q0 15 15 15h115q10 0 12 9l18 83q3 14 -10 14h-93q-15 0 -15 15v64q0 15 15 15h115q10 0 12 9l26 125q3 15 16 15h60q17 0 14 -15l-25 -120q-3 -14 10 -14h107q10 0 12 9l26 125q3 15 16 15h60q17 0 14 -15
l-25 -120q-3 -14 10 -14h93q15 0 15 -15v-64q0 -15 -15 -15h-115q-10 0 -12 -9l-18 -83q-3 -14 10 -14h93q15 0 15 -15v-64q0 -15 -15 -15h-115q-11 0 -12 -9l-27 -130q-3 -15 -17 -15h-60q-16 0 -13 15l26 125q3 14 -10 14h-107q-11 0 -12 -9l-27 -130q-3 -15 -17 -15h-60z
M263 248h107q10 0 12 9l18 83q3 14 -10 14h-107q-10 0 -12 -9l-18 -83q-3 -14 10 -14z" />
    <glyph glyph-name="dollar" unicode="$" horiz-adv-x="521" 
d="M234 -70q-15 0 -15 15v44q0 14 -16 18q-68 17 -109 60t-41 102v32q0 15 15 15h76q15 0 15 -15v-8q0 -43 28 -68t74 -25q45 0 73.5 25t28.5 68v8q0 17 -6.5 31.5t-21.5 28t-28.5 23t-40 26t-42.5 27.5q-5 4 -30 20.5t-32 22l-27.5 21t-27.5 24l-21 25t-19 30t-9.5 31.5
t-4.5 38v32q0 59 41 103t107 59q16 4 16 18v44q0 15 15 15h55q15 0 15 -15v-44q0 -14 16 -18q66 -15 108 -59.5t42 -102.5v-32q0 -15 -14 -15h-77q-14 0 -14 15v8q0 43 -28.5 68t-73.5 25t-73.5 -25t-28.5 -68v-8q0 -17 5 -30.5t19.5 -27t26 -22t40 -26.5t45.5 -30l33 -22.5
t35.5 -24.5t30.5 -24t30.5 -30t21.5 -31t17 -38t5 -42v-32q0 -59 -41.5 -103t-107.5 -59q-16 -4 -16 -18v-44q0 -15 -15 -15h-54z" />
    <glyph glyph-name="percent" unicode="%" horiz-adv-x="531" 
d="M120 549q-41 0 -70.5 29.5t-29.5 70.5q0 42 29.5 71.5t70.5 29.5q42 0 71.5 -29.5t29.5 -71.5q0 -41 -29.5 -70.5t-71.5 -29.5zM386 750h60q18 0 13 -15l-307 -720q-7 -15 -18 -15h-60q-8 0 -11.5 4t-0.5 11l307 720q5 15 17 15zM120 612q16 0 27 10.5t11 26.5
q0 17 -11 27.5t-27 10.5t-26.5 -11t-10.5 -27t10.5 -26.5t26.5 -10.5zM410 0q-41 0 -70.5 29.5t-29.5 70.5q0 42 29.5 71.5t70.5 29.5q42 0 71.5 -29.5t29.5 -71.5q0 -41 -29.5 -70.5t-71.5 -29.5zM410 63q16 0 27 10.5t11 26.5t-11 27t-27 11t-26.5 -11t-10.5 -27
t10.5 -26.5t26.5 -10.5z" />
    <glyph glyph-name="ampersand" unicode="&#x26;" horiz-adv-x="601" 
d="M260 0q-90 0 -148.5 48t-58.5 121v88q0 76 60 115q6 4 0 8q-28 19 -44 50.5t-16 64.5v86q0 73 58.5 121t148.5 48t149 -48t59 -121v-62q0 -15 -15 -15h-76q-15 0 -15 15v38q0 43 -28.5 68t-73.5 25q-46 0 -74 -25t-28 -68v-48q0 -42 29.5 -62.5t77.5 -20.5q15 0 15 -15
v-70q0 -15 -15 -15q-48 0 -77.5 -20.5t-29.5 -62.5v-50q0 -43 28 -68t74 -25q45 0 73.5 25t28.5 68v118q0 15 15 15h146q15 0 15 -15v-70q0 -15 -15 -15h-40q-15 0 -15 -15v-42q0 -73 -59 -121t-149 -48z" />
    <glyph glyph-name="quotesingle" unicode="'" horiz-adv-x="140" 
d="M60 628q-10 0 -13.5 5.5t-5.5 21.5l-20 121q-5 27 23 27h52q27 0 23 -27l-20 -121q-3 -17 -6.5 -22t-12.5 -5h-20z" />
    <glyph glyph-name="parenleft" unicode="(" horiz-adv-x="280" 
d="M235 -108q-75 0 -125 41.5t-50 112.5v658q0 71 50 112.5t125 41.5q15 0 15 -15v-68q0 -15 -15 -15q-31 0 -53 -21t-22 -62v-604q0 -41 22 -62t53 -21q15 0 15 -15v-68q0 -15 -15 -15z" />
    <glyph glyph-name="parenright" unicode=")" horiz-adv-x="280" 
d="M45 -108q-15 0 -15 15v68q0 15 15 15q31 0 53 21t22 62v604q0 41 -22 62t-53 21q-15 0 -15 15v68q0 15 15 15q75 0 125 -41.5t50 -112.5v-658q0 -71 -50 -112.5t-125 -41.5z" />
    <glyph glyph-name="asterisk" unicode="*" horiz-adv-x="319" 
d="M145 580q-15 0 -15 15v54l-38 -38q-10 -11 -21 0l-20 20q-10 11 0 21l39 39h-55q-15 0 -15 15v28q0 15 15 15h55l-39 39q-11 10 0 21l20 20q11 10 21 0l38 -38v53q0 15 15 15h28q15 0 15 -15v-54l39 39q11 11 21 0l20 -20q10 -11 0 -21l-39 -39h55q15 0 15 -15v-28
q0 -15 -15 -15h-53l38 -38q11 -11 0 -21l-20 -20q-11 -10 -21 0l-40 40v-57q0 -15 -15 -15h-28z" />
    <glyph glyph-name="plus" unicode="+" horiz-adv-x="369" 
d="M153 105q-15 0 -15 15v73q0 15 -15 15h-68q-15 0 -15 15v64q0 15 15 15h68q15 0 15 15v72q0 15 15 15h64q15 0 15 -15v-72q0 -15 15 -15h67q15 0 15 -15v-64q0 -15 -15 -15h-67q-15 0 -15 -15v-73q0 -15 -15 -15h-64z" />
    <glyph glyph-name="comma" unicode="," horiz-adv-x="149" 
d="M53 -134l-22 16q-10 8 -4 15q37 45 37 76q0 18 -25 40.5t-25 48.5q0 28 17.5 45t47.5 17q32 0 51 -25.5t19 -64.5q0 -42 -21.5 -88t-59.5 -77q-8 -7 -15 -3z" />
    <glyph glyph-name="hyphen" unicode="-" horiz-adv-x="379" 
d="M55 208q-15 0 -15 15v64q0 15 15 15h269q15 0 15 -15v-64q0 -15 -15 -15h-269z" />
    <glyph glyph-name="period" unicode="." horiz-adv-x="165" 
d="M82 0q-26 0 -44 18t-18 44t18 44t44 18t44.5 -18t18.5 -44t-18.5 -44t-44.5 -18z" />
    <glyph glyph-name="slash" unicode="/" horiz-adv-x="322" 
d="M205 750h60q18 0 15 -15l-180 -720q-3 -15 -15 -15h-60q-18 0 -15 15l180 720q3 15 15 15z" />
    <glyph glyph-name="zero" unicode="0" 
d="M55 189v322q0 87 58 138t150 51t150 -51t58 -138v-322q0 -87 -58 -138t-150 -51t-150 51t-58 138zM161 213q0 -56 27.5 -84.5t74.5 -28.5t74.5 28.5t27.5 84.5v274q0 56 -27.5 84.5t-74.5 28.5t-74.5 -28.5t-27.5 -84.5v-274z" />
    <glyph glyph-name="one" unicode="1" horiz-adv-x="354" 
d="M194 0q-15 0 -15 15v529q0 10 -10 3l-82 -73q-12 -10 -20 -1l-46 54q-11 13 -1 22l159 142q11 9 15 9h75q15 0 15 -15v-670q0 -15 -15 -15h-75z" />
    <glyph glyph-name="two" unicode="2" horiz-adv-x="511" 
d="M53 15v136q0 23 8.5 46t19.5 39t32.5 37t34.5 31.5t41 31l37 27.5q18 14 50.5 37t47 34.5t27 29t12.5 35.5v8q0 43 -28.5 68t-73.5 25t-73.5 -25t-28.5 -68v-8q0 -15 -15 -15h-76q-15 0 -15 15v32q0 73 59 121t149 48t148.5 -48t58.5 -121v-32q0 -23 -8.5 -46
t-18.5 -38.5t-31.5 -36.5t-34 -31l-41 -31.5l-37.5 -28.5q-18 -14 -50.5 -37t-47 -34.5t-27.5 -29t-13 -35.5v-36q0 -15 15 -15h268q15 0 15 -15v-70q0 -15 -15 -15h-374q-15 0 -15 15z" />
    <glyph glyph-name="three" unicode="3" horiz-adv-x="523" 
d="M261 -5q-91 0 -149.5 49t-58.5 125v32q0 15 15 15h76q15 0 15 -15v-8q0 -46 28.5 -72t73.5 -26q46 0 74 26t28 72v30q0 42 -29.5 62.5t-77.5 20.5q-15 0 -15 15v70q0 15 15 15q48 0 77.5 20.5t29.5 62.5v18q0 43 -28 68t-74 25q-45 0 -73.5 -25t-28.5 -68v-8
q0 -15 -15 -15h-76q-15 0 -15 15v32q0 73 59 121t149 48t148.5 -48t58.5 -121v-56q0 -33 -16 -64.5t-44 -50.5q-6 -4 0 -8q60 -39 60 -115v-68q0 -76 -58.5 -125t-148.5 -49z" />
    <glyph glyph-name="four" unicode="4" horiz-adv-x="541" 
d="M324 0q-15 0 -15 15v140q0 15 -15 15h-263q-15 0 -15 15v72q0 15 5 22l289 412q5 9 19 9h71q15 0 15 -15v-400q0 -15 15 -15h66q15 0 15 -15v-70q0 -15 -15 -15h-66q-15 0 -15 -15v-140q0 -15 -15 -15h-76zM139 270h155q15 0 15 15v229q0 6 -4.5 6.5t-7.5 -3.5l-165 -235
q-3 -4 -1 -8t8 -4z" />
    <glyph glyph-name="five" unicode="5" horiz-adv-x="540" 
d="M278 -5q-91 0 -149.5 49t-58.5 125v32q0 15 15 15h76q15 0 15 -15v-8q0 -46 28.5 -72t73.5 -26q46 0 74 26t28 72v94q0 43 -28 68t-74 25q-47 0 -74.5 -20.5t-27.5 -62.5v-8q0 -15 -15 -15h-76q-15 0 -15 15v396q0 15 15 15h368q15 0 15 -15v-70q0 -15 -15 -15h-262
q-15 0 -15 -15v-122q0 -11 10 -6q43 23 92 23q90 0 148.5 -48t58.5 -121v-142q0 -76 -58.5 -125t-148.5 -49z" />
    <glyph glyph-name="six" unicode="6" horiz-adv-x="525" 
d="M263 -5q-91 0 -149.5 49t-58.5 125v352q0 74 59.5 126.5t148.5 52.5t148 -50.5t59 -123.5v-27q0 -15 -15 -15h-75q-15 0 -15 15v3q0 43 -29 70.5t-73 27.5q-45 0 -73.5 -29.5t-28.5 -73.5v-79q0 -10 10 -6q46 18 92 18q90 0 148.5 -48t58.5 -121v-92q0 -76 -58.5 -125
t-148.5 -49zM263 95q46 0 74 26t28 72v44q0 43 -28 68t-74 25q-45 0 -73.5 -25t-28.5 -68v-44q0 -46 28.5 -72t73.5 -26z" />
    <glyph glyph-name="seven" unicode="7" horiz-adv-x="430" 
d="M70 0q-18 0 -14 15l214 577q3 8 -4 8h-208q-15 0 -15 15v70q0 15 15 15h314q15 0 15 -15v-62q0 -8 -6 -26l-213 -583q-5 -14 -20 -14h-78z" />
    <glyph glyph-name="eight" unicode="8" horiz-adv-x="525" 
d="M263 -5q-91 0 -149.5 49t-58.5 125v74q0 73 54 112q10 7 0 14q-54 42 -54 112v50q0 73 59 121t149 48t148.5 -48t58.5 -121v-50q0 -32 -14 -62.5t-40 -49.5q-10 -7 0 -14q54 -42 54 -112v-74q0 -76 -58.5 -125t-148.5 -49zM263 412q46 0 74 25t28 68v2q0 43 -28 68
t-74 25t-74 -25t-28 -68v-2q0 -43 28 -68t74 -25zM263 95q46 0 74 26t28 72v26q0 43 -28 68t-74 25t-74 -25t-28 -68v-26q0 -46 27.5 -72t74.5 -26z" />
    <glyph glyph-name="nine" unicode="9" horiz-adv-x="525" 
d="M262 700q91 0 149.5 -49t58.5 -125v-352q0 -74 -59.5 -126.5t-148.5 -52.5t-148 50.5t-59 123.5v27q0 15 15 15h75q15 0 15 -15v-3q0 -43 29 -70.5t73 -27.5q45 0 73.5 29.5t28.5 73.5v79q0 10 -10 6q-46 -18 -92 -18q-90 0 -148.5 48t-58.5 121v92q0 76 58.5 125
t148.5 49zM262 600q-46 0 -74 -26t-28 -72v-44q0 -43 28 -68t74 -25q45 0 73.5 25t28.5 68v44q0 46 -28.5 72t-73.5 26z" />
    <glyph glyph-name="colon" unicode=":" horiz-adv-x="165" 
d="M82 367q-26 0 -44 18t-18 44t18 44t44 18t44.5 -18t18.5 -44t-18.5 -44t-44.5 -18zM82 0q-26 0 -44 18t-18 44t18 44t44 18t44.5 -18t18.5 -44t-18.5 -44t-44.5 -18z" />
    <glyph glyph-name="semicolon" unicode=";" horiz-adv-x="175" 
d="M88 367q-26 0 -44 18t-18 44t18 44t44 18t44.5 -18t18.5 -44t-18.5 -44t-44.5 -18zM59 -134l-22 16q-10 8 -4 15q37 45 37 76q0 18 -25 40.5t-25 48.5q0 28 17.5 45t47.5 17q32 0 51 -25.5t19 -64.5q0 -42 -21.5 -88t-59.5 -77q-8 -7 -15 -3z" />
    <glyph glyph-name="less" unicode="&#x3c;" horiz-adv-x="349" 
d="M304 108l-259 100q-15 7 -15 19v64q0 12 15 19l259 100q7 3 11 -0.5t4 -10.5v-64q0 -14 -15 -19l-130 -50q-5 -2 -5 -7t5 -7l130 -50q15 -5 15 -19v-64q0 -7 -4 -10.5t-11 -0.5z" />
    <glyph glyph-name="equal" unicode="=" horiz-adv-x="379" 
d="M55 278q-15 0 -15 15v64q0 15 15 15h269q15 0 15 -15v-64q0 -15 -15 -15h-269zM55 138q-15 0 -15 15v64q0 15 15 15h269q15 0 15 -15v-64q0 -15 -15 -15h-269z" />
    <glyph glyph-name="greater" unicode="&#x3e;" horiz-adv-x="349" 
d="M45 108q-7 -3 -11 0.5t-4 10.5v64q0 14 15 19l130 50q5 2 5 7t-5 7l-130 50q-15 5 -15 19v64q0 7 4 10.5t11 0.5l259 -100q15 -7 15 -19v-64q0 -12 -15 -19z" />
    <glyph glyph-name="question" unicode="?" horiz-adv-x="505" 
d="M202 200q-15 0 -15 15q0 69 17.5 114.5t42 66.5t49 38t42 44.5t17.5 70.5v8q0 43 -28.5 68t-73.5 25t-73.5 -25t-28.5 -68v-8q0 -15 -15 -15h-68q-15 0 -15 15v32q0 74 55 121.5t145 47.5q89 0 144 -47.5t55 -121.5v-32q0 -53 -20.5 -90.5t-49 -58.5l-57.5 -42
t-49.5 -56.5t-20.5 -86.5q0 -15 -15 -15h-38zM223 0q-26 0 -44 18t-18 44t18 44t44 18t44.5 -18t18.5 -44t-18.5 -44t-44.5 -18z" />
    <glyph glyph-name="at" unicode="@" horiz-adv-x="929" 
d="M468 -134q-190 0 -301.5 86.5t-111.5 234.5v183q0 152 110.5 241t298.5 89q189 0 299.5 -86t110.5 -234v-127q0 -87 -42 -135.5t-126 -48.5q-39 0 -66.5 9t-37 20.5t-18 20.5t-14.5 9q-5 0 -14.5 -9l-21 -20t-36.5 -20t-58 -9q-78 0 -121.5 43t-43.5 121v72q0 76 46 120
t118 44q34 0 58.5 -9.5t36 -19t14.5 -9.5q5 0 5 5v18q0 15 19 15h51q20 0 20 -15v-212q0 -43 18 -64t47 -21q66 0 66 95v102q0 118 -83.5 187t-226.5 69q-142 0 -225.5 -72t-83.5 -194v-133q0 -118 84.5 -187.5t228.5 -69.5q15 0 15 -15v-59q0 -15 -15 -15zM466 168
q77 0 77 82v40q0 82 -76 82q-47 0 -69.5 -28t-22.5 -64v-20q0 -36 22.5 -64t68.5 -28z" />
    <glyph glyph-name="A" unicode="A" horiz-adv-x="482" 
d="M43 0q-21 0 -17 17l164 715q2 11 6 14.5t13 3.5h64q9 0 13 -3.5t6 -14.5l164 -715q4 -17 -17 -17h-65q-16 0 -20 15l-17 69q-3 15 -19 15h-154q-16 0 -19 -15l-17 -69q-4 -15 -20 -15h-65zM175 193h132q12 0 9 12l-70 301q-1 4 -5 4t-5 -4l-70 -301q-3 -12 9 -12z" />
    <glyph glyph-name="B" unicode="B" horiz-adv-x="540" 
d="M85 0q-15 0 -15 15v720q0 15 15 15h166q90 0 149 -48t59 -121v-86q0 -61 -49 -98q-8 -6 2 -11q36 -18 54.5 -51.5t18.5 -71.5v-94q0 -73 -59 -121t-149 -48h-192zM190 429h61q47 0 74.5 27.5t27.5 65.5v35q0 43 -28 68t-74 25h-61q-15 0 -15 -15v-191q0 -15 15 -15z
M190 103h87q46 0 74 25t28 68v40q0 43 -28 68t-74 25h-87q-15 0 -15 -15v-196q0 -15 15 -15z" />
    <glyph glyph-name="C" unicode="C" horiz-adv-x="511" 
d="M55 184v382q0 87 58 138t150 51t150 -51t58 -138v-52q0 -15 -15 -15h-76q-15 0 -15 15v28q0 56 -28 84.5t-74 28.5q-47 0 -74.5 -28.5t-27.5 -84.5v-334q0 -56 27.5 -84.5t74.5 -28.5q46 0 74 28.5t28 84.5v28q0 15 15 15h76q15 0 15 -15v-52q0 -87 -58 -138t-150 -51
t-150 51t-58 138z" />
    <glyph glyph-name="D" unicode="D" horiz-adv-x="540" 
d="M71 15v720q0 15 15 15h191q92 0 150 -51t58 -138v-372q0 -87 -58 -138t-150 -51h-191q-15 0 -15 15zM176 109q3 -9 14 -9h87q47 0 74.5 28.5t27.5 84.5v324q0 56 -27.5 84.5t-74.5 28.5h-87q-11 0 -14 -9v-532z" />
    <glyph glyph-name="E" unicode="E" horiz-adv-x="420" 
d="M69 15v720q0 15 15 15h281q15 0 15 -15v-64q0 -15 -15 -15h-176q-15 0 -15 -15v-200q0 -15 15 -15h176q15 0 15 -15v-64q0 -15 -15 -15h-176q-15 0 -15 -15v-208q0 -15 15 -15h176q15 0 15 -15v-64q0 -15 -15 -15h-281q-15 0 -15 15z" />
    <glyph glyph-name="F" unicode="F" horiz-adv-x="417" 
d="M70 15v720q0 15 15 15h281q15 0 15 -15v-64q0 -15 -15 -15h-176q-15 0 -15 -15v-220q0 -15 15 -15h176q15 0 15 -15v-64q0 -15 -15 -15h-176q-15 0 -15 -15v-282q0 -15 -15 -15h-75q-15 0 -15 15z" />
    <glyph glyph-name="G" unicode="G" horiz-adv-x="489" 
d="M55 184v382q0 87 58 138t150 51t149 -51t57 -138v-52q0 -15 -15 -15h-74q-15 0 -15 15v28q0 56 -28 84.5t-74 28.5q-47 0 -74.5 -28.5t-27.5 -84.5v-334q0 -56 27.5 -84.5t74.5 -28.5q46 0 74 28.5t28 84.5v63q0 15 -15 15h-72q-15 0 -15 15v70q0 15 15 15h176
q15 0 15 -15v-187q0 -87 -57 -138t-149 -51t-150 51t-58 138z" />
    <glyph glyph-name="H" unicode="H" horiz-adv-x="568" 
d="M85 0q-15 0 -15 15v720q0 15 15 15h75q15 0 15 -15v-291q0 -15 15 -15h188q15 0 15 15v291q0 15 15 15h75q15 0 15 -15v-720q0 -15 -15 -15h-75q-15 0 -15 15v299q0 15 -15 15h-188q-15 0 -15 -15v-299q0 -15 -15 -15h-75z" />
    <glyph glyph-name="I" unicode="I" horiz-adv-x="245" 
d="M85 0q-15 0 -15 15v720q0 15 15 15h75q15 0 15 -15v-720q0 -15 -15 -15h-75z" />
    <glyph glyph-name="J" unicode="J" horiz-adv-x="322" 
d="M25 15v72q0 16 20 16q47 0 74.5 28.5t27.5 84.5v519q0 15 15 15h75q15 0 15 -15v-546q0 -86 -58 -137.5t-149 -51.5q-20 0 -20 15z" />
    <glyph glyph-name="K" unicode="K" horiz-adv-x="518" 
d="M90 0q-20 0 -20 15v720q0 15 20 15h66q20 0 20 -15v-285q0 -7 6 -9.5t11 5.5l178 289q10 15 25 15h75q22 0 14 -15l-174 -285q-7 -12 -2 -22l188 -413q3 -7 -1 -11t-15 -4h-79q-14 0 -21 15l-140 296q-2 5 -7 5t-8 -5l-43 -71q-7 -12 -7 -24v-201q0 -15 -20 -15h-66z" />
    <glyph glyph-name="L" unicode="L" horiz-adv-x="429" 
d="M70 15v720q0 15 15 15h75q15 0 15 -15v-626q0 -15 15 -15h176q15 0 15 -15v-64q0 -15 -15 -15h-281q-15 0 -15 15z" />
    <glyph glyph-name="M" unicode="M" horiz-adv-x="699" 
d="M85 0q-15 0 -15 15v720q0 15 15 15h71q16 0 23 -15l164 -375q2 -4 6.5 -4t6.5 4l164 375q7 15 23 15h71q15 0 15 -15v-720q0 -15 -15 -15h-76q-15 0 -15 15v411q0 5 -4 5t-6 -4l-108 -222q-7 -15 -23 -15h-65q-16 0 -23 15l-108 222q-2 4 -6 4t-4 -5v-411q0 -15 -15 -15
h-76z" />
    <glyph glyph-name="N" unicode="N" horiz-adv-x="588" 
d="M85 0q-15 0 -15 15v720q0 15 15 15h57q20 0 27 -13l234 -463q2 -4 6 -3.5t4 5.5v459q0 15 15 15h75q15 0 15 -15v-720q0 -15 -15 -15h-58q-20 0 -26 12l-234 463q-2 4 -6 3.5t-4 -5.5v-458q0 -15 -15 -15h-75z" />
    <glyph glyph-name="O" unicode="O" 
d="M55 184v382q0 87 58 138t150 51t150 -51t58 -138v-382q0 -87 -58 -138t-150 -51t-150 51t-58 138zM161 208q0 -56 27.5 -84.5t74.5 -28.5t74.5 28.5t27.5 84.5v334q0 56 -27.5 84.5t-74.5 28.5t-74.5 -28.5t-27.5 -84.5v-334z" />
    <glyph glyph-name="P" unicode="P" horiz-adv-x="513" 
d="M85 0q-15 0 -15 15v720q0 15 15 15h192q90 0 149 -54t59 -135v-112q0 -81 -59 -135t-149 -54h-87q-15 0 -15 -15v-230q0 -15 -15 -15h-75zM190 360h87q45 0 73.5 31t28.5 82v64q0 51 -28.5 82t-73.5 31h-87q-15 0 -15 -15v-260q0 -15 15 -15z" />
    <glyph glyph-name="Q" unicode="Q" 
d="M55 184v382q0 87 58 138t150 51t150 -51t58 -138v-382q0 -80 -50 -130q-9 -10 -3 -16l45 -45q11 -11 0 -22l-53 -53q-10 -10 -21 0l-72 73q-7 7 -18 6q-22 -2 -36 -2q-92 0 -150 51t-58 138zM161 208q0 -56 27.5 -84.5t74.5 -28.5t74.5 28.5t27.5 84.5v334
q0 56 -27.5 84.5t-74.5 28.5t-74.5 -28.5t-27.5 -84.5v-334z" />
    <glyph glyph-name="R" unicode="R" horiz-adv-x="531" 
d="M86 0q-15 0 -15 15v720q0 15 15 15h192q89 0 148.5 -52.5t59.5 -126.5v-92q0 -89 -81 -143q-11 -8 -9 -19l76 -296q5 -21 -16 -21h-61q-9 0 -12.5 0.5t-7 4t-5.5 10.5l-71 270q-3 15 -20 15h-88q-15 0 -15 -15v-270q0 -15 -15 -15h-75zM191 400h87q45 0 73.5 29.5
t28.5 73.5v44q0 44 -28.5 73.5t-73.5 29.5h-87q-15 0 -15 -15v-220q0 -15 15 -15z" />
    <glyph glyph-name="S" unicode="S" horiz-adv-x="521" 
d="M53 164v37q0 15 15 15h76q15 0 15 -15v-13q0 -43 28 -68t74 -25q45 0 73.5 25t28.5 68v13q0 17 -6.5 31.5t-21.5 28t-28.5 23t-40 26t-42.5 27.5q-5 4 -30 20.5t-32 22l-27.5 21t-27.5 24l-21 25t-19 30t-9.5 31.5t-4.5 38v37q0 73 59 121t149 48t148.5 -48t58.5 -121
v-37q0 -15 -14 -15h-77q-14 0 -14 15v13q0 43 -28.5 68t-73.5 25t-73.5 -25t-28.5 -68v-13q0 -17 5 -30.5t19.5 -27t26 -22t40 -26.5t45.5 -30l33 -22.5t35.5 -24.5t30.5 -24t30.5 -30t21.5 -31t17 -38t5 -42v-37q0 -73 -58.5 -121t-148.5 -48t-149 48t-59 121z" />
    <glyph glyph-name="T" unicode="T" horiz-adv-x="399" 
d="M31 665v70q0 15 15 15h307q15 0 15 -15v-70q0 -15 -15 -15h-86q-15 0 -15 -15v-620q0 -15 -15 -15h-75q-15 0 -15 15v620q0 15 -15 15h-86q-15 0 -15 15z" />
    <glyph glyph-name="U" unicode="U" 
d="M55 184v551q0 15 15 15h76q15 0 15 -15v-527q0 -56 27.5 -84.5t74.5 -28.5t74.5 28.5t27.5 84.5v527q0 15 15 15h76q15 0 15 -15v-551q0 -87 -58 -138t-150 -51t-150 51t-58 138z" />
    <glyph glyph-name="V" unicode="V" horiz-adv-x="521" 
d="M235 0q-16 0 -21.5 3.5t-8.5 15.5l-177 713q-3 12 3 15t19 3h54q11 0 15 -0.5t7.5 -4t5.5 -11.5l124 -517q1 -4 4.5 -4t4.5 4l124 517q3 11 8 13.5t20 2.5h54q9 0 13 -0.5t7.5 -5t1.5 -12.5l-177 -713q-3 -12 -8.5 -15.5t-21.5 -3.5h-51z" />
    <glyph glyph-name="W" unicode="W" horiz-adv-x="729" 
d="M201 0q-16 0 -21.5 4t-7.5 17l-144 708q-2 11 3 16t19 5h54q14 0 20 -4t8 -17l85 -463q1 -4 5.5 -4t5.5 4l86 463q2 12 8.5 16.5t20.5 4.5h43q14 0 20.5 -4.5t8.5 -16.5l86 -463q1 -4 5.5 -4t5.5 4l85 463q3 21 28 21h54q14 0 19 -5t3 -16l-144 -708q-2 -13 -7.5 -17
t-21.5 -4h-37q-17 0 -22.5 4t-7.5 17l-91 424q-1 5 -5.5 5t-5.5 -5l-91 -424q-2 -13 -7.5 -17t-22.5 -4h-37z" />
    <glyph glyph-name="X" unicode="X" horiz-adv-x="483" 
d="M43 0q-20 0 -13 15l148 354q3 6 0 12l-148 354q-7 15 13 15h67q19 0 26 -15l100 -235q2 -4 6 -4t5 4l100 235q7 15 27 15h67q20 0 13 -15l-148 -354q-4 -7 -1 -12l149 -354q7 -15 -13 -15h-67q-19 0 -26 15l-101 235q-1 4 -5 4t-6 -4l-99 -235q-7 -15 -27 -15h-67z" />
    <glyph glyph-name="Y" unicode="Y" horiz-adv-x="474" 
d="M199 0q-16 0 -16 15v254q0 5 -2 13l-151 452q-2 7 2 11.5t12 4.5h67q20 0 25 -15l96 -297q2 -4 6 -4t5 4l96 297q5 15 25 15h67q19 0 14 -16l-150 -452q-3 -12 -3 -13v-254q0 -15 -15 -15h-78z" />
    <glyph glyph-name="Z" unicode="Z" horiz-adv-x="430" 
d="M58 0q-15 0 -15 15v72q0 9 6 24l223 530q4 9 -5 9h-209q-15 0 -15 15v70q0 15 15 15h314q15 0 15 -15v-72q0 -13 -6 -27l-224 -527q-4 -9 5 -9h210q15 0 15 -16v-69q0 -15 -15 -15h-314z" />
    <glyph glyph-name="bracketleft" unicode="[" horiz-adv-x="330" 
d="M75 -203q-15 0 -15 15v1031q0 15 15 15h210q15 0 15 -15v-68q0 -15 -15 -15h-110q-15 0 -15 -15v-835q0 -15 15 -15h111q14 0 14 -15v-68q0 -15 -15 -15h-210z" />
    <glyph glyph-name="backslash" unicode="\" horiz-adv-x="322" 
d="M205 0q-12 0 -15 15l-180 720q-3 15 15 15h60q12 0 15 -15l180 -720q3 -15 -15 -15h-60z" />
    <glyph glyph-name="bracketright" unicode="]" horiz-adv-x="330" 
d="M45 -203q-15 0 -15 15v68q0 15 14 15h111q15 0 15 15v835q0 15 -15 15h-110q-15 0 -15 15v68q0 15 15 15h210q15 0 15 -15v-1031q0 -15 -15 -15h-210z" />
    <glyph glyph-name="asciicircum" unicode="^" horiz-adv-x="387" 
d="M22 576l120 159q11 15 21 15h60q10 0 21 -15l120 -159q4 -6 1.5 -10.5t-9.5 -4.5h-64q-9 0 -22 15l-70 94q-7 8 -14 0l-70 -94q-13 -15 -21 -15h-64q-7 0 -10 4.5t1 10.5z" />
    <glyph glyph-name="underscore" unicode="_" horiz-adv-x="470" 
d="M35 -90q-15 0 -15 15v60q0 15 15 15h400q15 0 15 -15v-60q0 -15 -15 -15h-400z" />
    <glyph glyph-name="grave" unicode="`" horiz-adv-x="183" 
d="M89 548h-31q-20 0 -29 21l-48 108q-4 9 0 14.5t12 5.5h62q11 0 15 -4t8 -17l30 -107q5 -21 -19 -21z" />
    <glyph glyph-name="a" unicode="a" horiz-adv-x="448" 
d="M199 -5q-75 0 -120 41.5t-45 122.5v162q0 81 45 122.5t120 41.5q34 0 58 -9.5t35.5 -19t14.5 -9.5q5 0 5 5v13q0 15 15 15h60q15 0 15 -15v-450q0 -15 -15 -15h-60q-15 0 -15 15v13q0 5 -5 5q-3 0 -14.5 -9.5t-35.5 -19t-58 -9.5zM217 93q49 0 67 24.5t18 67.5v110
q0 43 -18 67.5t-67 24.5q-42 0 -62.5 -26t-20.5 -66v-110q0 -40 20.5 -66t62.5 -26z" />
    <glyph glyph-name="b" unicode="b" horiz-adv-x="462" 
d="M60 15v720q0 15 15 15h70q15 0 15 -15v-283q0 -5 5 -5q3 0 13.5 9.5t32.5 19t53 9.5q74 0 119 -41.5t45 -122.5v-162q0 -81 -45 -122.5t-120 -41.5q-34 0 -58 9.5t-35.5 19t-14.5 9.5q-5 0 -5 -5v-13q0 -15 -15 -15h-60q-15 0 -15 15zM160 185q0 -43 18 -67.5t67 -24.5
q42 0 62.5 26t20.5 66v110q0 40 -20.5 66t-62.5 26q-49 0 -67 -24.5t-18 -67.5v-110z" />
    <glyph glyph-name="c" unicode="c" horiz-adv-x="422" 
d="M34 178v124q0 85 48.5 134t135.5 49q83 0 133.5 -46.5t50.5 -107.5v-27q0 -15 -15 -15h-70q-15 0 -15 15q0 83 -84 83t-84 -102v-90q0 -102 84 -102t84 83q0 15 15 15h70q15 0 15 -15v-27q0 -61 -50.5 -107.5t-133.5 -46.5q-87 0 -135.5 49t-48.5 134z" />
    <glyph glyph-name="d" unicode="d" horiz-adv-x="462" 
d="M402 15q0 -15 -15 -15h-60q-15 0 -15 15v13q0 5 -5 5q-3 0 -14.5 -9.5t-35.5 -19t-58 -9.5q-75 0 -120 41.5t-45 122.5v162q0 81 45 122.5t119 41.5q31 0 53 -9.5t32.5 -19t13.5 -9.5q5 0 5 5v283q0 15 15 15h70q15 0 15 -15v-720zM302 185v110q0 43 -18 67.5t-67 24.5
q-42 0 -62.5 -26t-20.5 -66v-110q0 -40 20.5 -66t62.5 -26q49 0 67 24.5t18 67.5z" />
    <glyph glyph-name="e" unicode="e" horiz-adv-x="436" 
d="M218 -5q-84 0 -134 48t-50 116v162q0 68 50 116t134 48t134 -48t50 -116v-90q0 -15 -15 -15h-238q-15 0 -15 -15v-15q0 -45 22 -71.5t62 -26.5q41 0 62.5 20t21.5 54q0 15 15 15h70q15 0 15 -15v-13q0 -61 -50.5 -107.5t-133.5 -46.5zM149 294h137q15 0 15 15v10
q0 31 -23 52t-60 21q-38 0 -61 -21t-23 -52v-10q0 -15 15 -15z" />
    <glyph glyph-name="f" unicode="f" horiz-adv-x="342" 
d="M15 405v60q0 15 15 15h30q15 0 15 15v91q0 77 49 120.5t136 43.5q19 0 19 -15v-67q0 -16 -19 -16q-85 0 -85 -93v-64q0 -15 15 -15h74q15 0 15 -15v-60q0 -15 -15 -15h-74q-15 0 -15 -15v-360q0 -15 -15 -15h-70q-15 0 -15 15v360q0 15 -15 15h-30q-15 0 -15 15z" />
    <glyph glyph-name="g" unicode="g" horiz-adv-x="448" 
d="M218 -250q-83 0 -133.5 46.5t-50.5 107.5v22q0 15 15 15h70q15 0 15 -15q0 -29 23 -53.5t61 -24.5q41 0 62.5 24.5t21.5 68.5v87q0 5 -5 5q-3 0 -15 -9.5t-36 -19t-58 -9.5q-73 0 -113.5 41t-40.5 123v162q0 81 45 122.5t120 41.5q34 0 58 -9.5t35.5 -19t14.5 -9.5
q5 0 5 5v13q0 15 15 15h60q15 0 15 -15v-551q0 -74 -49 -119t-135 -45zM217 93q49 0 67 24.5t18 67.5v110q0 43 -18 67.5t-67 24.5q-42 0 -62.5 -26t-20.5 -66v-110q0 -40 20.5 -66t62.5 -26z" />
    <glyph glyph-name="h" unicode="h" horiz-adv-x="474" 
d="M60 15v720q0 15 15 15h70q15 0 15 -15v-283q0 -5 5 -5q3 0 14.5 9.5t35.5 19t58 9.5q73 0 114 -41t41 -123v-306q0 -15 -15 -15h-70q-15 0 -15 15v280q0 40 -20.5 66t-62.5 26q-49 0 -67 -24.5t-18 -67.5v-280q0 -15 -15 -15h-70q-15 0 -15 15z" />
    <glyph glyph-name="i" unicode="i" horiz-adv-x="208" 
d="M104 542q-28 0 -46.5 18.5t-18.5 46.5q0 27 18.5 46t46.5 19q27 0 46 -19t19 -46q0 -28 -19 -46.5t-46 -18.5zM69 0q-15 0 -15 15v450q0 15 15 15h70q15 0 15 -15v-450q0 -15 -15 -15h-70z" />
    <glyph glyph-name="j" unicode="j" horiz-adv-x="208" 
d="M39 607q0 27 18.5 46t46.5 19q27 0 46 -19t19 -46q0 -28 -19 -46.5t-46 -18.5q-28 0 -46.5 18.5t-18.5 46.5zM-50 -235v67q0 16 19 16q85 0 85 93v524q0 15 15 15h70q15 0 15 -15v-551q0 -77 -49 -120.5t-136 -43.5q-19 0 -19 15z" />
    <glyph glyph-name="k" unicode="k" horiz-adv-x="424" 
d="M60 15v720q0 15 15 15h70q15 0 15 -15v-419q0 -7 4.5 -9.5t12.5 5.5l137 153q9 10 14 12.5t16 2.5h61q11 0 15.5 -4.5t-4.5 -16.5l-134 -150q-6 -7 -1 -17l144 -271q6 -11 0.5 -16t-15.5 -5h-54q-14 0 -18 2t-10 13l-111 201q-7 13 -16 2l-32 -35q-9 -9 -9 -32v-136
q0 -15 -15 -15h-70q-15 0 -15 15z" />
    <glyph glyph-name="l" unicode="l" horiz-adv-x="220" 
d="M75 0q-15 0 -15 15v720q0 15 15 15h70q15 0 15 -15v-720q0 -15 -15 -15h-70z" />
    <glyph glyph-name="m" unicode="m" horiz-adv-x="728" 
d="M61 0q-15 0 -15 15v450q0 15 15 15h60q15 0 15 -15v-13q0 -5 5 -5q4 0 16 9.5t37 19t61 9.5q74 0 118 -36q9 -7 14 -7t14 7q43 36 117 36q78 0 121 -43t43 -120v-307q0 -15 -15 -15h-70q-15 0 -15 15v280q0 36 -21 64t-65 28q-45 0 -63.5 -27.5t-18.5 -64.5v-280
q0 -15 -15 -15h-70q-15 0 -15 15v280q0 36 -21 64t-65 28q-45 0 -63.5 -27.5t-18.5 -64.5v-280q0 -15 -15 -15h-70z" />
    <glyph glyph-name="n" unicode="n" horiz-adv-x="460" 
d="M46 15v450q0 15 15 15h60q15 0 15 -15v-13q0 -5 5 -5q3 0 16 9.5t38 19t59 9.5q74 0 117 -41.5t43 -122.5v-306q0 -15 -15 -15h-70q-15 0 -15 15v280q0 40 -20.5 66t-62.5 26q-49 0 -67 -24.5t-18 -67.5v-280q0 -15 -15 -15h-70q-15 0 -15 15z" />
    <glyph glyph-name="o" unicode="o" horiz-adv-x="436" 
d="M34 178v124q0 85 48.5 134t135.5 49t135.5 -49t48.5 -134v-124q0 -85 -48.5 -134t-135.5 -49t-135.5 49t-48.5 134zM134 195q0 -102 84 -102t84 102v90q0 102 -84 102t-84 -102v-90z" />
    <glyph glyph-name="p" unicode="p" horiz-adv-x="448" 
d="M61 -250q-15 0 -15 15v700q0 15 15 15h60q15 0 15 -15v-13q0 -5 5 -5q3 0 14.5 9.5t35.5 19t58 9.5q75 0 120 -41.5t45 -122.5v-162q0 -81 -43 -122.5t-117 -41.5q-34 0 -56.5 9.5t-33 19t-13.5 9.5q-5 0 -5 -5v-263q0 -15 -15 -15h-70zM231 93q42 0 62.5 26t20.5 66v110
q0 40 -20.5 66t-62.5 26q-49 0 -67 -24.5t-18 -67.5v-110q0 -43 18 -67.5t67 -24.5z" />
    <glyph glyph-name="q" unicode="q" horiz-adv-x="448" 
d="M387 -250h-70q-15 0 -15 15v263q0 5 -5 5q-3 0 -13.5 -9.5t-33 -19t-56.5 -9.5q-74 0 -117 41.5t-43 122.5v162q0 81 45 122.5t120 41.5q34 0 58 -9.5t35.5 -19t14.5 -9.5q5 0 5 5v13q0 15 15 15h60q15 0 15 -15v-700q0 -15 -15 -15zM217 93q49 0 67 24.5t18 67.5v110
q0 43 -18 67.5t-67 24.5q-42 0 -62.5 -26t-20.5 -66v-110q0 -40 20.5 -66t62.5 -26z" />
    <glyph glyph-name="r" unicode="r" horiz-adv-x="298" 
d="M61 0q-15 0 -15 15v450q0 15 15 15h60q15 0 15 -15v-19q0 -5 5 -5q3 0 18.5 11t44 22t64.5 11q15 0 15 -15v-79q0 -15 -15 -13q-122 13 -122 -78v-285q0 -15 -15 -15h-70z" />
    <glyph glyph-name="s" unicode="s" horiz-adv-x="416" 
d="M34 144v12q0 15 20 15h61q19 0 19 -15q0 -27 19 -47.5t56 -20.5q35 0 51.5 15.5t16.5 39.5t-25 36t-60.5 18t-71.5 16.5t-61 40.5t-25 81q0 68 45 109t129 41q83 0 128.5 -42.5t45.5 -106.5v-12q0 -15 -19 -15h-61q-20 0 -20 15q0 27 -18.5 47.5t-55.5 20.5
q-35 0 -52 -15t-17 -39t25 -36t60.5 -18.5t71.5 -17t61 -40.5t25 -81q0 -68 -44.5 -109t-128.5 -41q-83 0 -129 42.5t-46 106.5z" />
    <glyph glyph-name="t" unicode="t" horiz-adv-x="362" 
d="M15 405v60q0 15 15 15h50q15 0 15 15v88q0 15 15 15h70q15 0 15 -15v-88q0 -15 15 -15h74q15 0 15 -15v-60q0 -15 -15 -15h-74q-15 0 -15 -15v-184q0 -93 85 -93q19 0 19 -16v-67q0 -15 -19 -15q-87 0 -136 43.5t-49 120.5v211q0 15 -15 15h-50q-15 0 -15 15z" />
    <glyph glyph-name="u" unicode="u" horiz-adv-x="460" 
d="M206 -5q-74 0 -117 41.5t-43 122.5v306q0 15 15 15h70q15 0 15 -15v-280q0 -40 20.5 -66t62.5 -26q49 0 67 24.5t18 67.5v280q0 15 15 15h70q15 0 15 -15v-450q0 -15 -15 -15h-60q-15 0 -15 15v13q0 5 -5 5q-3 0 -16 -9.5t-38 -19t-59 -9.5z" />
    <glyph glyph-name="v" unicode="v" horiz-adv-x="429" 
d="M193 0q-14 0 -19 2.5t-9 13.5l-139 447q-3 11 3 14t19 3h49q10 0 14.5 -0.5t8.5 -4t6 -10.5l84 -310q1 -3 2.5 -4t3.5 0t3 4l84 310q2 7 6 10.5t8.5 4t14.5 0.5h49q9 0 13 -0.5t7.5 -4.5t1.5 -12l-139 -447q-4 -11 -9 -13.5t-19 -2.5h-43z" />
    <glyph glyph-name="w" unicode="w" horiz-adv-x="641" 
d="M179 0q-15 0 -20 3.5t-8 14.5l-125 445q-3 11 3 14t19 3h54q10 0 14.5 -0.5t8.5 -4t6 -10.5l65 -251q2 -4 5 -4t5 4l63 251q4 15 18 15h67q14 0 18 -15l63 -251q1 -4 5 -4t5 4l65 251q2 7 6 10.5t8.5 4t14.5 0.5h54q9 0 13 -0.5t7.5 -4.5t1.5 -12l-125 -445
q-4 -12 -8.5 -15t-19.5 -3h-45q-15 0 -20 3.5t-8 14.5l-63 236q-2 4 -6 4t-5 -4l-63 -236q-3 -11 -8 -14.5t-20 -3.5h-45z" />
    <glyph glyph-name="x" unicode="x" horiz-adv-x="423" 
d="M41 0q-9 0 -14 4.5t0 16.5l122 211q5 7 1 14l-124 213q-5 11 0 16t14 5h61q13 0 18 -2.5t11 -11.5l76 -132q2 -3 5 -3t4 3l76 131q6 10 11.5 12.5t18.5 2.5h61q9 0 15 -5.5t0 -15.5l-124 -213q-5 -8 0 -14l122 -211q5 -12 0 -16.5t-14 -4.5h-59q-14 0 -19.5 2t-11.5 13
l-75 128q-2 3 -5 3t-4 -3l-75 -128q-4 -7 -9 -10.5t-9 -4t-14 -0.5h-59z" />
    <glyph glyph-name="y" unicode="y" horiz-adv-x="433" 
d="M108 -250q-11 0 -15.5 0.5t-9 4.5t0.5 13l78 240q2 8 0 16l-136 439q-3 11 3 14t19 3h49q10 0 14.5 -0.5t8.5 -4t6 -10.5l85 -281q1 -4 5 -4t5 4l86 281q2 7 6 10.5t8 4t14 0.5h50q9 0 13 -0.5t7.5 -4.5t1.5 -12l-218 -695q-4 -11 -9 -14.5t-19 -3.5h-53z" />
    <glyph glyph-name="z" unicode="z" horiz-adv-x="422" 
d="M56 0q-11 0 -15.5 4.5t-4.5 15.5v61q0 18 9 28l222 268q3 3 2 6t-5 3h-208q-11 0 -15.5 4.5t-4.5 15.5v54q0 11 4.5 15.5t15.5 4.5h310q12 0 16 -4.5t4 -15.5v-60q0 -17 -8 -27l-223 -270q-3 -3 -2 -6t5 -3h208q11 0 15.5 -4.5t4.5 -15.5v-54q0 -11 -4.5 -15.5
t-15.5 -4.5h-310z" />
    <glyph glyph-name="braceleft" unicode="{" horiz-adv-x="320" 
d="M275 -203q-75 0 -125 41.5t-50 112.5v298q-1 38 -10.5 55.5t-39.5 17.5h-15q-15 0 -15 15v64q0 15 15 15h15q30 0 39.5 18t10.5 55v215q0 71 50 112.5t125 41.5q15 0 15 -15v-68q0 -15 -15 -15q-31 0 -53 -21t-22 -62v-200q0 -63 -32 -108q32 -45 32 -107v-284
q0 -41 22 -62t53 -21q15 0 15 -15v-68q0 -15 -15 -15z" />
    <glyph glyph-name="bar" unicode="|" horiz-adv-x="245" 
d="M85 -250q-15 0 -15 15v970q0 15 15 15h75q15 0 15 -15v-970q0 -15 -15 -15h-75z" />
    <glyph glyph-name="braceright" unicode="}" horiz-adv-x="320" 
d="M45 -203q-15 0 -15 15v68q0 15 15 15q31 0 53 21t22 62v284q0 62 32 107q-32 45 -32 108v200q0 41 -22 62t-53 21q-15 0 -15 15v68q0 15 15 15q75 0 125 -41.5t50 -112.5v-215q1 -37 10.5 -55t39.5 -18h15q15 0 15 -15v-64q0 -15 -15 -15h-15q-30 0 -39.5 -17.5
t-10.5 -55.5v-298q0 -71 -50 -112.5t-125 -41.5z" />
    <glyph glyph-name="asciitilde" unicode="~" horiz-adv-x="431" 
d="M58 192q-18 0 -18 12q0 55 28.5 84t73.5 29q41 0 80.5 -21.5t55.5 -21.5q18 0 28.5 9t10.5 22q0 12 19 12h36q19 0 19 -12q0 -54 -28.5 -83.5t-73.5 -29.5q-41 0 -81 22t-56 22q-17 0 -27.5 -9t-10.5 -23q0 -12 -20 -12h-36z" />
    <glyph glyph-name="exclamdown" unicode="&#xa1;" horiz-adv-x="245" 
d="M122 480q26 0 44.5 -18t18.5 -44t-18.5 -44t-44.5 -18t-44 18t-18 44t18 44t44 18zM107 280h35q15 0 15 -15l20 -520q0 -15 -15 -15h-75q-15 0 -15 15l20 520q0 15 15 15z" />
    <glyph glyph-name="cent" unicode="&#xa2;" horiz-adv-x="422" 
d="M183 -70q-15 0 -15 15v47q0 11 -17 15q-117 27 -117 167v132q0 141 117 167q10 2 13.5 5t3.5 10v47q0 15 15 15h70q15 0 15 -15v-47q0 -12 15 -15q119 -27 119 -147v-22q0 -15 -15 -15h-70q-15 0 -15 15q0 78 -84 78t-84 -103v-78q0 -103 84 -103t84 78q0 15 15 15h70
q15 0 15 -15v-22q0 -60 -27.5 -96t-91.5 -51q-15 -3 -15 -15v-47q0 -15 -15 -15h-70z" />
    <glyph glyph-name="sterling" unicode="&#xa3;" horiz-adv-x="518" 
d="M85 0q-15 0 -15 15v285q0 15 -15 15h-30q-15 0 -15 15v50q0 15 15 15h30q15 0 15 15v161q0 76 54 127.5t146 51.5t146 -51.5t54 -127.5v-27q0 -15 -15 -15h-75q-15 0 -15 15v3q0 46 -24 74.5t-71 28.5q-48 0 -71.5 -28t-23.5 -75v-137q0 -15 15 -15h185q15 0 15 -15v-50
q0 -15 -15 -15h-185q-15 0 -15 -15v-191q0 -15 15 -15h265q15 0 15 -15v-64q0 -15 -15 -15h-370z" />
    <glyph glyph-name="yen" unicode="&#xa5;" horiz-adv-x="465" 
d="M193 0q-15 0 -15 15v85q0 15 -15 15h-60q-15 0 -15 15v50q0 15 15 15h60q15 0 15 15v10q0 15 -15 15h-60q-15 0 -15 15v50q0 15 15 15h51q15 0 10 15l-134 405q-5 15 10 15h75q15 0 20 -15l94 -290q1 -3 2.5 -4t3 0t2.5 4l94 290q5 15 20 15h75q15 0 10 -15l-134 -405
q-5 -15 10 -15h51q15 0 15 -15v-50q0 -15 -15 -15h-60q-15 0 -15 -15v-10q0 -15 15 -15h60q15 0 15 -15v-50q0 -15 -15 -15h-60q-15 0 -15 -15v-85q0 -15 -15 -15h-80z" />
    <glyph glyph-name="section" unicode="&#xa7;" horiz-adv-x="521" 
d="M53 -81v32q0 15 15 15h76q15 0 15 -15v-8q0 -43 28 -68t74 -25q45 0 73.5 25t28.5 68v8q0 17 -6.5 31.5t-21.5 28t-28.5 23t-40 26t-42.5 27.5q-5 4 -30 20.5t-32 22l-27.5 21t-27.5 24l-21 25t-19 30t-9.5 31.5t-4.5 38v32q0 46 29 90q11 16 -1 35q-28 46 -28 93v32
q0 73 59 121t149 48t148.5 -48t58.5 -121v-32q0 -15 -14 -15h-77q-14 0 -14 15v8q0 43 -28.5 68t-73.5 25t-73.5 -25t-28.5 -68v-8q0 -17 5 -30.5t19.5 -27t26 -22t40 -26.5t45.5 -30l33 -22.5t35.5 -24.5t30.5 -24t30.5 -30t21.5 -31t17 -38t5 -42v-32q0 -43 -30 -91
q-11 -17 1 -35q29 -44 29 -92v-32q0 -73 -58.5 -121t-148.5 -48t-149 48t-59 121zM159 299q0 -18 5 -31t21.5 -28t30 -24.5t49 -32t59.5 -39.5q21 -14 30 -1t9 58q0 18 -6 32t-24.5 30t-31.5 25t-49.5 32t-55.5 36q-20 13 -28.5 -5.5t-8.5 -51.5z" />
    <glyph glyph-name="dieresis" unicode="&#xa8;" horiz-adv-x="469" 
d="M111 548q-28 0 -46.5 18.5t-18.5 46.5q0 27 18.5 46t46.5 19q27 0 46 -19t19 -46q0 -28 -19 -46.5t-46 -18.5zM291 548q-28 0 -46.5 18.5t-18.5 46.5q0 27 18.5 46t46.5 19q27 0 46 -19t19 -46q0 -28 -19 -46.5t-46 -18.5z" />
    <glyph glyph-name="copyright" unicode="&#xa9;" horiz-adv-x="737" 
d="M369 0q-147 0 -230.5 70.5t-83.5 178.5v212q0 108 83.5 178.5t230.5 70.5t230 -70.5t83 -178.5v-212q0 -108 -83 -178.5t-230 -70.5zM369 100q99 0 156 50t57 123v164q0 73 -57 123t-156 50t-156.5 -50t-57.5 -123v-164q0 -73 57.5 -123t156.5 -50zM373 161q-62 0 -96 29
t-34 84v149q0 55 34 84t96 29q61 0 95 -29t34 -84v-26q0 -8 -9 -8h-82q-8 0 -8 8v24q0 29 -30 29t-30 -29v-145q0 -28 30 -28t30 28v24q0 8 8 8h82q9 0 9 -8v-26q0 -55 -34 -84t-95 -29z" />
    <glyph glyph-name="guillemotleft" unicode="&#xab;" horiz-adv-x="519" 
d="M254 88l-209 120q-15 9 -15 21v60q0 12 15 21l209 120q6 4 10.5 1.5t4.5 -9.5v-64q0 -14 -15 -22l-124 -70q-14 -7 0 -14l124 -70q15 -8 15 -21v-64q0 -7 -4.5 -10t-10.5 1zM474 88l-209 120q-15 9 -15 21v60q0 12 15 21l209 120q6 4 10.5 1.5t4.5 -9.5v-64
q0 -14 -15 -22l-124 -70q-14 -7 0 -14l124 -70q15 -8 15 -21v-64q0 -7 -4.5 -10t-10.5 1z" />
    <glyph glyph-name="registered" unicode="&#xae;" horiz-adv-x="737" 
d="M369 710q147 0 230 -70.5t83 -178.5v-212q0 -108 -83 -178.5t-230 -70.5t-230.5 70.5t-83.5 178.5v212q0 108 83.5 178.5t230.5 70.5zM582 273v164q0 73 -57 123t-156 50t-156.5 -50t-57.5 -123v-164q0 -73 57.5 -123t156.5 -50t156 50t57 123zM378 534q61 0 96.5 -31
t35.5 -85v-18q0 -20 -10.5 -45.5t-26.5 -36.5q-7 -5 -6 -10l38 -139q3 -10 -7 -10h-74q-13 0 -15 7l-28 114q-2 7 -9 7h-19q-7 0 -7 -7v-113q0 -8 -8 -8h-83q-8 0 -8 8v360q0 7 8 7h123zM410 401v18q0 27 -32 27h-25q-7 0 -7 -8v-57q0 -7 7 -7h25q32 0 32 27z" />
    <glyph glyph-name="macron" unicode="&#xaf;" horiz-adv-x="312" 
d="M44 561q-26 0 -26 20v44q0 20 26 20h224q15 0 20.5 -4.5t5.5 -15.5v-44q0 -11 -5.5 -15.5t-20.5 -4.5h-224z" />
    <glyph glyph-name="degree" unicode="&#xb0;" horiz-adv-x="241" 
d="M120 650q-41 0 -70.5 29.5t-29.5 70.5q0 42 29.5 71.5t70.5 29.5q42 0 71.5 -29.5t29.5 -71.5q0 -41 -29.5 -70.5t-71.5 -29.5zM120 713q16 0 27 10.5t11 26.5t-11 27t-27 11t-26.5 -11t-10.5 -27t10.5 -26.5t26.5 -10.5z" />
    <glyph glyph-name="uni00B2" unicode="&#xb2;" horiz-adv-x="370" 
d="M53 351v91q0 21 8.5 39t27 33.5t30.5 23l36 21.5q5 3 7 4q10 6 25.5 13.5t22.5 12t15.5 10.5t11.5 12t3 14v5q0 17 -14 29t-35 12q-22 0 -35.5 -13t-13.5 -33v-4q0 -9 -9 -9h-71q-9 0 -9 9v16q0 51 38.5 82t99.5 31q60 0 98 -31.5t38 -82.5v-13q0 -22 -9 -41t-28.5 -35
t-32 -24t-37.5 -22q-7 -4 -18.5 -10t-17.5 -9.5l-14 -8.5t-12 -8.5l-8.5 -7.5t-6 -8.5t-1.5 -9.5v-12q0 -9 8 -9h162q8 0 8 -8v-59q0 -9 -8 -9h-250q-9 0 -9 9z" />
    <glyph glyph-name="uni00B3" unicode="&#xb3;" horiz-adv-x="383" 
d="M190 342q-61 0 -99 30.5t-38 81.5v11q0 9 9 9h70q9 0 9 -9v-5q0 -20 13.5 -32.5t35.5 -12.5q23 0 36.5 12.5t13.5 32.5v10q0 40 -57 40q-9 0 -9 10v58q0 9 9 9q57 0 57 38v8q0 20 -13 32t-37 12q-22 0 -35.5 -12t-13.5 -32v-6q0 -8 -9 -8h-70q-9 0 -9 8v12q0 50 38 80.5
t99 30.5t99.5 -30.5t38.5 -80.5v-19q0 -44 -39 -70q-2 -2 0 -4q15 -9 27 -28.5t12 -41.5v-22q0 -51 -38.5 -81.5t-99.5 -30.5z" />
    <glyph glyph-name="acute" unicode="&#xb4;" horiz-adv-x="182" 
d="M43 548q-24 0 -19 21l30 107q4 13 8 17t15 4h62q8 0 12 -5.5t0 -14.5l-48 -108q-9 -21 -29 -21h-31z" />
    <glyph glyph-name="paragraph" unicode="&#xb6;" horiz-adv-x="808" 
d="M322 -250q-15 0 -15 15v550q0 15 -15 15h-29q-85 0 -146.5 61t-61.5 149q0 85 63 147.5t145 62.5h499q15 0 15 -14v-66q0 -14 -15 -14h-60q-15 0 -15 -15v-876q0 -15 -15 -15h-70q-15 0 -15 15v876q0 15 -15 15h-150q-15 0 -15 -15v-876q0 -15 -15 -15h-70z" />
    <glyph glyph-name="periodcentered" unicode="&#xb7;" horiz-adv-x="165" 
d="M82 323q-26 0 -44 18t-18 44t18 44t44 18t44.5 -18t18.5 -44t-18.5 -44t-44.5 -18z" />
    <glyph glyph-name="cedilla" unicode="&#xb8;" horiz-adv-x="270" 
d="M115 -213q-42 0 -78 12q-10 3 -5 13l16 42q3 9 17 6q25 -5 39 -5q53 0 53 29q0 28 -53 28q-14 0 -56 -7q-14 -2 -19 6.5t0 16.5l58 123h73l-39 -76q-3 -6 -3.5 -8.5t1.5 -3.5t8 0q14 2 25 2q41 0 66.5 -22.5t25.5 -57.5q0 -46 -36.5 -72t-92.5 -26z" />
    <glyph glyph-name="uni00B9" unicode="&#xb9;" horiz-adv-x="278" 
d="M129 342q-9 0 -9 9v273q0 8 -5 3l-38 -37q-6 -5 -11 0l-47 40q-7 8 -1 14l102 101q5 5 11 5h68q9 0 9 -8v-391q0 -9 -9 -9h-70z" />
    <glyph glyph-name="guillemotright" unicode="&#xbb;" horiz-adv-x="519" 
d="M45 88q-6 -4 -10.5 -1t-4.5 10v64q0 13 15 21l124 70q14 7 0 14l-124 70q-15 8 -15 22v64q0 7 4.5 9.5t10.5 -1.5l209 -120q15 -9 15 -21v-60q0 -12 -15 -21zM265 88q-6 -4 -10.5 -1t-4.5 10v64q0 13 15 21l124 70q14 7 0 14l-124 70q-15 8 -15 22v64q0 7 4.5 9.5
t10.5 -1.5l209 -120q15 -9 15 -21v-60q0 -12 -15 -21z" />
    <glyph glyph-name="onequarter" unicode="&#xbc;" horiz-adv-x="773" 
d="M129 292q-9 0 -9 9v273q0 8 -5 3l-38 -37q-6 -5 -11 0l-47 40q-7 8 -1 14l102 101q5 5 11 5h68q9 0 9 -8v-391q0 -9 -9 -9h-70zM474 700h60q8 0 11.5 -4t0.5 -11l-285 -670q-7 -15 -18 -15h-60q-8 0 -11.5 4t-0.5 11l285 670q7 15 18 15zM607 0q-8 0 -8 9v67q0 9 -9 9
h-165q-9 0 -9 8v61q0 10 3 14l180 235q3 5 12 5h67q9 0 9 -8v-229q0 -9 9 -9h39q8 0 8 -9v-60q0 -8 -9 -8h-38q-9 0 -9 -9v-67q0 -9 -9 -9h-71zM514 162h76q9 0 9 9v102q0 4 -3.5 4t-4.5 -2l-81 -106q-5 -7 4 -7z" />
    <glyph glyph-name="onehalf" unicode="&#xbd;" horiz-adv-x="751" 
d="M129 292q-9 0 -9 9v273q0 8 -5 3l-38 -37q-6 -5 -11 0l-47 40q-7 8 -1 14l102 101q5 5 11 5h68q9 0 9 -8v-391q0 -9 -9 -9h-70zM455 700h60q8 0 11.5 -4t0.5 -11l-285 -670q-7 -15 -18 -15h-60q-8 0 -11.5 4t-0.5 11l285 670q7 15 18 15zM434 9v91q0 21 8.5 39t27 33.5
t30.5 23l36 21.5q5 3 7 4q10 6 25.5 13.5t22.5 12t15.5 10.5t11.5 12t3 14v5q0 17 -14 29t-35 12q-22 0 -35.5 -13t-13.5 -33v-4q0 -9 -9 -9h-71q-9 0 -9 9v16q0 51 38.5 82t99.5 31q60 0 98 -31.5t38 -82.5v-13q0 -22 -9 -41t-28.5 -35t-32 -24t-37.5 -22q-7 -4 -18.5 -10
t-17.5 -9.5l-14 -8.5t-12 -8.5l-8.5 -7.5t-6 -8.5t-1.5 -9.5v-12q0 -9 8 -9h162q8 0 8 -8v-59q0 -9 -8 -9h-250q-9 0 -9 9z" />
    <glyph glyph-name="threequarters" unicode="&#xbe;" horiz-adv-x="813" 
d="M190 292q-61 0 -99 30.5t-38 81.5v11q0 9 9 9h70q9 0 9 -9v-5q0 -20 13.5 -32.5t35.5 -12.5q23 0 36.5 12.5t13.5 32.5v10q0 40 -57 40q-9 0 -9 10v58q0 9 9 9q57 0 57 38v8q0 20 -13 32t-37 12q-22 0 -35.5 -12t-13.5 -32v-6q0 -8 -9 -8h-70q-9 0 -9 8v12q0 50 38 80.5
t99 30.5t99.5 -30.5t38.5 -80.5v-19q0 -44 -39 -70q-2 -2 0 -4q15 -9 27 -28.5t12 -41.5v-22q0 -51 -38.5 -81.5t-99.5 -30.5zM534 700h60q8 0 11.5 -4t0.5 -11l-285 -670q-7 -15 -18 -15h-60q-8 0 -11.5 4t-0.5 11l285 670q7 15 18 15zM647 0q-8 0 -8 9v67q0 9 -9 9h-165
q-9 0 -9 8v61q0 10 3 14l180 235q3 5 12 5h67q9 0 9 -8v-229q0 -9 9 -9h39q8 0 8 -9v-60q0 -8 -9 -8h-38q-9 0 -9 -9v-67q0 -9 -9 -9h-71zM554 162h76q9 0 9 9v102q0 4 -3.5 4t-4.5 -2l-81 -106q-5 -7 4 -7z" />
    <glyph glyph-name="questiondown" unicode="&#xbf;" horiz-adv-x="505" 
d="M282 480q26 0 44 -18t18 -44t-18 -44t-44 -18t-44.5 18t-18.5 44t18.5 44t44.5 18zM303 280q15 0 15 -15q0 -69 -17.5 -114.5t-42 -66.5t-49 -38t-42 -44.5t-17.5 -70.5v-8q0 -43 28.5 -68t73.5 -25t73.5 25t28.5 68v8q0 15 15 15h68q15 0 15 -15v-32q0 -74 -55 -121.5
t-145 -47.5q-89 0 -144 47.5t-55 121.5v32q0 45 14.5 79t36.5 52.5l47.5 39l47.5 38t36.5 50t14.5 75.5q0 15 15 15h38z" />
    <glyph glyph-name="Agrave" unicode="&#xc0;" horiz-adv-x="482" 
d="M258 788h-32q-13 0 -29 21l-51 66q-6 9 -2.5 15.5t11.5 6.5h67q14 0 19 -15l30 -80q2 -6 -2 -10t-11 -4zM43 0q-21 0 -17 17l164 715q2 11 6 14.5t13 3.5h64q9 0 13 -3.5t6 -14.5l164 -715q4 -17 -17 -17h-65q-16 0 -20 15l-17 69q-3 15 -19 15h-154q-16 0 -19 -15
l-17 -69q-4 -15 -20 -15h-65zM175 193h132q12 0 9 12l-70 301q-1 4 -5 4t-5 -4l-70 -301q-3 -12 9 -12z" />
    <glyph glyph-name="Aacute" unicode="&#xc1;" horiz-adv-x="482" 
d="M224 788q-7 0 -11 4t-2 10l30 80q5 15 19 15h67q8 0 11.5 -6.5t-2.5 -15.5l-51 -66q-16 -21 -29 -21h-32zM43 0q-21 0 -17 17l164 715q2 11 6 14.5t13 3.5h64q9 0 13 -3.5t6 -14.5l164 -715q4 -17 -17 -17h-65q-16 0 -20 15l-17 69q-3 15 -19 15h-154q-16 0 -19 -15
l-17 -69q-4 -15 -20 -15h-65zM175 193h132q12 0 9 12l-70 301q-1 4 -5 4t-5 -4l-70 -301q-3 -12 9 -12z" />
    <glyph glyph-name="Acircumflex" unicode="&#xc2;" horiz-adv-x="482" 
d="M125 788q-12 0 -15.5 6t4.5 14l86 82q6 7 21 7h41q13 0 20 -7l84 -82q7 -7 4.5 -13.5t-14.5 -6.5h-68q-10 0 -17 12l-25 39q-5 8 -10 0l-25 -39q-7 -12 -18 -12h-68zM43 0q-21 0 -17 17l164 715q2 11 6 14.5t13 3.5h64q9 0 13 -3.5t6 -14.5l164 -715q4 -17 -17 -17h-65
q-16 0 -20 15l-17 69q-3 15 -19 15h-154q-16 0 -19 -15l-17 -69q-4 -15 -20 -15h-65zM175 193h132q12 0 9 12l-70 301q-1 4 -5 4t-5 -4l-70 -301q-3 -12 9 -12z" />
    <glyph glyph-name="Atilde" unicode="&#xc3;" horiz-adv-x="482" 
d="M89 784q-18 0 -18 12q0 55 28.5 84t73.5 29q41 0 80.5 -21.5t55.5 -21.5q18 0 28.5 9t10.5 22q0 12 19 12h36q19 0 19 -12q0 -54 -28.5 -83.5t-73.5 -29.5q-41 0 -81 22t-56 22q-17 0 -27.5 -9t-10.5 -23q0 -12 -20 -12h-36zM43 0q-21 0 -17 17l164 715q2 11 6 14.5
t13 3.5h64q9 0 13 -3.5t6 -14.5l164 -715q4 -17 -17 -17h-65q-16 0 -20 15l-17 69q-3 15 -19 15h-154q-16 0 -19 -15l-17 -69q-4 -15 -20 -15h-65zM175 193h132q12 0 9 12l-70 301q-1 4 -5 4t-5 -4l-70 -301q-3 -12 9 -12z" />
    <glyph glyph-name="Adieresis" unicode="&#xc4;" horiz-adv-x="482" 
d="M142 788q-28 0 -46.5 18.5t-18.5 46.5q0 27 18.5 46t46.5 19q27 0 46 -19t19 -46q0 -28 -19 -46.5t-46 -18.5zM342 788q-28 0 -46.5 18.5t-18.5 46.5q0 27 18.5 46t46.5 19q27 0 46 -19t19 -46q0 -28 -19 -46.5t-46 -18.5zM43 0q-21 0 -17 17l164 715q2 11 6 14.5t13 3.5
h64q9 0 13 -3.5t6 -14.5l164 -715q4 -17 -17 -17h-65q-16 0 -20 15l-17 69q-3 15 -19 15h-154q-16 0 -19 -15l-17 -69q-4 -15 -20 -15h-65zM175 193h132q12 0 9 12l-70 301q-1 4 -5 4t-5 -4l-70 -301q-3 -12 9 -12z" />
    <glyph glyph-name="Aring" unicode="&#xc5;" horiz-adv-x="462" 
d="M456 17q4 -17 -17 -17h-65q-16 0 -20 15l-17 69q-3 15 -19 15h-154q-16 0 -19 -15l-17 -69q-4 -15 -20 -15h-65q-21 0 -17 17l158 690q-41 30 -41 81q0 42 29.5 71.5t70.5 29.5q42 0 71.5 -29.5t29.5 -71.5q0 -54 -46 -84zM243 826q-16 0 -26.5 -11t-10.5 -27t10.5 -26.5
t26.5 -10.5t27 10.5t11 26.5t-10.5 27t-27.5 11zM307 193q12 0 9 12l-70 301q-1 4 -5 4t-5 -4l-70 -301q-3 -12 9 -12h132z" />
    <glyph glyph-name="AE" unicode="&#xc6;" horiz-adv-x="685" 
d="M40 0q-20 0 -13 17l304 715q5 11 8 14.5t10 3.5h281q15 0 15 -15v-64q0 -15 -15 -15h-176q-15 0 -15 -15v-200q0 -15 15 -15h176q15 0 15 -15v-64q0 -15 -15 -15h-176q-15 0 -15 -15v-208q0 -15 15 -15h176q15 0 15 -15v-64q0 -15 -15 -15h-282q-14 0 -14 16v68
q0 15 -15 15h-142q-14 0 -20 -15l-29 -69q-7 -15 -20 -15h-68zM211 193h116q7 0 7 11v292q0 5 -5 4q-2 -1 -3 -4l-122 -292q-6 -11 7 -11z" />
    <glyph glyph-name="Ccedilla" unicode="&#xc7;" horiz-adv-x="511" 
d="M55 189v372q0 87 58 138t150 51t150 -51t58 -138v-47q0 -15 -15 -15h-76q-15 0 -15 15v23q0 56 -28 84.5t-74 28.5q-47 0 -74.5 -28.5t-27.5 -84.5v-324q0 -56 27.5 -84.5t74.5 -28.5q46 0 74 28.5t28 84.5v23q0 15 15 15h76q15 0 15 -15v-47q0 -77 -44.5 -127.5
t-119.5 -58.5q-11 -1 -14 -8l-10 -20q-3 -6 -3.5 -8.5t1.5 -3.5t8 0q14 2 25 2q41 0 66.5 -22.5t25.5 -57.5q0 -46 -36.5 -72t-92.5 -26q-42 0 -78 12q-10 3 -5 13l16 42q3 9 17 6q25 -5 39 -5q53 0 53 29q0 28 -53 28q-14 0 -56 -7q-14 -2 -19 6.5t0 16.5l31 65q4 9 -12 12
q-71 13 -113 62t-42 122z" />
    <glyph glyph-name="Egrave" unicode="&#xc8;" horiz-adv-x="420" 
d="M251 788h-32q-13 0 -29 21l-51 66q-6 9 -2.5 15.5t11.5 6.5h67q14 0 19 -15l30 -80q2 -6 -2 -10t-11 -4zM69 15v720q0 15 15 15h281q15 0 15 -15v-64q0 -15 -15 -15h-176q-15 0 -15 -15v-200q0 -15 15 -15h176q15 0 15 -15v-64q0 -15 -15 -15h-176q-15 0 -15 -15v-208
q0 -15 15 -15h176q15 0 15 -15v-64q0 -15 -15 -15h-281q-15 0 -15 15z" />
    <glyph glyph-name="Eacute" unicode="&#xc9;" horiz-adv-x="420" 
d="M217 788q-7 0 -11 4t-2 10l30 80q5 15 19 15h67q8 0 11.5 -6.5t-2.5 -15.5l-51 -66q-16 -21 -29 -21h-32zM69 15v720q0 15 15 15h281q15 0 15 -15v-64q0 -15 -15 -15h-176q-15 0 -15 -15v-200q0 -15 15 -15h176q15 0 15 -15v-64q0 -15 -15 -15h-176q-15 0 -15 -15v-208
q0 -15 15 -15h176q15 0 15 -15v-64q0 -15 -15 -15h-281q-15 0 -15 15z" />
    <glyph glyph-name="Ecircumflex" unicode="&#xca;" horiz-adv-x="420" 
d="M118 788q-12 0 -15.5 6t4.5 14l86 82q6 7 21 7h41q13 0 20 -7l84 -82q7 -7 4.5 -13.5t-14.5 -6.5h-68q-9 0 -17 12l-25 39q-5 8 -10 0l-25 -39q-8 -12 -18 -12h-68zM69 15v720q0 15 15 15h281q15 0 15 -15v-64q0 -15 -15 -15h-176q-15 0 -15 -15v-200q0 -15 15 -15h176
q15 0 15 -15v-64q0 -15 -15 -15h-176q-15 0 -15 -15v-208q0 -15 15 -15h176q15 0 15 -15v-64q0 -15 -15 -15h-281q-15 0 -15 15z" />
    <glyph glyph-name="Edieresis" unicode="&#xcb;" horiz-adv-x="420" 
d="M135 788q-28 0 -46.5 18.5t-18.5 46.5q0 27 18.5 46t46.5 19q27 0 46 -19t19 -46q0 -28 -19 -46.5t-46 -18.5zM335 788q-28 0 -46.5 18.5t-18.5 46.5q0 27 18.5 46t46.5 19q27 0 46 -19t19 -46q0 -28 -19 -46.5t-46 -18.5zM69 15v720q0 15 15 15h281q15 0 15 -15v-64
q0 -15 -15 -15h-176q-15 0 -15 -15v-200q0 -15 15 -15h176q15 0 15 -15v-64q0 -15 -15 -15h-176q-15 0 -15 -15v-208q0 -15 15 -15h176q15 0 15 -15v-64q0 -15 -15 -15h-281q-15 0 -15 15z" />
    <glyph glyph-name="Igrave" unicode="&#xcc;" horiz-adv-x="245" 
d="M139 788h-32q-13 0 -29 21l-51 66q-6 9 -2.5 15.5t11.5 6.5h67q14 0 19 -15l30 -80q2 -6 -2 -10t-11 -4zM85 0q-15 0 -15 15v720q0 15 15 15h75q15 0 15 -15v-720q0 -15 -15 -15h-75z" />
    <glyph glyph-name="Iacute" unicode="&#xcd;" horiz-adv-x="245" 
d="M105 788q-7 0 -11 4t-2 10l30 80q5 15 19 15h67q8 0 11.5 -6.5t-2.5 -15.5l-51 -66q-16 -21 -29 -21h-32zM85 0q-15 0 -15 15v720q0 15 15 15h75q15 0 15 -15v-720q0 -15 -15 -15h-75z" />
    <glyph glyph-name="Icircumflex" unicode="&#xce;" horiz-adv-x="245" 
d="M6 788q-12 0 -15.5 6t4.5 14l86 82q6 7 21 7h41q13 0 20 -7l84 -82q7 -7 4.5 -13.5t-14.5 -6.5h-68q-9 0 -17 12l-25 39q-5 8 -10 0l-25 -39q-7 -12 -18 -12h-68zM85 0q-15 0 -15 15v720q0 15 15 15h75q15 0 15 -15v-720q0 -15 -15 -15h-75z" />
    <glyph glyph-name="Idieresis" unicode="&#xcf;" horiz-adv-x="245" 
d="M23 788q-28 0 -46.5 18.5t-18.5 46.5q0 27 18.5 46t46.5 19q27 0 46 -19t19 -46q0 -28 -19 -46.5t-46 -18.5zM223 788q-28 0 -46.5 18.5t-18.5 46.5q0 27 18.5 46t46.5 19q27 0 46 -19t19 -46q0 -28 -19 -46.5t-46 -18.5zM85 0q-15 0 -15 15v720q0 15 15 15h75
q15 0 15 -15v-720q0 -15 -15 -15h-75z" />
    <glyph glyph-name="Eth" unicode="&#xd0;" horiz-adv-x="540" 
d="M86 0q-15 0 -15 15v385q0 15 -15 15h-18q-11 0 -15.5 4.5t-4.5 15.5v54q0 11 4.5 15.5t15.5 4.5h18q15 0 15 15v211q0 15 15 15h191q92 0 150 -51t58 -138v-372q0 -87 -58 -138t-150 -51h-191zM190 100h87q47 0 74.5 28.5t27.5 84.5v324q0 56 -27.5 84.5t-74.5 28.5h-87
q-11 0 -14 -9v-117q0 -15 15 -15h48q20 0 20 -20v-54q0 -11 -4.5 -15.5t-15.5 -4.5h-48q-15 0 -15 -15v-291q3 -9 14 -9z" />
    <glyph glyph-name="Ntilde" unicode="&#xd1;" horiz-adv-x="588" 
d="M147 784q-18 0 -18 12q0 55 28.5 84t73.5 29q41 0 80.5 -21.5t55.5 -21.5q18 0 28.5 9t10.5 22q0 12 19 12h36q19 0 19 -12q0 -54 -28.5 -83.5t-73.5 -29.5q-41 0 -81 22t-56 22q-17 0 -27.5 -9t-10.5 -23q0 -12 -20 -12h-36zM85 0q-15 0 -15 15v720q0 15 15 15h57
q20 0 27 -13l234 -463q2 -4 6 -3.5t4 5.5v459q0 15 15 15h75q15 0 15 -15v-720q0 -15 -15 -15h-58q-20 0 -26 12l-234 463q-2 4 -6 3.5t-4 -5.5v-458q0 -15 -15 -15h-75z" />
    <glyph glyph-name="Ograve" unicode="&#xd2;" 
d="M280 788h-32q-13 0 -29 21l-51 66q-6 9 -2.5 15.5t11.5 6.5h67q14 0 19 -15l30 -80q2 -6 -2 -10t-11 -4zM55 184v382q0 87 58 138t150 51t150 -51t58 -138v-382q0 -87 -58 -138t-150 -51t-150 51t-58 138zM161 208q0 -56 27.5 -84.5t74.5 -28.5t74.5 28.5t27.5 84.5v334
q0 56 -27.5 84.5t-74.5 28.5t-74.5 -28.5t-27.5 -84.5v-334z" />
    <glyph glyph-name="Oacute" unicode="&#xd3;" 
d="M246 788q-7 0 -11 4t-2 10l30 80q5 15 19 15h67q8 0 11.5 -6.5t-2.5 -15.5l-51 -66q-16 -21 -29 -21h-32zM55 184v382q0 87 58 138t150 51t150 -51t58 -138v-382q0 -87 -58 -138t-150 -51t-150 51t-58 138zM161 208q0 -56 27.5 -84.5t74.5 -28.5t74.5 28.5t27.5 84.5v334
q0 56 -27.5 84.5t-74.5 28.5t-74.5 -28.5t-27.5 -84.5v-334z" />
    <glyph glyph-name="Ocircumflex" unicode="&#xd4;" 
d="M147 788q-12 0 -15.5 6t4.5 14l86 82q6 7 21 7h41q13 0 20 -7l84 -82q7 -7 4.5 -13.5t-14.5 -6.5h-68q-10 0 -17 12l-25 39q-5 8 -10 0l-25 -39q-7 -12 -18 -12h-68zM55 184v382q0 87 58 138t150 51t150 -51t58 -138v-382q0 -87 -58 -138t-150 -51t-150 51t-58 138z
M161 208q0 -56 27.5 -84.5t74.5 -28.5t74.5 28.5t27.5 84.5v334q0 56 -27.5 84.5t-74.5 28.5t-74.5 -28.5t-27.5 -84.5v-334z" />
    <glyph glyph-name="Otilde" unicode="&#xd5;" 
d="M111 784q-18 0 -18 12q0 55 28.5 84t73.5 29q41 0 80.5 -21.5t55.5 -21.5q18 0 28.5 9t10.5 22q0 12 19 12h36q19 0 19 -12q0 -54 -28.5 -83.5t-73.5 -29.5q-41 0 -81 22t-56 22q-17 0 -27.5 -9t-10.5 -23q0 -12 -20 -12h-36zM55 184v382q0 87 58 138t150 51t150 -51
t58 -138v-382q0 -87 -58 -138t-150 -51t-150 51t-58 138zM161 208q0 -56 27.5 -84.5t74.5 -28.5t74.5 28.5t27.5 84.5v334q0 56 -27.5 84.5t-74.5 28.5t-74.5 -28.5t-27.5 -84.5v-334z" />
    <glyph glyph-name="Odieresis" unicode="&#xd6;" 
d="M164 788q-28 0 -46.5 18.5t-18.5 46.5q0 27 18.5 46t46.5 19q27 0 46 -19t19 -46q0 -28 -19 -46.5t-46 -18.5zM364 788q-28 0 -46.5 18.5t-18.5 46.5q0 27 18.5 46t46.5 19q27 0 46 -19t19 -46q0 -28 -19 -46.5t-46 -18.5zM55 184v382q0 87 58 138t150 51t150 -51
t58 -138v-382q0 -87 -58 -138t-150 -51t-150 51t-58 138zM161 208q0 -56 27.5 -84.5t74.5 -28.5t74.5 28.5t27.5 84.5v334q0 56 -27.5 84.5t-74.5 28.5t-74.5 -28.5t-27.5 -84.5v-334z" />
    <glyph glyph-name="multiply" unicode="&#xd7;" horiz-adv-x="372" 
d="M261 140q-10 -12 -21 0l-52 51q-10 11 -21 0l-48 -48q-11 -11 -21 0l-45 46q-11 10 0 21l48 48q11 10 0 21l-51 51q-12 10 0 21l45 45q10 12 21 0l51 -51q11 -10 21 0l48 48q10 11 21 0l45 -45q11 -11 0 -22l-47 -47q-11 -11 0 -21l51 -52q12 -11 0 -21z" />
    <glyph glyph-name="Oslash" unicode="&#xd8;" 
d="M55 184v382q0 87 58 138t150 51q28 0 49 -4q12 -2 16 8l9 26q5 15 15 15h75q7 0 12 -4.5t3 -10.5l-23 -68q-5 -14 8 -27q44 -44 44 -124v-382q0 -87 -58 -138t-150 -51q-27 0 -47 4q-12 2 -17 -12l-9 -22q0 -1 -1.5 -4l-2 -4l-1.5 -3t-2.5 -2.5t-3.5 -1t-4 -0.5h-75
q-7 0 -12 4.5t-3 10.5l22 67q4 13 -8 28q-44 55 -44 124zM161 208q0 -56 27.5 -84.5t74.5 -28.5t74.5 28.5t27.5 84.5v334q0 56 -27.5 84.5t-74.5 28.5t-74.5 -28.5t-27.5 -84.5v-334z" />
    <glyph glyph-name="Ugrave" unicode="&#xd9;" 
d="M281 788h-32q-13 0 -29 21l-51 66q-6 9 -2.5 15.5t11.5 6.5h67q14 0 19 -15l30 -80q2 -6 -2 -10t-11 -4zM55 184v551q0 15 15 15h76q15 0 15 -15v-527q0 -56 27.5 -84.5t74.5 -28.5t74.5 28.5t27.5 84.5v527q0 15 15 15h76q15 0 15 -15v-551q0 -87 -58 -138t-150 -51
t-150 51t-58 138z" />
    <glyph glyph-name="Uacute" unicode="&#xda;" 
d="M247 788q-7 0 -11 4t-2 10l30 80q5 15 19 15h67q8 0 11.5 -6.5t-2.5 -15.5l-51 -66q-16 -21 -29 -21h-32zM55 184v551q0 15 15 15h76q15 0 15 -15v-527q0 -56 27.5 -84.5t74.5 -28.5t74.5 28.5t27.5 84.5v527q0 15 15 15h76q15 0 15 -15v-551q0 -87 -58 -138t-150 -51
t-150 51t-58 138z" />
    <glyph glyph-name="Ucircumflex" unicode="&#xdb;" 
d="M148 788q-12 0 -15.5 6t4.5 14l86 82q6 7 21 7h41q13 0 20 -7l84 -82q7 -7 4.5 -13.5t-14.5 -6.5h-68q-9 0 -17 12l-25 39q-5 8 -10 0l-25 -39q-8 -12 -18 -12h-68zM55 184v551q0 15 15 15h76q15 0 15 -15v-527q0 -56 27.5 -84.5t74.5 -28.5t74.5 28.5t27.5 84.5v527
q0 15 15 15h76q15 0 15 -15v-551q0 -87 -58 -138t-150 -51t-150 51t-58 138z" />
    <glyph glyph-name="Udieresis" unicode="&#xdc;" 
d="M165 788q-28 0 -46.5 18.5t-18.5 46.5q0 27 18.5 46t46.5 19q27 0 46 -19t19 -46q0 -28 -19 -46.5t-46 -18.5zM365 788q-28 0 -46.5 18.5t-18.5 46.5q0 27 18.5 46t46.5 19q27 0 46 -19t19 -46q0 -28 -19 -46.5t-46 -18.5zM55 184v551q0 15 15 15h76q15 0 15 -15v-527
q0 -56 27.5 -84.5t74.5 -28.5t74.5 28.5t27.5 84.5v527q0 15 15 15h76q15 0 15 -15v-551q0 -87 -58 -138t-150 -51t-150 51t-58 138z" />
    <glyph glyph-name="Yacute" unicode="&#xdd;" horiz-adv-x="474" 
d="M220 788q-7 0 -11 4t-2 10l30 80q5 15 19 15h67q8 0 11.5 -6.5t-2.5 -15.5l-51 -66q-16 -21 -29 -21h-32zM199 0q-16 0 -16 15v254q0 5 -2 13l-151 452q-2 7 2 11.5t12 4.5h67q20 0 25 -15l96 -297q2 -4 6 -4t5 4l96 297q5 15 25 15h67q19 0 14 -16l-150 -452
q-3 -12 -3 -13v-254q0 -15 -15 -15h-78z" />
    <glyph glyph-name="Thorn" unicode="&#xde;" horiz-adv-x="513" 
d="M85 0q-15 0 -15 15v720q0 15 15 15h75q15 0 15 -15v-92q0 -15 15 -15h87q89 0 148.5 -52.5t59.5 -126.5v-132q0 -74 -59.5 -126.5t-148.5 -52.5h-87q-15 0 -15 -15v-108q0 -15 -15 -15h-75zM190 238h87q45 0 73.5 29.5t28.5 73.5v84q0 44 -28.5 73.5t-73.5 29.5h-87
q-15 0 -15 -15v-260q0 -15 15 -15z" />
    <glyph glyph-name="germandbls" unicode="&#xdf;" horiz-adv-x="567" 
d="M90 -113q-20 0 -20 15l1 682q0 84 49 130t138 46q92 0 147.5 -46.5t55.5 -128.5q0 -37 -22.5 -77t-45.5 -73t-23 -55q0 -20 14.5 -38.5t35.5 -34t42 -33t35.5 -44t14.5 -58.5q0 -55 -45 -104t-129 -72q-19 -5 -26 12l-17 48q-8 21 19 28q92 21 92 87q0 22 -15 40t-36 32
t-42.5 30t-36.5 40.5t-15 56.5q0 44 45 111t45 103q0 85 -89 85q-92 0 -92 -85v-682q0 -15 -19 -15h-61z" />
    <glyph glyph-name="agrave" unicode="&#xe0;" horiz-adv-x="448" 
d="M244 548h-31q-20 0 -29 21l-48 108q-4 9 0 14.5t12 5.5h62q12 0 15.5 -4t7.5 -17l30 -107q5 -21 -19 -21zM199 -5q-75 0 -120 41.5t-45 122.5v162q0 81 45 122.5t120 41.5q34 0 58 -9.5t35.5 -19t14.5 -9.5q5 0 5 5v13q0 15 15 15h60q15 0 15 -15v-450q0 -15 -15 -15h-60
q-15 0 -15 15v13q0 5 -5 5q-3 0 -14.5 -9.5t-35.5 -19t-58 -9.5zM217 93q49 0 67 24.5t18 67.5v110q0 43 -18 67.5t-67 24.5q-42 0 -62.5 -26t-20.5 -66v-110q0 -40 20.5 -66t62.5 -26z" />
    <glyph glyph-name="aacute" unicode="&#xe1;" horiz-adv-x="448" 
d="M212 548q-24 0 -19 21l30 107q4 13 7.5 17t15.5 4h62q8 0 12 -5.5t0 -14.5l-48 -108q-9 -21 -29 -21h-31zM199 -5q-75 0 -120 41.5t-45 122.5v162q0 81 45 122.5t120 41.5q34 0 58 -9.5t35.5 -19t14.5 -9.5q5 0 5 5v13q0 15 15 15h60q15 0 15 -15v-450q0 -15 -15 -15h-60
q-15 0 -15 15v13q0 5 -5 5q-3 0 -14.5 -9.5t-35.5 -19t-58 -9.5zM217 93q49 0 67 24.5t18 67.5v110q0 43 -18 67.5t-67 24.5q-42 0 -62.5 -26t-20.5 -66v-110q0 -40 20.5 -66t62.5 -26z" />
    <glyph glyph-name="acircumflex" unicode="&#xe2;" horiz-adv-x="458" 
d="M119 548q-12 0 -15 6t5 14l93 102q6 7 21 7h25q13 0 19 -7l93 -102q7 -8 4.5 -14t-14.5 -6h-68q-11 0 -17 12l-25 39q-5 8 -10 0l-25 -39q-6 -12 -18 -12h-68zM199 -5q-75 0 -120 41.5t-45 122.5v162q0 81 45 122.5t120 41.5q34 0 58 -9.5t35.5 -19t14.5 -9.5q5 0 5 5v13
q0 15 15 15h60q15 0 15 -15v-450q0 -15 -15 -15h-60q-15 0 -15 15v13q0 5 -5 5q-3 0 -14.5 -9.5t-35.5 -19t-58 -9.5zM217 93q49 0 67 24.5t18 67.5v110q0 43 -18 67.5t-67 24.5q-42 0 -62.5 -26t-20.5 -66v-110q0 -40 20.5 -66t62.5 -26z" />
    <glyph glyph-name="atilde" unicode="&#xe3;" horiz-adv-x="448" 
d="M70 548q-15 0 -15 15q0 55 28.5 84.5t73.5 29.5q41 0 80.5 -25.5t55.5 -25.5q18 0 28.5 9.5t10.5 26.5q0 15 17 15h41q16 0 16 -15q0 -55 -28.5 -84.5t-73.5 -29.5q-41 0 -81 25.5t-56 25.5q-17 0 -27.5 -10t-10.5 -26q0 -15 -17 -15h-42zM199 -5q-75 0 -120 41.5
t-45 122.5v162q0 81 45 122.5t120 41.5q34 0 58 -9.5t35.5 -19t14.5 -9.5q5 0 5 5v13q0 15 15 15h60q15 0 15 -15v-450q0 -15 -15 -15h-60q-15 0 -15 15v13q0 5 -5 5q-3 0 -14.5 -9.5t-35.5 -19t-58 -9.5zM217 93q49 0 67 24.5t18 67.5v110q0 43 -18 67.5t-67 24.5
q-42 0 -62.5 -26t-20.5 -66v-110q0 -40 20.5 -66t62.5 -26z" />
    <glyph glyph-name="adieresis" unicode="&#xe4;" horiz-adv-x="458" 
d="M149 548q-28 0 -46.5 18.5t-18.5 46.5q0 27 18.5 46t46.5 19q27 0 46 -19t19 -46q0 -28 -19 -46.5t-46 -18.5zM329 548q-28 0 -46.5 18.5t-18.5 46.5q0 27 18.5 46t46.5 19q27 0 46 -19t19 -46q0 -28 -19 -46.5t-46 -18.5zM199 -5q-75 0 -120 41.5t-45 122.5v162
q0 81 45 122.5t120 41.5q34 0 58 -9.5t35.5 -19t14.5 -9.5q5 0 5 5v13q0 15 15 15h60q15 0 15 -15v-450q0 -15 -15 -15h-60q-15 0 -15 15v13q0 5 -5 5q-3 0 -14.5 -9.5t-35.5 -19t-58 -9.5zM217 93q49 0 67 24.5t18 67.5v110q0 43 -18 67.5t-67 24.5q-42 0 -62.5 -26
t-20.5 -66v-110q0 -40 20.5 -66t62.5 -26z" />
    <glyph glyph-name="aring" unicode="&#xe5;" horiz-adv-x="448" 
d="M228 515q-41 0 -70.5 29.5t-29.5 70.5q0 42 29.5 71.5t70.5 29.5q42 0 71.5 -29.5t29.5 -71.5q0 -41 -29.5 -70.5t-71.5 -29.5zM228 578q16 0 27 10.5t11 26.5q0 17 -11 27.5t-27 10.5t-26.5 -11t-10.5 -27t10.5 -26.5t26.5 -10.5zM199 -5q-75 0 -120 41.5t-45 122.5v162
q0 81 45 122.5t120 41.5q34 0 58 -9.5t35.5 -19t14.5 -9.5q5 0 5 5v13q0 15 15 15h60q15 0 15 -15v-450q0 -15 -15 -15h-60q-15 0 -15 15v13q0 5 -5 5q-3 0 -14.5 -9.5t-35.5 -19t-58 -9.5zM217 93q49 0 67 24.5t18 67.5v110q0 43 -18 67.5t-67 24.5q-42 0 -62.5 -26
t-20.5 -66v-110q0 -40 20.5 -66t62.5 -26z" />
    <glyph glyph-name="ae" unicode="&#xe6;" horiz-adv-x="704" 
d="M34 139v30q0 36 31.5 65.5t93.5 29.5h124q19 0 19 15v25q0 83 -84 83q-39 0 -61.5 -16t-22.5 -37q0 -15 -19 -15h-61q-20 0 -20 15v17q0 65 48 99.5t136 34.5q81 0 121 -24q13 -8 25 0q46 24 122 24q87 0 135.5 -40.5t48.5 -113.5v-100q0 -15 -19 -15h-229q-20 0 -20 -15
v-25q0 -83 84 -83q39 0 61.5 16t22.5 37q0 15 20 15h61q19 0 19 -15v-17q0 -65 -48 -99.5t-136 -34.5q-85 0 -121 24q-12 8 -25 1q-44 -25 -122 -25q-88 0 -136 36t-48 108zM402 309q0 -15 20 -15h128q19 0 19 15v10q0 32 -21.5 50t-61.5 18t-62 -18t-22 -50v-10zM135 161
q0 -32 21.5 -50t61.5 -18t62 18t22 50v10q0 15 -19 15h-129q-19 0 -19 -15v-10z" />
    <glyph glyph-name="ccedilla" unicode="&#xe7;" horiz-adv-x="422" 
d="M163 0q-61 11 -95 58.5t-34 119.5v124q0 85 48.5 134t135.5 49q83 0 133.5 -46.5t50.5 -107.5v-27q0 -15 -15 -15h-70q-15 0 -15 15q0 30 -23 56.5t-61 26.5q-84 0 -84 -102v-90q0 -102 84 -102q38 0 61 26.5t23 56.5q0 15 15 15h70q15 0 15 -15v-27q0 -53 -39 -97.5
t-103 -53.5q-11 -1 -14 -8l-10 -15q-5 -8 -4 -10.5t10 -1.5q14 2 25 2q41 0 66.5 -22.5t25.5 -57.5q0 -46 -36.5 -72t-92.5 -26q-42 0 -78 12q-10 3 -5 13l16 42q3 9 17 6q25 -5 39 -5q53 0 53 29q0 28 -53 28q-14 0 -56 -7q-15 -2 -20 6.5t1 16.5l31 60q4 9 -12 12z" />
    <glyph glyph-name="egrave" unicode="&#xe8;" horiz-adv-x="436" 
d="M234 548h-31q-20 0 -29 21l-48 108q-4 9 0 14.5t12 5.5h62q12 0 15.5 -4t7.5 -17l30 -107q5 -21 -19 -21zM218 -5q-84 0 -134 48t-50 116v162q0 68 50 116t134 48t134 -48t50 -116v-90q0 -15 -15 -15h-238q-15 0 -15 -15v-15q0 -45 22 -71.5t62 -26.5q41 0 62.5 20
t21.5 54q0 15 15 15h70q15 0 15 -15v-13q0 -61 -50.5 -107.5t-133.5 -46.5zM149 294h137q15 0 15 15v10q0 31 -23 52t-60 21q-38 0 -61 -21t-23 -52v-10q0 -15 15 -15z" />
    <glyph glyph-name="eacute" unicode="&#xe9;" horiz-adv-x="436" 
d="M202 548q-24 0 -19 21l30 107q4 13 7.5 17t15.5 4h62q8 0 12 -5.5t0 -14.5l-48 -108q-9 -21 -29 -21h-31zM218 -5q-84 0 -134 48t-50 116v162q0 68 50 116t134 48t134 -48t50 -116v-90q0 -15 -15 -15h-238q-15 0 -15 -15v-15q0 -45 22 -71.5t62 -26.5q41 0 62.5 20
t21.5 54q0 15 15 15h70q15 0 15 -15v-13q0 -61 -50.5 -107.5t-133.5 -46.5zM149 294h137q15 0 15 15v10q0 31 -23 52t-60 21q-38 0 -61 -21t-23 -52v-10q0 -15 15 -15z" />
    <glyph glyph-name="ecircumflex" unicode="&#xea;" horiz-adv-x="436" 
d="M102 548q-12 0 -15 6t5 14l93 102q6 7 21 7h25q13 0 19 -7l93 -102q7 -8 4.5 -14t-14.5 -6h-68q-11 0 -17 12l-25 39q-5 8 -10 0l-25 -39q-6 -12 -18 -12h-68zM218 -5q-84 0 -134 48t-50 116v162q0 68 50 116t134 48t134 -48t50 -116v-90q0 -15 -15 -15h-238
q-15 0 -15 -15v-15q0 -45 22 -71.5t62 -26.5q41 0 62.5 20t21.5 54q0 15 15 15h70q15 0 15 -15v-13q0 -61 -50.5 -107.5t-133.5 -46.5zM149 294h137q15 0 15 15v10q0 31 -23 52t-60 21q-38 0 -61 -21t-23 -52v-10q0 -15 15 -15z" />
    <glyph glyph-name="edieresis" unicode="&#xeb;" horiz-adv-x="436" 
d="M129 548q-28 0 -46.5 18.5t-18.5 46.5q0 27 18.5 46t46.5 19q27 0 46 -19t19 -46q0 -28 -19 -46.5t-46 -18.5zM309 548q-28 0 -46.5 18.5t-18.5 46.5q0 27 18.5 46t46.5 19q27 0 46 -19t19 -46q0 -28 -19 -46.5t-46 -18.5zM218 -5q-84 0 -134 48t-50 116v162q0 68 50 116
t134 48t134 -48t50 -116v-90q0 -15 -15 -15h-238q-15 0 -15 -15v-15q0 -45 22 -71.5t62 -26.5q41 0 62.5 20t21.5 54q0 15 15 15h70q15 0 15 -15v-13q0 -61 -50.5 -107.5t-133.5 -46.5zM149 294h137q15 0 15 15v10q0 31 -23 52t-60 21q-38 0 -61 -21t-23 -52v-10
q0 -15 15 -15z" />
    <glyph glyph-name="igrave" unicode="&#xec;" horiz-adv-x="230" 
d="M131 548h-31q-20 0 -29 21l-48 108q-4 9 0 14.5t12 5.5h62q11 0 15 -4t8 -17l30 -107q5 -21 -19 -21zM80 0q-15 0 -15 15v450q0 15 15 15h70q15 0 15 -15v-450q0 -15 -15 -15h-70z" />
    <glyph glyph-name="iacute" unicode="&#xed;" horiz-adv-x="230" 
d="M99 548q-24 0 -19 21l30 107q4 13 8 17t15 4h62q8 0 12 -5.5t0 -14.5l-48 -108q-9 -21 -29 -21h-31zM80 0q-15 0 -15 15v450q0 15 15 15h70q15 0 15 -15v-450q0 -15 -15 -15h-70z" />
    <glyph glyph-name="icircumflex" unicode="&#xee;" horiz-adv-x="230" 
d="M-1 548q-12 0 -15 6t5 14l93 102q6 7 21 7h25q13 0 19 -7l93 -102q7 -8 4.5 -14t-14.5 -6h-68q-11 0 -17 12l-25 39q-5 8 -10 0l-25 -39q-6 -12 -18 -12h-68zM80 0q-15 0 -15 15v450q0 15 15 15h70q15 0 15 -15v-450q0 -15 -15 -15h-70z" />
    <glyph glyph-name="idieresis" unicode="&#xef;" horiz-adv-x="196" 
d="M42 548q-26 0 -42.5 17t-16.5 42t17 42t42 17t42 -17t17 -42t-17 -42t-42 -17zM184 548q-26 0 -42.5 17t-16.5 42t17 42t42 17t42 -17t17 -42t-17 -42t-42 -17zM80 0q-15 0 -15 15v450q0 15 15 15h70q15 0 15 -15v-450q0 -15 -15 -15h-70z" />
    <glyph glyph-name="eth" unicode="&#xf0;" horiz-adv-x="504" 
d="M383 606q66 -90 66 -208v-229q0 -73 -59 -121t-149 -48t-148.5 48t-58.5 121v92q0 73 58.5 121t148.5 48q46 0 92 -18q10 -4 10 6q0 80 -57 142l-97 -46q-13 -7 -20 7l-27 58q-6 13 7 20l53 25q-32 19 -69 32q-15 5 -10 18l25 60q9 22 21 18q81 -26 143 -75l80 38
q13 7 20 -7l27 -58q6 -14 -7 -20zM343 193v44q0 43 -28.5 68t-73.5 25q-46 0 -74 -25t-28 -68v-44q0 -43 28 -68t74 -25q45 0 73.5 25t28.5 68z" />
    <glyph glyph-name="ntilde" unicode="&#xf1;" horiz-adv-x="460" 
d="M82 545q-14 0 -14 14q0 53 27 81.5t71 28.5q40 0 78 -24.5t54 -24.5q37 0 37 35q0 14 17 14h40q15 0 15 -14q0 -53 -27.5 -81.5t-71.5 -28.5q-39 0 -77.5 24.5t-54.5 24.5q-17 0 -27 -9.5t-10 -25.5q0 -14 -16 -14h-41zM46 15v450q0 15 15 15h60q15 0 15 -15v-13
q0 -5 5 -5q3 0 16 9.5t38 19t59 9.5q74 0 117 -41.5t43 -122.5v-306q0 -15 -15 -15h-70q-15 0 -15 15v280q0 40 -20.5 66t-62.5 26q-49 0 -67 -24.5t-18 -67.5v-280q0 -15 -15 -15h-70q-15 0 -15 15z" />
    <glyph glyph-name="ograve" unicode="&#xf2;" horiz-adv-x="436" 
d="M234 548h-31q-20 0 -29 21l-48 108q-4 9 0 14.5t12 5.5h62q12 0 15.5 -4t7.5 -17l30 -107q5 -21 -19 -21zM34 178v124q0 85 48.5 134t135.5 49t135.5 -49t48.5 -134v-124q0 -85 -48.5 -134t-135.5 -49t-135.5 49t-48.5 134zM134 195q0 -102 84 -102t84 102v90
q0 102 -84 102t-84 -102v-90z" />
    <glyph glyph-name="oacute" unicode="&#xf3;" horiz-adv-x="436" 
d="M202 548q-24 0 -19 21l30 107q4 13 7.5 17t15.5 4h62q8 0 12 -5.5t0 -14.5l-48 -108q-9 -21 -29 -21h-31zM34 178v124q0 85 48.5 134t135.5 49t135.5 -49t48.5 -134v-124q0 -85 -48.5 -134t-135.5 -49t-135.5 49t-48.5 134zM134 195q0 -102 84 -102t84 102v90
q0 102 -84 102t-84 -102v-90z" />
    <glyph glyph-name="ocircumflex" unicode="&#xf4;" horiz-adv-x="436" 
d="M102 548q-12 0 -15 6t5 14l93 102q6 7 21 7h25q13 0 19 -7l93 -102q7 -8 4.5 -14t-14.5 -6h-68q-11 0 -17 12l-25 39q-5 8 -10 0l-25 -39q-6 -12 -18 -12h-68zM34 178v124q0 85 48.5 134t135.5 49t135.5 -49t48.5 -134v-124q0 -85 -48.5 -134t-135.5 -49t-135.5 49
t-48.5 134zM134 195q0 -102 84 -102t84 102v90q0 102 -84 102t-84 -102v-90z" />
    <glyph glyph-name="otilde" unicode="&#xf5;" horiz-adv-x="436" 
d="M65 545q-14 0 -14 14q0 53 27 81.5t71 28.5q39 0 78 -24.5t54 -24.5q37 0 37 35q0 14 17 14h40q15 0 15 -14q0 -53 -27.5 -81.5t-71.5 -28.5q-39 0 -77.5 24.5t-54.5 24.5q-17 0 -27 -9.5t-10 -25.5q0 -14 -16 -14h-41zM34 178v124q0 85 48.5 134t135.5 49t135.5 -49
t48.5 -134v-124q0 -85 -48.5 -134t-135.5 -49t-135.5 49t-48.5 134zM134 195q0 -102 84 -102t84 102v90q0 102 -84 102t-84 -102v-90z" />
    <glyph glyph-name="odieresis" unicode="&#xf6;" horiz-adv-x="436" 
d="M129 548q-28 0 -46.5 18.5t-18.5 46.5q0 27 18.5 46t46.5 19q27 0 46 -19t19 -46q0 -28 -19 -46.5t-46 -18.5zM309 548q-28 0 -46.5 18.5t-18.5 46.5q0 27 18.5 46t46.5 19q27 0 46 -19t19 -46q0 -28 -19 -46.5t-46 -18.5zM34 178v124q0 85 48.5 134t135.5 49t135.5 -49
t48.5 -134v-124q0 -85 -48.5 -134t-135.5 -49t-135.5 49t-48.5 134zM134 195q0 -102 84 -102t84 102v90q0 102 -84 102t-84 -102v-90z" />
    <glyph glyph-name="divide" unicode="&#xf7;" horiz-adv-x="379" 
d="M189 341q-23 0 -39.5 16.5t-16.5 39.5q0 24 16.5 40.5t39.5 16.5q24 0 40.5 -16.5t16.5 -40.5q0 -23 -16.5 -39.5t-40.5 -16.5zM55 208q-15 0 -15 15v64q0 15 15 15h269q15 0 15 -15v-64q0 -15 -15 -15h-269zM189 54q-23 0 -39.5 16.5t-16.5 39.5q0 24 16.5 40.5
t39.5 16.5q24 0 40.5 -16.5t16.5 -40.5q0 -23 -16.5 -39.5t-40.5 -16.5z" />
    <glyph glyph-name="oslash" unicode="&#xf8;" horiz-adv-x="439" 
d="M87 -50q-9 0 -14.5 4t-3.5 10l16 53q4 12 -6 21q-45 38 -45 101v190q0 68 53.5 110t132.5 42h29q12 0 16 9l6 14l4 8t4.5 4.5t9.5 2.5h65q8 0 13.5 -4.5t4.5 -10.5l-17 -57q-4 -12 7 -24q43 -45 43 -94v-190q0 -68 -53 -109.5t-132 -41.5h-27q-9 0 -12.5 -3t-6.5 -11
l-4 -10q-6 -14 -19 -14h-64zM220 83q37 0 61 20t24 59v145q0 39 -24 59t-61 20q-38 0 -62 -20t-24 -59v-145q0 -39 24 -59t62 -20z" />
    <glyph glyph-name="ugrave" unicode="&#xf9;" horiz-adv-x="460" 
d="M245 548h-31q-20 0 -29 21l-48 108q-4 9 0 14.5t12 5.5h62q11 0 15 -4t8 -17l30 -107q5 -21 -19 -21zM206 -5q-74 0 -117 41.5t-43 122.5v306q0 15 15 15h70q15 0 15 -15v-280q0 -40 20.5 -66t62.5 -26q49 0 67 24.5t18 67.5v280q0 15 15 15h70q15 0 15 -15v-450
q0 -15 -15 -15h-60q-15 0 -15 15v13q0 5 -5 5q-3 0 -16 -9.5t-38 -19t-59 -9.5z" />
    <glyph glyph-name="uacute" unicode="&#xfa;" horiz-adv-x="460" 
d="M213 548q-24 0 -19 21l30 107q4 13 8 17t15 4h62q8 0 12 -5.5t0 -14.5l-48 -108q-9 -21 -29 -21h-31zM206 -5q-74 0 -117 41.5t-43 122.5v306q0 15 15 15h70q15 0 15 -15v-280q0 -40 20.5 -66t62.5 -26q49 0 67 24.5t18 67.5v280q0 15 15 15h70q15 0 15 -15v-450
q0 -15 -15 -15h-60q-15 0 -15 15v13q0 5 -5 5q-3 0 -16 -9.5t-38 -19t-59 -9.5z" />
    <glyph glyph-name="ucircumflex" unicode="&#xfb;" horiz-adv-x="460" 
d="M113 548q-12 0 -15 6t5 14l93 102q6 7 21 7h25q13 0 19 -7l93 -102q7 -8 4.5 -14t-14.5 -6h-68q-11 0 -17 12l-25 39q-5 8 -10 0l-25 -39q-6 -12 -18 -12h-68zM206 -5q-74 0 -117 41.5t-43 122.5v306q0 15 15 15h70q15 0 15 -15v-280q0 -40 20.5 -66t62.5 -26
q49 0 67 24.5t18 67.5v280q0 15 15 15h70q15 0 15 -15v-450q0 -15 -15 -15h-60q-15 0 -15 15v13q0 5 -5 5q-3 0 -16 -9.5t-38 -19t-59 -9.5z" />
    <glyph glyph-name="udieresis" unicode="&#xfc;" horiz-adv-x="460" 
d="M140 548q-28 0 -46.5 18.5t-18.5 46.5q0 27 18.5 46t46.5 19q27 0 46 -19t19 -46q0 -28 -19 -46.5t-46 -18.5zM320 548q-28 0 -46.5 18.5t-18.5 46.5q0 27 18.5 46t46.5 19q27 0 46 -19t19 -46q0 -28 -19 -46.5t-46 -18.5zM206 -5q-74 0 -117 41.5t-43 122.5v306
q0 15 15 15h70q15 0 15 -15v-280q0 -40 20.5 -66t62.5 -26q49 0 67 24.5t18 67.5v280q0 15 15 15h70q15 0 15 -15v-450q0 -15 -15 -15h-60q-15 0 -15 15v13q0 5 -5 5q-3 0 -16 -9.5t-38 -19t-59 -9.5z" />
    <glyph glyph-name="yacute" unicode="&#xfd;" horiz-adv-x="433" 
d="M200 548q-24 0 -19 21l30 107q4 13 7.5 17t15.5 4h62q8 0 12 -5.5t0 -14.5l-48 -108q-9 -21 -29 -21h-31zM108 -250q-11 0 -15.5 0.5t-9 4.5t0.5 13l78 240q2 8 0 16l-136 439q-3 11 3 14t19 3h49q10 0 14.5 -0.5t8.5 -4t6 -10.5l85 -281q1 -4 5 -4t5 4l86 281
q2 7 6 10.5t8 4t14 0.5h50q9 0 13 -0.5t7.5 -4.5t1.5 -12l-218 -695q-4 -11 -9 -14.5t-19 -3.5h-53z" />
    <glyph glyph-name="thorn" unicode="&#xfe;" horiz-adv-x="462" 
d="M75 -250q-15 0 -15 15v970q0 15 15 15h70q15 0 15 -15v-283q0 -5 5 -5q3 0 14.5 9.5t35.5 19t58 9.5q73 0 114 -41t41 -123v-162q0 -82 -41 -123t-114 -41q-34 0 -58 9.5t-35.5 19t-14.5 9.5q-5 0 -5 -5v-263q0 -15 -15 -15h-70zM245 93q42 0 62.5 26t20.5 66v110
q0 40 -20.5 66t-62.5 26q-49 0 -67 -24.5t-18 -67.5v-110q0 -43 18 -67.5t67 -24.5z" />
    <glyph glyph-name="ydieresis" unicode="&#xff;" horiz-adv-x="433" 
d="M127 548q-28 0 -46.5 18.5t-18.5 46.5q0 27 18.5 46t46.5 19q27 0 46 -19t19 -46q0 -28 -19 -46.5t-46 -18.5zM307 548q-28 0 -46.5 18.5t-18.5 46.5q0 27 18.5 46t46.5 19q27 0 46 -19t19 -46q0 -28 -19 -46.5t-46 -18.5zM108 -250q-11 0 -15.5 0.5t-9 4.5t0.5 13
l78 240q2 8 0 16l-136 439q-3 11 3 14t19 3h49q10 0 14.5 -0.5t8.5 -4t6 -10.5l85 -281q1 -4 5 -4t5 4l86 281q2 7 6 10.5t8 4t14 0.5h50q9 0 13 -0.5t7.5 -4.5t1.5 -12l-218 -695q-4 -11 -9 -14.5t-19 -3.5h-53z" />
    <glyph glyph-name="Amacron" unicode="&#x100;" horiz-adv-x="482" 
d="M129 801q-26 0 -26 20v44q0 20 26 20h224q15 0 20.5 -4.5t5.5 -15.5v-44q0 -11 -5.5 -15.5t-20.5 -4.5h-224zM43 0q-21 0 -17 17l164 715q2 11 6 14.5t13 3.5h64q9 0 13 -3.5t6 -14.5l164 -715q4 -17 -17 -17h-65q-16 0 -20 15l-17 69q-3 15 -19 15h-154q-16 0 -19 -15
l-17 -69q-4 -15 -20 -15h-65zM175 193h132q12 0 9 12l-70 301q-1 4 -5 4t-5 -4l-70 -301q-3 -12 9 -12z" />
    <glyph glyph-name="amacron" unicode="&#x101;" horiz-adv-x="448" 
d="M124 561q-26 0 -26 20v44q0 20 26 20h224q15 0 20.5 -4.5t5.5 -15.5v-44q0 -11 -5.5 -15.5t-20.5 -4.5h-224zM199 -5q-75 0 -120 41.5t-45 122.5v162q0 81 45 122.5t120 41.5q34 0 58 -9.5t35.5 -19t14.5 -9.5q5 0 5 5v13q0 15 15 15h60q15 0 15 -15v-450q0 -15 -15 -15
h-60q-15 0 -15 15v13q0 5 -5 5q-3 0 -14.5 -9.5t-35.5 -19t-58 -9.5zM217 93q49 0 67 24.5t18 67.5v110q0 43 -18 67.5t-67 24.5q-42 0 -62.5 -26t-20.5 -66v-110q0 -40 20.5 -66t62.5 -26z" />
    <glyph glyph-name="Abreve" unicode="&#x102;" horiz-adv-x="482" 
d="M132 879q0 18 12 18h48q14 0 14 -15q0 -36 38 -36q36 0 36 36q0 15 13 15h47q13 0 13 -18q0 -43 -30 -66.5t-82 -23.5q-51 0 -80 23t-29 67zM43 0q-21 0 -17 17l164 715q2 11 6 14.5t13 3.5h64q9 0 13 -3.5t6 -14.5l164 -715q4 -17 -17 -17h-65q-16 0 -20 15l-17 69
q-3 15 -19 15h-154q-16 0 -19 -15l-17 -69q-4 -15 -20 -15h-65zM175 193h132q12 0 9 12l-70 301q-1 4 -5 4t-5 -4l-70 -301q-3 -12 9 -12z" />
    <glyph glyph-name="abreve" unicode="&#x103;" horiz-adv-x="448" 
d="M93 662q0 15 17 15h38q19 0 19 -15q0 -23 18.5 -36t43.5 -13t43 13t18 36q0 15 18 15h37q18 0 18 -15q0 -54 -40.5 -84t-95.5 -30q-54 0 -94 30t-40 84zM199 -5q-75 0 -120 41.5t-45 122.5v162q0 81 45 122.5t120 41.5q34 0 58 -9.5t35.5 -19t14.5 -9.5q5 0 5 5v13
q0 15 15 15h60q15 0 15 -15v-450q0 -15 -15 -15h-60q-15 0 -15 15v13q0 5 -5 5q-3 0 -14.5 -9.5t-35.5 -19t-58 -9.5zM217 93q49 0 67 24.5t18 67.5v110q0 43 -18 67.5t-67 24.5q-42 0 -62.5 -26t-20.5 -66v-110q0 -40 20.5 -66t62.5 -26z" />
    <glyph glyph-name="Aogonek" unicode="&#x104;" horiz-adv-x="482" 
d="M442 -145q-146 -16 -146 77q0 48 45 79q13 9 11 17l-14 56q-2 15 -20 15h-154q-16 0 -19 -15l-17 -69q-4 -15 -20 -15h-65q-21 0 -17 17l164 715q3 11 8 14.5t19 3.5h49q14 0 19 -3.5t7 -14.5l165 -717q2 -11 -15 -15q-41 -9 -47 -23q-2 -4 -2 -9q0 -27 49 -27
q15 0 15 -15v-56q0 -13 -15 -15zM175 193h133q12 0 9 11l-71 302q-1 4 -5 4t-5 -4l-70 -302q-3 -11 9 -11z" />
    <glyph glyph-name="aogonek" unicode="&#x105;" horiz-adv-x="448" 
d="M387 -145q-67 -6 -104 14t-37 62q0 48 55 80q11 6 11 14v8q0 5 -5 5q-3 0 -14.5 -9.5t-35.5 -19t-58 -9.5q-75 0 -120 41.5t-45 122.5v149q0 81 45 122.5t120 41.5q34 0 58 -9.5t35.5 -19t14.5 -9.5q5 0 5 5v21q0 15 15 15h60q15 0 15 -15v-450q0 -12 -15 -15
q-2 0 -7 -1.5t-7.5 -2.5t-7 -2.5t-7 -3t-6 -4t-5 -5t-3 -6.5t-1.5 -8q0 -26 44 -26q15 0 15 -15v-56q0 -13 -15 -15zM217 98q49 0 67 24.5t18 67.5v97q0 43 -18 67.5t-67 24.5q-42 0 -62.5 -26t-20.5 -66v-97q0 -40 20.5 -66t62.5 -26z" />
    <glyph glyph-name="Cacute" unicode="&#x106;" horiz-adv-x="511" 
d="M246 788q-7 0 -11 4t-2 10l30 80q5 15 19 15h67q8 0 11.5 -6.5t-2.5 -15.5l-51 -66q-16 -21 -29 -21h-32zM55 184v382q0 87 58 138t150 51t150 -51t58 -138v-52q0 -15 -15 -15h-76q-15 0 -15 15v28q0 56 -28 84.5t-74 28.5q-47 0 -74.5 -28.5t-27.5 -84.5v-334
q0 -56 27.5 -84.5t74.5 -28.5q46 0 74 28.5t28 84.5v28q0 15 15 15h76q15 0 15 -15v-52q0 -87 -58 -138t-150 -51t-150 51t-58 138z" />
    <glyph glyph-name="cacute" unicode="&#x107;" horiz-adv-x="422" 
d="M202 548q-24 0 -19 21l30 107q4 13 7.5 17t15.5 4h62q8 0 12 -5.5t0 -14.5l-48 -108q-9 -21 -29 -21h-31zM34 178v124q0 85 48.5 134t135.5 49q83 0 133.5 -46.5t50.5 -107.5v-27q0 -15 -15 -15h-70q-15 0 -15 15q0 83 -84 83t-84 -102v-90q0 -102 84 -102t84 83
q0 15 15 15h70q15 0 15 -15v-27q0 -61 -50.5 -107.5t-133.5 -46.5q-87 0 -135.5 49t-48.5 134z" />
    <glyph glyph-name="Ccircumflex" unicode="&#x108;" horiz-adv-x="511" 
d="M147 788q-12 0 -15.5 6t4.5 14l86 82q6 7 21 7h41q13 0 20 -7l84 -82q7 -7 4.5 -13.5t-14.5 -6.5h-68q-10 0 -17 12l-25 39q-5 8 -10 0l-25 -39q-7 -12 -18 -12h-68zM55 184v382q0 87 58 138t150 51t150 -51t58 -138v-52q0 -15 -15 -15h-76q-15 0 -15 15v28
q0 56 -28 84.5t-74 28.5q-47 0 -74.5 -28.5t-27.5 -84.5v-334q0 -56 27.5 -84.5t74.5 -28.5q46 0 74 28.5t28 84.5v28q0 15 15 15h76q15 0 15 -15v-52q0 -87 -58 -138t-150 -51t-150 51t-58 138z" />
    <glyph glyph-name="ccircumflex" unicode="&#x109;" horiz-adv-x="422" 
d="M102 548q-12 0 -15 6t5 14l93 102q6 7 21 7h25q13 0 19 -7l93 -102q7 -8 4.5 -14t-14.5 -6h-68q-11 0 -17 12l-25 39q-5 8 -10 0l-25 -39q-6 -12 -18 -12h-68zM34 178v124q0 85 48.5 134t135.5 49q83 0 133.5 -46.5t50.5 -107.5v-27q0 -15 -15 -15h-70q-15 0 -15 15
q0 83 -84 83t-84 -102v-90q0 -102 84 -102t84 83q0 15 15 15h70q15 0 15 -15v-27q0 -61 -50.5 -107.5t-133.5 -46.5q-87 0 -135.5 49t-48.5 134z" />
    <glyph glyph-name="Cdotaccent" unicode="&#x10a;" horiz-adv-x="511" 
d="M263 788q-28 0 -46.5 18.5t-18.5 46.5q0 27 18.5 46t46.5 19q27 0 46 -19t19 -46q0 -28 -19 -46.5t-46 -18.5zM55 184v382q0 87 58 138t150 51t150 -51t58 -138v-52q0 -15 -15 -15h-76q-15 0 -15 15v28q0 56 -28 84.5t-74 28.5q-47 0 -74.5 -28.5t-27.5 -84.5v-334
q0 -56 27.5 -84.5t74.5 -28.5q46 0 74 28.5t28 84.5v28q0 15 15 15h76q15 0 15 -15v-52q0 -87 -58 -138t-150 -51t-150 51t-58 138z" />
    <glyph glyph-name="cdotaccent" unicode="&#x10b;" horiz-adv-x="422" 
d="M218 548q-28 0 -46.5 18.5t-18.5 46.5q0 27 18.5 46t46.5 19q27 0 46 -19t19 -46q0 -28 -19 -46.5t-46 -18.5zM34 178v124q0 85 48.5 134t135.5 49q83 0 133.5 -46.5t50.5 -107.5v-27q0 -15 -15 -15h-70q-15 0 -15 15q0 83 -84 83t-84 -102v-90q0 -102 84 -102t84 83
q0 15 15 15h70q15 0 15 -15v-27q0 -61 -50.5 -107.5t-133.5 -46.5q-87 0 -135.5 49t-48.5 134z" />
    <glyph glyph-name="Ccaron" unicode="&#x10c;" horiz-adv-x="511" 
d="M147 897h68q11 0 18 -12l25 -39q5 -8 10 0l25 39q7 12 17 12h68q12 0 14.5 -6.5t-4.5 -13.5l-84 -82q-7 -7 -20 -7h-41q-15 0 -21 7l-86 82q-8 7 -4.5 13.5t15.5 6.5zM55 184v382q0 87 58 138t150 51t150 -51t58 -138v-52q0 -15 -15 -15h-76q-15 0 -15 15v28
q0 56 -28 84.5t-74 28.5q-47 0 -74.5 -28.5t-27.5 -84.5v-334q0 -56 27.5 -84.5t74.5 -28.5q46 0 74 28.5t28 84.5v28q0 15 15 15h76q15 0 15 -15v-52q0 -87 -58 -138t-150 -51t-150 51t-58 138z" />
    <glyph glyph-name="ccaron" unicode="&#x10d;" horiz-adv-x="422" 
d="M206 548q-15 0 -21 7l-93 102q-7 7 -4.5 13.5t14.5 6.5h68q12 0 18 -12l25 -39q5 -9 11 0l24 39q8 12 18 12h67q12 0 15 -6.5t-4 -13.5l-93 -102q-6 -7 -20 -7h-25zM34 178v124q0 85 48.5 134t135.5 49q83 0 133.5 -46.5t50.5 -107.5v-27q0 -15 -15 -15h-70q-15 0 -15 15
q0 83 -84 83t-84 -102v-90q0 -102 84 -102t84 83q0 15 15 15h70q15 0 15 -15v-27q0 -61 -50.5 -107.5t-133.5 -46.5q-87 0 -135.5 49t-48.5 134z" />
    <glyph glyph-name="Dcaron" unicode="&#x10e;" horiz-adv-x="540" 
d="M146 897h68q10 0 18 -12l25 -39q5 -8 10 0l25 39q8 12 17 12h68q12 0 14.5 -6.5t-4.5 -13.5l-84 -82q-7 -7 -20 -7h-41q-15 0 -21 7l-86 82q-8 7 -4.5 13.5t15.5 6.5zM71 15v720q0 15 15 15h191q92 0 150 -51t58 -138v-372q0 -87 -58 -138t-150 -51h-191q-15 0 -15 15z
M176 109q3 -9 14 -9h87q47 0 74.5 28.5t27.5 84.5v324q0 56 -27.5 84.5t-74.5 28.5h-87q-11 0 -14 -9v-532z" />
    <glyph glyph-name="dcaron" unicode="&#x10f;" horiz-adv-x="583" 
d="M513 628q-9 0 -13 5.5t-6 21.5l-20 121q-5 27 23 27h52q28 0 23 -27l-20 -121q-2 -16 -6 -21.5t-13 -5.5h-20zM402 15q0 -15 -15 -15h-60q-15 0 -15 15v13q0 5 -5 5q-3 0 -14.5 -9.5t-35.5 -19t-58 -9.5q-75 0 -120 41.5t-45 122.5v162q0 81 45 122.5t119 41.5
q31 0 53 -9.5t32.5 -19t13.5 -9.5q5 0 5 5v283q0 15 15 15h70q15 0 15 -15v-720zM302 185v110q0 43 -18 67.5t-67 24.5q-42 0 -62.5 -26t-20.5 -66v-110q0 -40 20.5 -66t62.5 -26q49 0 67 24.5t18 67.5z" />
    <glyph glyph-name="Dcroat" unicode="&#x110;" horiz-adv-x="540" 
d="M86 0q-15 0 -15 15v385q0 15 -15 15h-18q-11 0 -15.5 4.5t-4.5 15.5v54q0 11 4.5 15.5t15.5 4.5h18q15 0 15 15v211q0 15 15 15h191q92 0 150 -51t58 -138v-372q0 -87 -58 -138t-150 -51h-191zM190 100h87q47 0 74.5 28.5t27.5 84.5v324q0 56 -27.5 84.5t-74.5 28.5h-87
q-11 0 -14 -9v-117q0 -15 15 -15h48q20 0 20 -20v-54q0 -11 -4.5 -15.5t-15.5 -4.5h-48q-15 0 -15 -15v-291q3 -9 14 -9z" />
    <glyph glyph-name="dcroat" unicode="&#x111;" horiz-adv-x="483" 
d="M34 159v149q0 81 45 122.5t119 41.5q31 0 53 -9.5t32.5 -19t13.5 -9.5q5 0 5 5v94q0 15 -15 15h-116q-15 0 -15 15v60q0 15 15 15h116q15 0 15 16v81q0 15 15 15h70q15 0 15 -15v-81q0 -16 15 -16h31q15 0 15 -15v-60q0 -15 -15 -15h-31q-15 0 -15 -15v-518
q0 -15 -15 -15h-60q-15 0 -15 15v13q0 5 -5 5q-3 0 -14.5 -9.5t-35.5 -19t-58 -9.5q-75 0 -120 41.5t-45 122.5zM134 185q0 -40 20.5 -66t62.5 -26q49 0 67 24.5t18 67.5v97q0 43 -18 67.5t-67 24.5q-42 0 -62.5 -26t-20.5 -66v-97z" />
    <glyph glyph-name="Emacron" unicode="&#x112;" horiz-adv-x="420" 
d="M122 801q-26 0 -26 20v44q0 20 26 20h224q15 0 20.5 -4.5t5.5 -15.5v-44q0 -11 -5.5 -15.5t-20.5 -4.5h-224zM69 15v720q0 15 15 15h281q15 0 15 -15v-64q0 -15 -15 -15h-176q-15 0 -15 -15v-200q0 -15 15 -15h176q15 0 15 -15v-64q0 -15 -15 -15h-176q-15 0 -15 -15
v-208q0 -15 15 -15h176q15 0 15 -15v-64q0 -15 -15 -15h-281q-15 0 -15 15z" />
    <glyph glyph-name="emacron" unicode="&#x113;" horiz-adv-x="436" 
d="M106 561q-26 0 -26 20v44q0 20 26 20h224q15 0 20.5 -4.5t5.5 -15.5v-44q0 -11 -5.5 -15.5t-20.5 -4.5h-224zM218 -5q-84 0 -134 48t-50 116v162q0 68 50 116t134 48t134 -48t50 -116v-90q0 -15 -15 -15h-238q-15 0 -15 -15v-15q0 -45 22 -71.5t62 -26.5q41 0 62.5 20
t21.5 54q0 15 15 15h70q15 0 15 -15v-13q0 -61 -50.5 -107.5t-133.5 -46.5zM149 294h137q15 0 15 15v10q0 31 -23 52t-60 21q-38 0 -61 -21t-23 -52v-10q0 -15 15 -15z" />
    <glyph glyph-name="Ebreve" unicode="&#x114;" horiz-adv-x="420" 
d="M125 879q0 18 12 18h48q14 0 14 -15q0 -36 38 -36q36 0 36 36q0 15 13 15h47q13 0 13 -18q0 -43 -30 -66.5t-82 -23.5q-51 0 -80 23t-29 67zM69 15v720q0 15 15 15h281q15 0 15 -15v-64q0 -15 -15 -15h-176q-15 0 -15 -15v-200q0 -15 15 -15h176q15 0 15 -15v-64
q0 -15 -15 -15h-176q-15 0 -15 -15v-208q0 -15 15 -15h176q15 0 15 -15v-64q0 -15 -15 -15h-281q-15 0 -15 15z" />
    <glyph glyph-name="ebreve" unicode="&#x115;" horiz-adv-x="436" 
d="M83 662q0 15 17 15h38q19 0 19 -15q0 -23 18.5 -36t43.5 -13t43 13t18 36q0 15 18 15h37q18 0 18 -15q0 -54 -40.5 -84t-95.5 -30q-54 0 -94 30t-40 84zM218 -5q-84 0 -134 48t-50 116v162q0 68 50 116t134 48t134 -48t50 -116v-90q0 -15 -15 -15h-238q-15 0 -15 -15v-15
q0 -45 22 -71.5t62 -26.5q41 0 62.5 20t21.5 54q0 15 15 15h70q15 0 15 -15v-13q0 -61 -50.5 -107.5t-133.5 -46.5zM149 294h137q15 0 15 15v10q0 31 -23 52t-60 21q-38 0 -61 -21t-23 -52v-10q0 -15 15 -15z" />
    <glyph glyph-name="Edotaccent" unicode="&#x116;" horiz-adv-x="420" 
d="M234 788q-28 0 -46.5 18.5t-18.5 46.5q0 27 18.5 46t46.5 19q27 0 46 -19t19 -46q0 -28 -19 -46.5t-46 -18.5zM69 15v720q0 15 15 15h281q15 0 15 -15v-64q0 -15 -15 -15h-176q-15 0 -15 -15v-200q0 -15 15 -15h176q15 0 15 -15v-64q0 -15 -15 -15h-176q-15 0 -15 -15
v-208q0 -15 15 -15h176q15 0 15 -15v-64q0 -15 -15 -15h-281q-15 0 -15 15z" />
    <glyph glyph-name="edotaccent" unicode="&#x117;" horiz-adv-x="436" 
d="M218 548q-28 0 -46.5 18.5t-18.5 46.5q0 27 18.5 46t46.5 19q27 0 46 -19t19 -46q0 -28 -19 -46.5t-46 -18.5zM218 -5q-84 0 -134 48t-50 116v162q0 68 50 116t134 48t134 -48t50 -116v-90q0 -15 -15 -15h-238q-15 0 -15 -15v-15q0 -45 22 -71.5t62 -26.5q41 0 62.5 20
t21.5 54q0 15 15 15h70q15 0 15 -15v-13q0 -61 -50.5 -107.5t-133.5 -46.5zM149 294h137q15 0 15 15v10q0 31 -23 52t-60 21q-38 0 -61 -21t-23 -52v-10q0 -15 15 -15z" />
    <glyph glyph-name="Eogonek" unicode="&#x118;" horiz-adv-x="420" 
d="M345 -145q-146 -16 -146 77q0 37 35 60q4 3 3 5.5t-6 2.5h-147q-15 0 -15 15v720q0 15 15 15h281q15 0 15 -15v-64q0 -15 -15 -15h-176q-15 0 -15 -15v-200q0 -15 15 -15h176q15 0 15 -15v-64q0 -15 -15 -15h-176q-15 0 -15 -15v-208q0 -15 15 -15h176q15 0 15 -15v-64
q0 -13 -14 -15q-17 -2 -24 -3.5t-20.5 -5t-19.5 -9.5t-6 -14q0 -27 49 -27q15 0 15 -15v-56q0 -13 -15 -15z" />
    <glyph glyph-name="eogonek" unicode="&#x119;" horiz-adv-x="436" 
d="M290 -145q-12 -4 -35.5 -2t-47 7t-41 24.5t-17.5 48.5q0 32 22 56q6 8 -2 10q-135 38 -135 170v152q0 68 50 116t134 48t134 -48t50 -116v-90q0 -15 -15 -15h-238q-15 0 -15 -15v-15q0 -45 22 -71.5t65 -26.5q34 0 57 22.5t24 51.5q0 15 15 15h70q15 0 15 -15v-13
q0 -56 -35 -95t-98 -54q-33 -8 -33 -30q0 -8 4 -14t11.5 -8.5t12.5 -3.5t15 -2t11 -1q15 -2 15 -15v-56q0 -12 -15 -15zM149 294h137q15 0 15 15v10q0 31 -23 52t-60 21q-38 0 -61 -21t-23 -52v-10q0 -15 15 -15z" />
    <glyph glyph-name="Ecaron" unicode="&#x11a;" horiz-adv-x="420" 
d="M118 897h68q10 0 18 -12l25 -39q5 -8 10 0l25 39q8 12 17 12h68q12 0 14.5 -6.5t-4.5 -13.5l-84 -82q-7 -7 -20 -7h-41q-15 0 -21 7l-86 82q-8 7 -4.5 13.5t15.5 6.5zM69 15v720q0 15 15 15h281q15 0 15 -15v-64q0 -15 -15 -15h-176q-15 0 -15 -15v-200q0 -15 15 -15h176
q15 0 15 -15v-64q0 -15 -15 -15h-176q-15 0 -15 -15v-208q0 -15 15 -15h176q15 0 15 -15v-64q0 -15 -15 -15h-281q-15 0 -15 15z" />
    <glyph glyph-name="ecaron" unicode="&#x11b;" horiz-adv-x="436" 
d="M206 548q-15 0 -21 7l-93 102q-7 7 -4.5 13.5t14.5 6.5h68q12 0 18 -12l25 -39q5 -9 11 0l24 39q8 12 18 12h67q12 0 15 -6.5t-4 -13.5l-93 -102q-6 -7 -20 -7h-25zM218 -5q-84 0 -134 48t-50 116v162q0 68 50 116t134 48t134 -48t50 -116v-90q0 -15 -15 -15h-238
q-15 0 -15 -15v-15q0 -45 22 -71.5t62 -26.5q41 0 62.5 20t21.5 54q0 15 15 15h70q15 0 15 -15v-13q0 -61 -50.5 -107.5t-133.5 -46.5zM149 294h137q15 0 15 15v10q0 31 -23 52t-60 21q-38 0 -61 -21t-23 -52v-10q0 -15 15 -15z" />
    <glyph glyph-name="Gcircumflex" unicode="&#x11c;" horiz-adv-x="489" 
d="M147 788q-12 0 -15.5 6t4.5 14l86 82q6 7 21 7h41q13 0 20 -7l84 -82q7 -7 4.5 -13.5t-14.5 -6.5h-68q-10 0 -17 12l-25 39q-5 8 -10 0l-25 -39q-7 -12 -18 -12h-68zM55 184v382q0 87 58 138t150 51t149 -51t57 -138v-52q0 -15 -15 -15h-74q-15 0 -15 15v28
q0 56 -28 84.5t-74 28.5q-47 0 -74.5 -28.5t-27.5 -84.5v-334q0 -56 27.5 -84.5t74.5 -28.5q46 0 74 28.5t28 84.5v63q0 15 -15 15h-72q-15 0 -15 15v70q0 15 15 15h176q15 0 15 -15v-187q0 -87 -57 -138t-149 -51t-150 51t-58 138z" />
    <glyph glyph-name="gcircumflex" unicode="&#x11d;" horiz-adv-x="448" 
d="M107 548q-12 0 -15 6t5 14l93 102q6 7 21 7h25q13 0 19 -7l93 -102q7 -8 4.5 -14t-14.5 -6h-68q-11 0 -17 12l-25 39q-5 8 -10 0l-25 -39q-6 -12 -18 -12h-68zM218 -250q-83 0 -133.5 46.5t-50.5 107.5v22q0 15 15 15h70q15 0 15 -15q0 -29 23 -53.5t61 -24.5
q41 0 62.5 24.5t21.5 68.5v87q0 5 -5 5q-3 0 -15 -9.5t-36 -19t-58 -9.5q-73 0 -113.5 41t-40.5 123v162q0 81 45 122.5t120 41.5q34 0 58 -9.5t35.5 -19t14.5 -9.5q5 0 5 5v13q0 15 15 15h60q15 0 15 -15v-551q0 -74 -49 -119t-135 -45zM217 93q49 0 67 24.5t18 67.5v110
q0 43 -18 67.5t-67 24.5q-42 0 -62.5 -26t-20.5 -66v-110q0 -40 20.5 -66t62.5 -26z" />
    <glyph glyph-name="Gbreve" unicode="&#x11e;" horiz-adv-x="489" 
d="M154 879q0 18 12 18h48q14 0 14 -15q0 -36 38 -36q36 0 36 36q0 15 13 15h47q13 0 13 -18q0 -43 -30 -66.5t-82 -23.5q-51 0 -80 23t-29 67zM55 184v382q0 87 58 138t150 51t149 -51t57 -138v-52q0 -15 -15 -15h-74q-15 0 -15 15v28q0 56 -28 84.5t-74 28.5
q-47 0 -74.5 -28.5t-27.5 -84.5v-334q0 -56 27.5 -84.5t74.5 -28.5q46 0 74 28.5t28 84.5v63q0 15 -15 15h-72q-15 0 -15 15v70q0 15 15 15h176q15 0 15 -15v-187q0 -87 -57 -138t-149 -51t-150 51t-58 138z" />
    <glyph glyph-name="gbreve" unicode="&#x11f;" horiz-adv-x="448" 
d="M88 662q0 15 17 15h38q19 0 19 -15q0 -23 18.5 -36t43.5 -13t43 13t18 36q0 15 18 15h37q18 0 18 -15q0 -54 -40.5 -84t-95.5 -30q-54 0 -94 30t-40 84zM218 -250q-83 0 -133.5 46.5t-50.5 107.5v22q0 15 15 15h70q15 0 15 -15q0 -29 23 -53.5t61 -24.5q41 0 62.5 24.5
t21.5 68.5v87q0 5 -5 5q-3 0 -15 -9.5t-36 -19t-58 -9.5q-73 0 -113.5 41t-40.5 123v162q0 81 45 122.5t120 41.5q34 0 58 -9.5t35.5 -19t14.5 -9.5q5 0 5 5v13q0 15 15 15h60q15 0 15 -15v-551q0 -74 -49 -119t-135 -45zM217 93q49 0 67 24.5t18 67.5v110q0 43 -18 67.5
t-67 24.5q-42 0 -62.5 -26t-20.5 -66v-110q0 -40 20.5 -66t62.5 -26z" />
    <glyph glyph-name="Gdotaccent" unicode="&#x120;" horiz-adv-x="489" 
d="M263 788q-28 0 -46.5 18.5t-18.5 46.5q0 27 18.5 46t46.5 19q27 0 46 -19t19 -46q0 -28 -19 -46.5t-46 -18.5zM55 184v382q0 87 58 138t150 51t149 -51t57 -138v-52q0 -15 -15 -15h-74q-15 0 -15 15v28q0 56 -28 84.5t-74 28.5q-47 0 -74.5 -28.5t-27.5 -84.5v-334
q0 -56 27.5 -84.5t74.5 -28.5q46 0 74 28.5t28 84.5v63q0 15 -15 15h-72q-15 0 -15 15v70q0 15 15 15h176q15 0 15 -15v-187q0 -87 -57 -138t-149 -51t-150 51t-58 138z" />
    <glyph glyph-name="gdotaccent" unicode="&#x121;" horiz-adv-x="448" 
d="M223 548q-28 0 -46.5 18.5t-18.5 46.5q0 27 18.5 46t46.5 19q27 0 46 -19t19 -46q0 -28 -19 -46.5t-46 -18.5zM218 -250q-83 0 -133.5 46.5t-50.5 107.5v22q0 15 15 15h70q15 0 15 -15q0 -29 23 -53.5t61 -24.5q41 0 62.5 24.5t21.5 68.5v87q0 5 -5 5q-3 0 -15 -9.5
t-36 -19t-58 -9.5q-73 0 -113.5 41t-40.5 123v162q0 81 45 122.5t120 41.5q34 0 58 -9.5t35.5 -19t14.5 -9.5q5 0 5 5v13q0 15 15 15h60q15 0 15 -15v-551q0 -74 -49 -119t-135 -45zM217 93q49 0 67 24.5t18 67.5v110q0 43 -18 67.5t-67 24.5q-42 0 -62.5 -26t-20.5 -66
v-110q0 -40 20.5 -66t62.5 -26z" />
    <glyph glyph-name="Gcommaaccent" unicode="&#x122;" horiz-adv-x="489" 
d="M55 184v382q0 87 58 138t150 51t149 -51t57 -138v-52q0 -15 -15 -15h-74q-15 0 -15 15v28q0 56 -28 84.5t-74 28.5q-47 0 -74.5 -28.5t-27.5 -84.5v-334q0 -56 27.5 -84.5t74.5 -28.5q46 0 74 28.5t28 84.5v63q0 15 -15 15h-72q-15 0 -15 15v70q0 15 15 15h176
q15 0 15 -15v-187q0 -87 -57 -138t-149 -51t-150 51t-58 138zM237 -281l-22 16q-10 8 -4 15q37 45 37 76q0 18 -25 40.5t-25 48.5q0 28 17.5 45t47.5 17q32 0 51 -25.5t19 -64.5q0 -42 -21.5 -88t-59.5 -77q-8 -7 -15 -3z" />
    <glyph glyph-name="gcommaaccent" unicode="&#x123;" horiz-adv-x="448" 
d="M249 761l22 -16q10 -8 4 -15q-37 -45 -37 -76q0 -18 25 -40.5t25 -48.5q0 -28 -17.5 -45t-47.5 -17q-32 0 -51 25.5t-19 64.5q0 42 21.5 88t59.5 77q8 7 15 3zM218 -250q-83 0 -133.5 46.5t-50.5 107.5v22q0 15 15 15h70q15 0 15 -15q0 -29 23 -53.5t61 -24.5
q41 0 62.5 24.5t21.5 68.5v87q0 5 -5 5q-3 0 -15 -9.5t-36 -19t-58 -9.5q-73 0 -113.5 41t-40.5 123v162q0 81 45 122.5t120 41.5q34 0 58 -9.5t35.5 -19t14.5 -9.5q5 0 5 5v13q0 15 15 15h60q15 0 15 -15v-551q0 -74 -49 -119t-135 -45zM217 93q49 0 67 24.5t18 67.5v110
q0 43 -18 67.5t-67 24.5q-42 0 -62.5 -26t-20.5 -66v-110q0 -40 20.5 -66t62.5 -26z" />
    <glyph glyph-name="Hcircumflex" unicode="&#x124;" horiz-adv-x="568" 
d="M168 788q-12 0 -15.5 6t4.5 14l86 82q6 7 21 7h41q13 0 20 -7l84 -82q7 -7 4.5 -13.5t-14.5 -6.5h-68q-9 0 -17 12l-25 39q-5 8 -10 0l-25 -39q-8 -12 -18 -12h-68zM85 0q-15 0 -15 15v720q0 15 15 15h75q15 0 15 -15v-291q0 -15 15 -15h188q15 0 15 15v291q0 15 15 15
h75q15 0 15 -15v-720q0 -15 -15 -15h-75q-15 0 -15 15v299q0 15 -15 15h-188q-15 0 -15 -15v-299q0 -15 -15 -15h-75z" />
    <glyph glyph-name="hcircumflex" unicode="&#x125;" horiz-adv-x="474" 
d="M-6 818q-12 0 -15 6t5 14l93 102q6 7 21 7h25q13 0 19 -7l93 -102q7 -8 4.5 -14t-14.5 -6h-68q-11 0 -17 12l-25 39q-5 8 -10 0l-25 -39q-6 -12 -18 -12h-68zM60 15v720q0 15 15 15h70q15 0 15 -15v-283q0 -5 5 -5q3 0 14.5 9.5t35.5 19t58 9.5q73 0 114 -41t41 -123
v-306q0 -15 -15 -15h-70q-15 0 -15 15v280q0 40 -20.5 66t-62.5 26q-49 0 -67 -24.5t-18 -67.5v-280q0 -15 -15 -15h-70q-15 0 -15 15z" />
    <glyph glyph-name="Hbar" unicode="&#x126;" horiz-adv-x="568" 
d="M85 0q-15 0 -15 15v525q0 15 -15 15h-16q-15 0 -15 15v64q0 15 15 15h16q15 0 15 16v70q0 15 15 15h75q15 0 15 -15v-70q0 -16 15 -16h188q15 0 15 16v70q0 15 15 15h75q15 0 15 -15v-70q0 -16 15 -16h16q15 0 15 -15v-64q0 -15 -15 -15h-16q-15 0 -15 -15v-525
q0 -15 -15 -15h-75q-15 0 -15 15v299q0 15 -15 15h-188q-15 0 -15 -15v-299q0 -15 -15 -15h-75zM190 429h188q15 0 15 15v96q0 15 -15 15h-188q-15 0 -15 -15v-96q0 -15 15 -15z" />
    <glyph glyph-name="hbar" unicode="&#x127;" horiz-adv-x="485" 
d="M10 563v60q0 15 15 15h31q15 0 15 16v81q0 15 15 15h70q15 0 15 -15v-81q0 -16 15 -16h116q15 0 15 -15v-60q0 -15 -15 -15h-116q-15 0 -15 -15v-86q0 -5 5 -5q3 0 14.5 9.5t35.5 19t58 9.5q73 0 114 -41t41 -123v-301q0 -15 -15 -15h-70q-15 0 -15 15v275q0 40 -20.5 66
t-62.5 26q-49 0 -67 -24.5t-18 -67.5v-275q0 -15 -15 -15h-70q-15 0 -15 15v518q0 15 -15 15h-31q-15 0 -15 15z" />
    <glyph glyph-name="Itilde" unicode="&#x128;" horiz-adv-x="245" 
d="M-30 784q-18 0 -18 12q0 55 28.5 84t73.5 29q41 0 80.5 -21.5t55.5 -21.5q18 0 28.5 9t10.5 22q0 12 19 12h36q19 0 19 -12q0 -54 -28.5 -83.5t-73.5 -29.5q-41 0 -81 22t-56 22q-17 0 -27.5 -9t-10.5 -23q0 -12 -20 -12h-36zM85 0q-15 0 -15 15v720q0 15 15 15h75
q15 0 15 -15v-720q0 -15 -15 -15h-75z" />
    <glyph glyph-name="itilde" unicode="&#x129;" horiz-adv-x="230" 
d="M-38 545q-14 0 -14 14q0 53 27 81.5t71 28.5q40 0 78 -24.5t54 -24.5q37 0 37 35q0 14 17 14h40q15 0 15 -14q0 -53 -27.5 -81.5t-71.5 -28.5q-39 0 -77.5 24.5t-54.5 24.5q-17 0 -27 -9.5t-10 -25.5q0 -14 -16 -14h-41zM80 0q-15 0 -15 15v450q0 15 15 15h70
q15 0 15 -15v-450q0 -15 -15 -15h-70z" />
    <glyph glyph-name="Imacron" unicode="&#x12a;" horiz-adv-x="245" 
d="M10 801q-26 0 -26 20v44q0 20 26 20h224q15 0 20.5 -4.5t5.5 -15.5v-44q0 -11 -5.5 -15.5t-20.5 -4.5h-224zM85 0q-15 0 -15 15v720q0 15 15 15h75q15 0 15 -15v-720q0 -15 -15 -15h-75z" />
    <glyph glyph-name="imacron" unicode="&#x12b;" horiz-adv-x="230" 
d="M3 561q-26 0 -26 20v44q0 20 26 20h224q15 0 20.5 -4.5t5.5 -15.5v-44q0 -11 -5.5 -15.5t-20.5 -4.5h-224zM80 0q-15 0 -15 15v450q0 15 15 15h70q15 0 15 -15v-450q0 -15 -15 -15h-70z" />
    <glyph glyph-name="Ibreve" unicode="&#x12c;" horiz-adv-x="245" 
d="M13 879q0 18 12 18h48q14 0 14 -15q0 -36 38 -36q36 0 36 36q0 15 13 15h47q13 0 13 -18q0 -43 -30 -66.5t-82 -23.5q-51 0 -80 23t-29 67zM85 0q-15 0 -15 15v720q0 15 15 15h75q15 0 15 -15v-720q0 -15 -15 -15h-75z" />
    <glyph glyph-name="ibreve" unicode="&#x12d;" horiz-adv-x="230" 
d="M-20 662q0 15 17 15h38q19 0 19 -15q0 -23 18.5 -36t43.5 -13t43 13t18 36q0 15 18 15h37q18 0 18 -15q0 -54 -40.5 -84t-95.5 -30q-54 0 -94 30t-40 84zM80 0q-15 0 -15 15v450q0 15 15 15h70q15 0 15 -15v-450q0 -15 -15 -15h-70z" />
    <glyph glyph-name="Iogonek" unicode="&#x12e;" horiz-adv-x="245" 
d="M160 -145q-146 -16 -146 77q0 48 45 79q11 8 11 14v710q0 15 15 15h75q15 0 15 -15v-720q0 -12 -15 -15q-41 -9 -47 -23q-2 -4 -2 -9q0 -27 49 -27q15 0 15 -15v-56q0 -13 -15 -15z" />
    <glyph glyph-name="iogonek" unicode="&#x12f;" horiz-adv-x="208" 
d="M104 542q-28 0 -46.5 18.5t-18.5 46.5q0 27 18.5 46t46.5 19q27 0 46 -19t19 -46q0 -28 -19 -46.5t-46 -18.5zM139 -145q-67 -8 -104 12t-37 65t45 79q11 8 11 14v440q0 15 15 15h70q15 0 15 -15v-450q0 -12 -15 -15q-14 -3 -20.5 -5t-15 -9t-8.5 -18q0 -27 44 -27
q15 0 15 -15v-56q0 -13 -15 -15z" />
    <glyph glyph-name="Idotaccent" unicode="&#x130;" horiz-adv-x="245" 
d="M122 788q-28 0 -46.5 18.5t-18.5 46.5q0 27 18.5 46t46.5 19q27 0 46 -19t19 -46q0 -28 -19 -46.5t-46 -18.5zM85 0q-15 0 -15 15v720q0 15 15 15h75q15 0 15 -15v-720q0 -15 -15 -15h-75z" />
    <glyph glyph-name="dotlessi" unicode="&#x131;" horiz-adv-x="230" 
d="M80 0q-15 0 -15 15v450q0 15 15 15h70q15 0 15 -15v-450q0 -15 -15 -15h-70z" />
    <glyph glyph-name="IJ" unicode="&#x132;" horiz-adv-x="567" 
d="M85 0q-15 0 -15 15v720q0 15 15 15h75q15 0 15 -15v-720q0 -15 -15 -15h-75zM270 15v72q0 16 20 16q47 0 74.5 28.5t27.5 84.5v519q0 15 15 15h75q15 0 15 -15v-546q0 -86 -58 -137.5t-149 -51.5q-20 0 -20 15z" />
    <glyph glyph-name="ij" unicode="&#x133;" horiz-adv-x="416" 
d="M104 542q-28 0 -46.5 18.5t-18.5 46.5q0 27 18.5 46t46.5 19q27 0 46 -19t19 -46q0 -28 -19 -46.5t-46 -18.5zM247 607q0 27 18.5 46t46.5 19q27 0 46 -19t19 -46q0 -28 -19 -46.5t-46 -18.5q-28 0 -46.5 18.5t-18.5 46.5zM69 0q-15 0 -15 15v450q0 15 15 15h70
q15 0 15 -15v-450q0 -15 -15 -15h-70zM158 -235v67q0 16 19 16q85 0 85 93v524q0 15 15 15h70q15 0 15 -15v-551q0 -77 -49 -120.5t-136 -43.5q-19 0 -19 15z" />
    <glyph glyph-name="Jcircumflex" unicode="&#x134;" horiz-adv-x="322" 
d="M84 788q-12 0 -15.5 6t4.5 14l86 82q6 7 21 7h41q13 0 20 -7l84 -82q7 -7 4.5 -13.5t-14.5 -6.5h-68q-9 0 -17 12l-25 39q-5 8 -10 0l-25 -39q-8 -12 -18 -12h-68zM25 15v72q0 16 20 16q47 0 74.5 28.5t27.5 84.5v519q0 15 15 15h75q15 0 15 -15v-546q0 -86 -58 -137.5
t-149 -51.5q-20 0 -20 15z" />
    <glyph glyph-name="jcircumflex" unicode="&#x135;" horiz-adv-x="219" 
d="M-16 548q-12 0 -15 6t5 14l93 102q6 7 21 7h25q13 0 19 -7l93 -102q7 -8 4.5 -14t-14.5 -6h-68q-11 0 -17 12l-25 39q-5 8 -10 0l-25 -39q-6 -12 -18 -12h-68zM-50 -235v67q0 16 19 16q85 0 85 93v524q0 15 15 15h70q15 0 15 -15v-551q0 -77 -49 -120.5t-136 -43.5
q-19 0 -19 15z" />
    <glyph glyph-name="Kcommaaccent" unicode="&#x136;" horiz-adv-x="518" 
d="M90 0q-20 0 -20 15v720q0 15 20 15h66q20 0 20 -15v-285q0 -7 6 -9.5t11 5.5l178 289q10 15 25 15h75q22 0 14 -15l-174 -285q-7 -12 -2 -22l188 -413q3 -7 -1 -11t-15 -4h-79q-14 0 -21 15l-140 296q-2 5 -7 5t-8 -5l-43 -71q-7 -12 -7 -24v-201q0 -15 -20 -15h-66z
M249 -281l-22 16q-10 8 -4 15q37 45 37 76q0 18 -25 40.5t-25 48.5q0 28 17.5 45t47.5 17q32 0 51 -25.5t19 -64.5q0 -42 -21.5 -88t-59.5 -77q-8 -7 -15 -3z" />
    <glyph glyph-name="kcommaaccent" unicode="&#x137;" horiz-adv-x="424" 
d="M60 15v720q0 15 15 15h70q15 0 15 -15v-419q0 -7 4.5 -9.5t12.5 5.5l137 153q9 10 14 12.5t16 2.5h61q11 0 15.5 -4.5t-4.5 -16.5l-134 -150q-6 -7 -1 -17l144 -271q6 -11 0.5 -16t-15.5 -5h-54q-14 0 -18 2t-10 13l-111 201q-7 13 -16 2l-32 -35q-9 -9 -9 -32v-136
q0 -15 -15 -15h-70q-15 0 -15 15zM216 -281l-22 16q-10 8 -4 15q37 45 37 76q0 18 -25 40.5t-25 48.5q0 28 17.5 45t47.5 17q32 0 51 -25.5t19 -64.5q0 -42 -21.5 -88t-59.5 -77q-8 -7 -15 -3z" />
    <glyph glyph-name="Lacute" unicode="&#x139;" horiz-adv-x="429" 
d="M106 788q-7 0 -11 4t-2 10l30 80q5 15 19 15h67q8 0 11.5 -6.5t-2.5 -15.5l-51 -66q-16 -21 -29 -21h-32zM70 15v720q0 15 15 15h75q15 0 15 -15v-626q0 -15 15 -15h176q15 0 15 -15v-64q0 -15 -15 -15h-281q-15 0 -15 15z" />
    <glyph glyph-name="lacute" unicode="&#x13a;" horiz-adv-x="220" 
d="M94 818q-24 0 -19 21l30 107q4 13 7.5 17t15.5 4h62q8 0 12 -5.5t0 -14.5l-48 -108q-9 -21 -29 -21h-31zM75 0q-15 0 -15 15v720q0 15 15 15h70q15 0 15 -15v-720q0 -15 -15 -15h-70z" />
    <glyph glyph-name="Lcommaaccent" unicode="&#x13b;" horiz-adv-x="429" 
d="M70 15v720q0 15 15 15h75q15 0 15 -15v-626q0 -15 15 -15h176q15 0 15 -15v-64q0 -15 -15 -15h-281q-15 0 -15 15zM196 -281l-22 16q-10 8 -4 15q37 45 37 76q0 18 -25 40.5t-25 48.5q0 28 17.5 45t47.5 17q32 0 51 -25.5t19 -64.5q0 -42 -21.5 -88t-59.5 -77
q-8 -7 -15 -3z" />
    <glyph glyph-name="lcommaaccent" unicode="&#x13c;" horiz-adv-x="220" 
d="M75 0q-15 0 -15 15v720q0 15 15 15h70q15 0 15 -15v-720q0 -15 -15 -15h-70zM85 -281l-22 16q-10 8 -4 15q37 45 37 76q0 18 -25 40.5t-25 48.5q0 28 17.5 45t47.5 17q32 0 51 -25.5t19 -64.5q0 -42 -21.5 -88t-59.5 -77q-8 -7 -15 -3z" />
    <glyph glyph-name="Lcaron" unicode="&#x13d;" horiz-adv-x="431" 
d="M323 628q-9 0 -13 5.5t-6 21.5l-20 121q-5 27 23 27h52q28 0 23 -27l-20 -121q-2 -16 -6 -21.5t-13 -5.5h-20zM70 15v720q0 15 15 15h75q15 0 15 -15v-626q0 -15 15 -15h176q15 0 15 -15v-64q0 -15 -15 -15h-281q-15 0 -15 15z" />
    <glyph glyph-name="lcaron" unicode="&#x13e;" horiz-adv-x="327" 
d="M243 628q-9 0 -13 5.5t-6 21.5l-20 121q-5 27 23 27h52q28 0 23 -27l-20 -121q-2 -16 -6 -21.5t-13 -5.5h-20zM75 0q-15 0 -15 15v720q0 15 15 15h70q15 0 15 -15v-720q0 -15 -15 -15h-70z" />
    <glyph glyph-name="Ldot" unicode="&#x13f;" horiz-adv-x="385" 
d="M70 15v720q0 15 15 15h75q15 0 15 -15v-626q0 -15 15 -15h176q15 0 15 -15v-64q0 -15 -15 -15h-281q-15 0 -15 15zM314 377q-26 0 -44 18t-18 44t18 44t44 18t44.5 -18t18.5 -44t-18.5 -44t-44.5 -18z" />
    <glyph glyph-name="ldot" unicode="&#x140;" horiz-adv-x="355" 
d="M75 0q-15 0 -15 15v720q0 15 15 15h70q15 0 15 -15v-720q0 -15 -15 -15h-70zM272 323q-26 0 -44 18t-18 44t18 44t44 18t44.5 -18t18.5 -44t-18.5 -44t-44.5 -18z" />
    <glyph glyph-name="Lslash" unicode="&#x141;" horiz-adv-x="429" 
d="M70 15v720q0 15 15 15h75q15 0 15 -15v-319q0 -11 11 -4l107 74q16 11 28 -5l31 -44q12 -16 -4 -27l-164 -114q-9 -6 -9 -17v-170q0 -15 15 -15h176q15 0 15 -15v-64q0 -15 -15 -15h-281q-15 0 -15 15z" />
    <glyph glyph-name="lslash" unicode="&#x142;" horiz-adv-x="290" 
d="M110 0q-15 0 -15 15v297q0 9 -9 6l-41 -17q-15 -7 -15 9v66q0 12 15 19l40 19q10 4 10 14v307q0 15 15 15h70q15 0 15 -15v-266q0 -9 9 -6l41 17q15 7 15 -9v-66q0 -12 -15 -19l-40 -19q-10 -4 -10 -14v-338q0 -15 -15 -15h-70z" />
    <glyph glyph-name="Nacute" unicode="&#x143;" horiz-adv-x="588" 
d="M282 788q-7 0 -11 4t-2 10l30 80q5 15 19 15h67q8 0 11.5 -6.5t-2.5 -15.5l-51 -66q-16 -21 -29 -21h-32zM85 0q-15 0 -15 15v720q0 15 15 15h57q20 0 27 -13l234 -463q2 -4 6 -3.5t4 5.5v459q0 15 15 15h75q15 0 15 -15v-720q0 -15 -15 -15h-58q-20 0 -26 12l-234 463
q-2 4 -6 3.5t-4 -5.5v-458q0 -15 -15 -15h-75z" />
    <glyph glyph-name="nacute" unicode="&#x144;" horiz-adv-x="460" 
d="M219 548q-24 0 -19 21l30 107q4 13 8 17t15 4h62q8 0 12 -5.5t0 -14.5l-48 -108q-9 -21 -29 -21h-31zM46 15v450q0 15 15 15h60q15 0 15 -15v-13q0 -5 5 -5q3 0 16 9.5t38 19t59 9.5q74 0 117 -41.5t43 -122.5v-306q0 -15 -15 -15h-70q-15 0 -15 15v280q0 40 -20.5 66
t-62.5 26q-49 0 -67 -24.5t-18 -67.5v-280q0 -15 -15 -15h-70q-15 0 -15 15z" />
    <glyph glyph-name="Ncommaaccent" unicode="&#x145;" horiz-adv-x="588" 
d="M85 0q-15 0 -15 15v720q0 15 15 15h57q20 0 27 -13l234 -463q2 -4 6 -3.5t4 5.5v459q0 15 15 15h75q15 0 15 -15v-720q0 -15 -15 -15h-58q-20 0 -26 12l-234 463q-2 4 -6 3.5t-4 -5.5v-458q0 -15 -15 -15h-75zM284 -281l-22 16q-10 8 -4 15q37 45 37 76q0 18 -25 40.5
t-25 48.5q0 28 17.5 45t47.5 17q32 0 51 -25.5t19 -64.5q0 -42 -21.5 -88t-59.5 -77q-8 -7 -15 -3z" />
    <glyph glyph-name="ncommaaccent" unicode="&#x146;" horiz-adv-x="460" 
d="M46 15v450q0 15 15 15h60q15 0 15 -15v-13q0 -5 5 -5q3 0 16 9.5t38 19t59 9.5q74 0 117 -41.5t43 -122.5v-306q0 -15 -15 -15h-70q-15 0 -15 15v280q0 40 -20.5 66t-62.5 26q-49 0 -67 -24.5t-18 -67.5v-280q0 -15 -15 -15h-70q-15 0 -15 15zM206 -281l-22 16
q-10 8 -4 15q37 45 37 76q0 18 -25 40.5t-25 48.5q0 28 17.5 45t47.5 17q32 0 51 -25.5t19 -64.5q0 -42 -21.5 -88t-59.5 -77q-8 -7 -15 -3z" />
    <glyph glyph-name="Ncaron" unicode="&#x147;" horiz-adv-x="588" 
d="M183 897h68q11 0 18 -12l25 -39q5 -8 10 0l25 39q7 12 17 12h68q12 0 14.5 -6.5t-4.5 -13.5l-84 -82q-7 -7 -20 -7h-41q-15 0 -21 7l-86 82q-8 7 -4.5 13.5t15.5 6.5zM85 0q-15 0 -15 15v720q0 15 15 15h57q20 0 27 -13l234 -463q2 -4 6 -3.5t4 5.5v459q0 15 15 15h75
q15 0 15 -15v-720q0 -15 -15 -15h-58q-20 0 -26 12l-234 463q-2 4 -6 3.5t-4 -5.5v-458q0 -15 -15 -15h-75z" />
    <glyph glyph-name="ncaron" unicode="&#x148;" horiz-adv-x="460" 
d="M223 548q-15 0 -21 7l-93 102q-7 7 -4.5 13.5t14.5 6.5h68q12 0 18 -12l25 -39q6 -9 11 0l24 39q7 12 18 12h67q12 0 15 -6.5t-4 -13.5l-93 -102q-6 -7 -20 -7h-25zM46 15v450q0 15 15 15h60q15 0 15 -15v-13q0 -5 5 -5q3 0 16 9.5t38 19t59 9.5q74 0 117 -41.5
t43 -122.5v-306q0 -15 -15 -15h-70q-15 0 -15 15v280q0 40 -20.5 66t-62.5 26q-49 0 -67 -24.5t-18 -67.5v-280q0 -15 -15 -15h-70q-15 0 -15 15z" />
    <glyph glyph-name="napostrophe" unicode="&#x149;" horiz-adv-x="537" 
d="M50 628q-10 0 -13.5 5.5t-5.5 21.5l-20 121q-5 27 23 27h52q27 0 23 -27l-20 -121q-3 -17 -6.5 -22t-12.5 -5h-20zM123 15v450q0 15 15 15h60q15 0 15 -15v-13q0 -5 5 -5q3 0 16 9.5t38 19t59 9.5q74 0 117 -41.5t43 -122.5v-306q0 -15 -15 -15h-70q-15 0 -15 15v280
q0 40 -20.5 66t-62.5 26q-49 0 -67 -24.5t-18 -67.5v-280q0 -15 -15 -15h-70q-15 0 -15 15z" />
    <glyph glyph-name="Eng" unicode="&#x14a;" horiz-adv-x="588" 
d="M70 15v720q0 15 15 15h57q20 0 27 -13l234 -463q2 -4 6 -3.5t4 5.5v459q0 15 15 15h75q15 0 15 -15v-796q0 -86 -58 -137.5t-149 -51.5q-20 0 -20 15v72q0 16 20 16q47 0 74.5 28.5t27.5 84.5v48q0 10 -5 20l-223 441q-2 4 -6 3.5t-4 -5.5v-458q0 -15 -15 -15h-75
q-15 0 -15 15z" />
    <glyph glyph-name="eng" unicode="&#x14b;" horiz-adv-x="460" 
d="M46 15v450q0 15 15 15h60q15 0 15 -15v-13q0 -5 5 -5q3 0 16 9.5t38 19t59 9.5q74 0 117 -41.5t43 -122.5v-407q0 -77 -49 -120.5t-136 -43.5q-19 0 -19 15v67q0 16 19 16q85 0 85 93v354q0 40 -20.5 66t-62.5 26q-49 0 -67 -24.5t-18 -67.5v-280q0 -15 -15 -15h-70
q-15 0 -15 15z" />
    <glyph glyph-name="Omacron" unicode="&#x14c;" 
d="M151 801q-26 0 -26 20v44q0 20 26 20h224q15 0 20.5 -4.5t5.5 -15.5v-44q0 -11 -5.5 -15.5t-20.5 -4.5h-224zM55 184v382q0 87 58 138t150 51t150 -51t58 -138v-382q0 -87 -58 -138t-150 -51t-150 51t-58 138zM161 208q0 -56 27.5 -84.5t74.5 -28.5t74.5 28.5t27.5 84.5
v334q0 56 -27.5 84.5t-74.5 28.5t-74.5 -28.5t-27.5 -84.5v-334z" />
    <glyph glyph-name="omacron" unicode="&#x14d;" horiz-adv-x="436" 
d="M106 561q-26 0 -26 20v44q0 20 26 20h224q15 0 20.5 -4.5t5.5 -15.5v-44q0 -11 -5.5 -15.5t-20.5 -4.5h-224zM34 178v124q0 85 48.5 134t135.5 49t135.5 -49t48.5 -134v-124q0 -85 -48.5 -134t-135.5 -49t-135.5 49t-48.5 134zM134 195q0 -102 84 -102t84 102v90
q0 102 -84 102t-84 -102v-90z" />
    <glyph glyph-name="Obreve" unicode="&#x14e;" 
d="M154 879q0 18 12 18h48q14 0 14 -15q0 -36 38 -36q36 0 36 36q0 15 13 15h47q13 0 13 -18q0 -43 -30 -66.5t-82 -23.5q-51 0 -80 23t-29 67zM55 184v382q0 87 58 138t150 51t150 -51t58 -138v-382q0 -87 -58 -138t-150 -51t-150 51t-58 138zM161 208q0 -56 27.5 -84.5
t74.5 -28.5t74.5 28.5t27.5 84.5v334q0 56 -27.5 84.5t-74.5 28.5t-74.5 -28.5t-27.5 -84.5v-334z" />
    <glyph glyph-name="obreve" unicode="&#x14f;" horiz-adv-x="436" 
d="M83 662q0 15 17 15h38q19 0 19 -15q0 -23 18.5 -36t43.5 -13t43 13t18 36q0 15 18 15h37q18 0 18 -15q0 -54 -40.5 -84t-95.5 -30q-54 0 -94 30t-40 84zM34 178v124q0 85 48.5 134t135.5 49t135.5 -49t48.5 -134v-124q0 -85 -48.5 -134t-135.5 -49t-135.5 49t-48.5 134z
M134 195q0 -102 84 -102t84 102v90q0 102 -84 102t-84 -102v-90z" />
    <glyph glyph-name="Ohungarumlaut" unicode="&#x150;" 
d="M161 788q-7 0 -11 4t-2 10l30 80q5 15 19 15h67q8 0 11.5 -6.5t-2.5 -15.5l-51 -66q-16 -21 -29 -21h-32zM301 788q-7 0 -11 4t-2 10l30 80q5 15 19 15h67q8 0 11.5 -6.5t-2.5 -15.5l-51 -66q-16 -21 -29 -21h-32zM55 184v382q0 87 58 138t150 51t150 -51t58 -138v-382
q0 -87 -58 -138t-150 -51t-150 51t-58 138zM161 208q0 -56 27.5 -84.5t74.5 -28.5t74.5 28.5t27.5 84.5v334q0 56 -27.5 84.5t-74.5 28.5t-74.5 -28.5t-27.5 -84.5v-334z" />
    <glyph glyph-name="ohungarumlaut" unicode="&#x151;" horiz-adv-x="436" 
d="M125 548q-24 0 -19 21l30 107q4 13 8 17t15 4h62q8 0 12 -5.5t0 -14.5l-48 -108q-9 -21 -29 -21h-31zM265 548q-24 0 -19 21l30 107q4 13 8 17t15 4h62q8 0 12 -5.5t0 -14.5l-48 -108q-9 -21 -29 -21h-31zM34 178v124q0 85 48.5 134t135.5 49t135.5 -49t48.5 -134v-124
q0 -85 -48.5 -134t-135.5 -49t-135.5 49t-48.5 134zM134 195q0 -102 84 -102t84 102v90q0 102 -84 102t-84 -102v-90z" />
    <glyph glyph-name="OE" unicode="&#x152;" horiz-adv-x="687" 
d="M55 189v372q0 87 58 138t150 51h369q15 0 15 -15v-64q0 -15 -15 -15h-176q-15 0 -15 -15v-200q0 -15 15 -15h176q15 0 15 -15v-64q0 -15 -15 -15h-176q-15 0 -15 -15v-208q0 -15 15 -15h176q15 0 15 -15v-64q0 -15 -15 -15h-369q-92 0 -150 51t-58 138zM161 213
q0 -57 28 -88t74 -31h57q15 0 15 15v532q0 15 -15 15h-57q-46 0 -74 -31t-28 -88v-324z" />
    <glyph glyph-name="oe" unicode="&#x153;" horiz-adv-x="704" 
d="M218 -5q-87 0 -135.5 49t-48.5 134v124q0 85 48.5 134t135.5 49q72 0 123 -38q11 -9 23 0q52 38 122 38q84 0 134 -48t50 -116v-90q0 -15 -15 -15h-238q-15 0 -15 -15v-15q0 -39 22.5 -68.5t61.5 -29.5q37 0 60.5 25.5t23.5 48.5q0 15 15 15h70q15 0 15 -15v-13
q0 -61 -50.5 -107.5t-133.5 -46.5q-70 0 -120 37q-13 10 -26 0q-49 -37 -122 -37zM417 294h137q15 0 15 15v10q0 31 -23 52t-60 21q-38 0 -61 -21t-23 -52v-10q0 -15 15 -15zM218 93q84 0 84 102v90q0 102 -84 102t-84 -102v-90q0 -102 84 -102z" />
    <glyph glyph-name="Racute" unicode="&#x154;" horiz-adv-x="531" 
d="M242 788q-7 0 -11 4t-2 10l30 80q5 15 19 15h67q8 0 11.5 -6.5t-2.5 -15.5l-51 -66q-16 -21 -29 -21h-32zM86 0q-15 0 -15 15v720q0 15 15 15h192q89 0 148.5 -52.5t59.5 -126.5v-92q0 -89 -81 -143q-11 -8 -9 -19l76 -296q5 -21 -16 -21h-61q-9 0 -12.5 0.5t-7 4
t-5.5 10.5l-71 270q-3 15 -20 15h-88q-15 0 -15 -15v-270q0 -15 -15 -15h-75zM191 400h87q45 0 73.5 29.5t28.5 73.5v44q0 44 -28.5 73.5t-73.5 29.5h-87q-15 0 -15 -15v-220q0 -15 15 -15z" />
    <glyph glyph-name="racute" unicode="&#x155;" horiz-adv-x="298" 
d="M158 548q-24 0 -19 21l30 107q4 13 7.5 17t15.5 4h62q8 0 12 -5.5t0 -14.5l-48 -108q-9 -21 -29 -21h-31zM61 0q-15 0 -15 15v450q0 15 15 15h60q15 0 15 -15v-19q0 -5 5 -5q3 0 18.5 11t44 22t64.5 11q15 0 15 -15v-79q0 -15 -15 -13q-122 13 -122 -78v-285
q0 -15 -15 -15h-70z" />
    <glyph glyph-name="Rcommaaccent" unicode="&#x156;" horiz-adv-x="531" 
d="M86 0q-15 0 -15 15v720q0 15 15 15h192q89 0 148.5 -52.5t59.5 -126.5v-92q0 -89 -81 -143q-11 -8 -9 -19l76 -296q5 -21 -16 -21h-61q-9 0 -12.5 0.5t-7 4t-5.5 10.5l-71 270q-3 15 -20 15h-88q-15 0 -15 -15v-270q0 -15 -15 -15h-75zM191 400h87q45 0 73.5 29.5
t28.5 73.5v44q0 44 -28.5 73.5t-73.5 29.5h-87q-15 0 -15 -15v-220q0 -15 15 -15zM242 -281l-22 16q-10 8 -4 15q37 45 37 76q0 18 -25 40.5t-25 48.5q0 28 17.5 45t47.5 17q32 0 51 -25.5t19 -64.5q0 -42 -21.5 -88t-59.5 -77q-8 -7 -15 -3z" />
    <glyph glyph-name="rcommaaccent" unicode="&#x157;" horiz-adv-x="298" 
d="M61 0q-15 0 -15 15v450q0 15 15 15h60q15 0 15 -15v-19q0 -5 5 -5q3 0 18.5 11t44 22t64.5 11q15 0 15 -15v-79q0 -15 -15 -13q-122 13 -122 -78v-285q0 -15 -15 -15h-70zM70 -281l-22 16q-10 8 -4 15q37 45 37 76q0 18 -25 40.5t-25 48.5q0 28 17.5 45t47.5 17
q32 0 51 -25.5t19 -64.5q0 -42 -21.5 -88t-59.5 -77q-8 -7 -15 -3z" />
    <glyph glyph-name="Rcaron" unicode="&#x158;" horiz-adv-x="531" 
d="M143 897h68q11 0 18 -12l25 -39q5 -8 10 0l25 39q7 12 17 12h68q12 0 14.5 -6.5t-4.5 -13.5l-84 -82q-7 -7 -20 -7h-41q-15 0 -21 7l-86 82q-8 7 -4.5 13.5t15.5 6.5zM86 0q-15 0 -15 15v720q0 15 15 15h192q89 0 148.5 -52.5t59.5 -126.5v-92q0 -89 -81 -143
q-11 -8 -9 -19l76 -296q5 -21 -16 -21h-61q-9 0 -12.5 0.5t-7 4t-5.5 10.5l-71 270q-3 15 -20 15h-88q-15 0 -15 -15v-270q0 -15 -15 -15h-75zM191 400h87q45 0 73.5 29.5t28.5 73.5v44q0 44 -28.5 73.5t-73.5 29.5h-87q-15 0 -15 -15v-220q0 -15 15 -15z" />
    <glyph glyph-name="rcaron" unicode="&#x159;" horiz-adv-x="298" 
d="M162 548q-15 0 -21 7l-93 102q-7 7 -4.5 13.5t14.5 6.5h68q12 0 18 -12l25 -39q5 -9 11 0l24 39q8 12 18 12h67q12 0 15 -6.5t-4 -13.5l-93 -102q-6 -7 -20 -7h-25zM61 0q-15 0 -15 15v450q0 15 15 15h60q15 0 15 -15v-19q0 -5 5 -5q3 0 18.5 11t44 22t64.5 11
q15 0 15 -15v-79q0 -15 -15 -13q-122 13 -122 -78v-285q0 -15 -15 -15h-70z" />
    <glyph glyph-name="Sacute" unicode="&#x15a;" horiz-adv-x="521" 
d="M244 788q-7 0 -11 4t-2 10l30 80q5 15 19 15h67q8 0 11.5 -6.5t-2.5 -15.5l-51 -66q-16 -21 -29 -21h-32zM53 164v37q0 15 15 15h76q15 0 15 -15v-13q0 -43 28 -68t74 -25q45 0 73.5 25t28.5 68v13q0 17 -6.5 31.5t-21.5 28t-28.5 23t-40 26t-42.5 27.5q-5 4 -30 20.5
t-32 22l-27.5 21t-27.5 24l-21 25t-19 30t-9.5 31.5t-4.5 38v37q0 73 59 121t149 48t148.5 -48t58.5 -121v-37q0 -15 -14 -15h-77q-14 0 -14 15v13q0 43 -28.5 68t-73.5 25t-73.5 -25t-28.5 -68v-13q0 -17 5 -30.5t19.5 -27t26 -22t40 -26.5t45.5 -30l33 -22.5t35.5 -24.5
t30.5 -24t30.5 -30t21.5 -31t17 -38t5 -42v-37q0 -73 -58.5 -121t-148.5 -48t-149 48t-59 121z" />
    <glyph glyph-name="sacute" unicode="&#x15b;" horiz-adv-x="416" 
d="M192 548q-24 0 -19 21l30 107q4 13 7.5 17t15.5 4h62q8 0 12 -5.5t0 -14.5l-48 -108q-9 -21 -29 -21h-31zM34 144v12q0 15 20 15h61q19 0 19 -15q0 -27 19 -47.5t56 -20.5q35 0 51.5 15.5t16.5 39.5t-25 36t-60.5 18t-71.5 16.5t-61 40.5t-25 81q0 68 45 109t129 41
q83 0 128.5 -42.5t45.5 -106.5v-12q0 -15 -19 -15h-61q-20 0 -20 15q0 27 -18.5 47.5t-55.5 20.5q-35 0 -52 -15t-17 -39t25 -36t60.5 -18.5t71.5 -17t61 -40.5t25 -81q0 -68 -44.5 -109t-128.5 -41q-83 0 -129 42.5t-46 106.5z" />
    <glyph glyph-name="Scircumflex" unicode="&#x15c;" horiz-adv-x="521" 
d="M145 788q-12 0 -15.5 6t4.5 14l86 82q6 7 21 7h41q13 0 20 -7l84 -82q7 -7 4.5 -13.5t-14.5 -6.5h-68q-10 0 -17 12l-25 39q-5 8 -10 0l-25 -39q-7 -12 -18 -12h-68zM53 164v37q0 15 15 15h76q15 0 15 -15v-13q0 -43 28 -68t74 -25q45 0 73.5 25t28.5 68v13
q0 17 -6.5 31.5t-21.5 28t-28.5 23t-40 26t-42.5 27.5q-5 4 -30 20.5t-32 22l-27.5 21t-27.5 24l-21 25t-19 30t-9.5 31.5t-4.5 38v37q0 73 59 121t149 48t148.5 -48t58.5 -121v-37q0 -15 -14 -15h-77q-14 0 -14 15v13q0 43 -28.5 68t-73.5 25t-73.5 -25t-28.5 -68v-13
q0 -17 5 -30.5t19.5 -27t26 -22t40 -26.5t45.5 -30l33 -22.5t35.5 -24.5t30.5 -24t30.5 -30t21.5 -31t17 -38t5 -42v-37q0 -73 -58.5 -121t-148.5 -48t-149 48t-59 121z" />
    <glyph glyph-name="scircumflex" unicode="&#x15d;" horiz-adv-x="416" 
d="M92 548q-12 0 -15 6t5 14l93 102q6 7 21 7h25q13 0 19 -7l93 -102q7 -8 4.5 -14t-14.5 -6h-68q-11 0 -17 12l-25 39q-5 8 -10 0l-25 -39q-6 -12 -18 -12h-68zM34 144v12q0 15 20 15h61q19 0 19 -15q0 -27 19 -47.5t56 -20.5q35 0 51.5 15.5t16.5 39.5t-25 36t-60.5 18
t-71.5 16.5t-61 40.5t-25 81q0 68 45 109t129 41q83 0 128.5 -42.5t45.5 -106.5v-12q0 -15 -19 -15h-61q-20 0 -20 15q0 27 -18.5 47.5t-55.5 20.5q-35 0 -52 -15t-17 -39t25 -36t60.5 -18.5t71.5 -17t61 -40.5t25 -81q0 -68 -44.5 -109t-128.5 -41q-83 0 -129 42.5
t-46 106.5z" />
    <glyph glyph-name="Scedilla" unicode="&#x15e;" horiz-adv-x="521" 
d="M207 -5q-69 13 -111.5 58t-42.5 106v42q0 15 15 15h76q15 0 15 -15v-18q0 -43 28 -68t74 -25q45 0 73.5 25t28.5 68v18q0 17 -6.5 31.5t-21.5 28t-28.5 23t-40 26t-42.5 27.5q-5 4 -30 20.5t-32 22l-27.5 21t-27.5 24l-21 25t-19 30t-9.5 31.5t-4.5 38v42q0 73 59 121
t149 48t148.5 -48t58.5 -121v-42q0 -15 -14 -15h-77q-14 0 -14 15v18q0 43 -28.5 68t-73.5 25t-73.5 -25t-28.5 -68v-18q0 -17 5 -30.5t19.5 -27t26 -22t40 -26.5t45.5 -30l33 -22.5t35.5 -24.5t30.5 -24t30.5 -30t21.5 -31t17 -38t5 -42v-42q0 -63 -48.5 -110.5
t-120.5 -55.5q-9 -1 -14 -8l-5 -10q-3 -6 -3.5 -8.5t1.5 -3.5t8 0q14 2 25 2q41 0 66.5 -22.5t25.5 -57.5q0 -46 -36.5 -72t-92.5 -26q-42 0 -78 12q-10 3 -5 13l16 42q3 9 17 6q25 -5 39 -5q53 0 53 29q0 28 -53 28q-14 0 -56 -7q-15 -2 -20 6.5t1 16.5l31 55q5 9 -12 12z
" />
    <glyph glyph-name="scedilla" unicode="&#x15f;" horiz-adv-x="416" 
d="M155 0q-58 11 -89.5 51t-31.5 93v12q0 15 20 15h61q19 0 19 -15q0 -24 19.5 -46t55.5 -22q34 0 51 16.5t17 37.5q0 24 -25 36.5t-60.5 19t-71.5 17.5t-61 41.5t-25 81.5q0 67 44.5 107t129.5 40q83 0 128.5 -42.5t45.5 -106.5v-12q0 -15 -19 -15h-61q-20 0 -20 15
q0 24 -19 46t-55 22q-35 0 -52 -15t-17 -36q0 -24 25 -36.5t60.5 -19.5t71.5 -18t61 -41.5t25 -81.5q0 -58 -34.5 -98.5t-97.5 -47.5q-11 -1 -14 -8l-8 -15q-3 -6 -3.5 -8.5t1.5 -3.5t8 0q14 2 25 2q41 0 66.5 -22.5t25.5 -57.5q0 -46 -36.5 -72t-92.5 -26q-42 0 -78 12
q-10 3 -5 13l16 42q3 9 17 6q25 -5 39 -5q53 0 53 29q0 28 -53 28q-14 0 -56 -7q-15 -2 -20 6.5t1 16.5l31 60q4 9 -12 12z" />
    <glyph glyph-name="Scaron" unicode="&#x160;" horiz-adv-x="521" 
d="M145 897h68q11 0 18 -12l25 -39q5 -8 10 0l25 39q7 12 17 12h68q12 0 14.5 -6.5t-4.5 -13.5l-84 -82q-7 -7 -20 -7h-41q-15 0 -21 7l-86 82q-8 7 -4.5 13.5t15.5 6.5zM53 164v37q0 15 15 15h76q15 0 15 -15v-13q0 -43 28 -68t74 -25q45 0 73.5 25t28.5 68v13
q0 17 -6.5 31.5t-21.5 28t-28.5 23t-40 26t-42.5 27.5q-5 4 -30 20.5t-32 22l-27.5 21t-27.5 24l-21 25t-19 30t-9.5 31.5t-4.5 38v37q0 73 59 121t149 48t148.5 -48t58.5 -121v-37q0 -15 -14 -15h-77q-14 0 -14 15v13q0 43 -28.5 68t-73.5 25t-73.5 -25t-28.5 -68v-13
q0 -17 5 -30.5t19.5 -27t26 -22t40 -26.5t45.5 -30l33 -22.5t35.5 -24.5t30.5 -24t30.5 -30t21.5 -31t17 -38t5 -42v-37q0 -73 -58.5 -121t-148.5 -48t-149 48t-59 121z" />
    <glyph glyph-name="scaron" unicode="&#x161;" horiz-adv-x="416" 
d="M196 548q-15 0 -21 7l-93 102q-7 7 -4.5 13.5t14.5 6.5h68q12 0 18 -12l25 -39q5 -9 11 0l24 39q8 12 18 12h67q12 0 15 -6.5t-4 -13.5l-93 -102q-6 -7 -20 -7h-25zM34 144v12q0 15 20 15h61q19 0 19 -15q0 -27 19 -47.5t56 -20.5q35 0 51.5 15.5t16.5 39.5t-25 36
t-60.5 18t-71.5 16.5t-61 40.5t-25 81q0 68 45 109t129 41q83 0 128.5 -42.5t45.5 -106.5v-12q0 -15 -19 -15h-61q-20 0 -20 15q0 27 -18.5 47.5t-55.5 20.5q-35 0 -52 -15t-17 -39t25 -36t60.5 -18.5t71.5 -17t61 -40.5t25 -81q0 -68 -44.5 -109t-128.5 -41
q-83 0 -129 42.5t-46 106.5z" />
    <glyph glyph-name="uni0162" unicode="&#x162;" horiz-adv-x="399" 
d="M31 665v70q0 15 15 15h307q15 0 15 -15v-70q0 -15 -15 -15h-86q-15 0 -15 -15v-620q0 -15 -19 -15l-13 -25q-3 -6 -3.5 -8.5t1.5 -3.5t8 0q14 2 25 2q41 0 66.5 -22.5t25.5 -57.5q0 -46 -36.5 -72t-92.5 -26q-42 0 -78 12q-10 3 -5 13l16 42q3 9 17 6q25 -5 39 -5
q53 0 53 29q0 28 -53 28q-14 0 -56 -7q-14 -2 -19 6.5t0 16.5l34 72q-15 0 -15 15v620q0 15 -15 15h-86q-15 0 -15 15z" />
    <glyph glyph-name="uni0163" unicode="&#x163;" horiz-adv-x="393" 
d="M15 405v60q0 15 15 15h50q15 0 15 15v88q0 15 15 15h70q15 0 15 -15v-88q0 -15 15 -15h74q15 0 15 -15v-60q0 -15 -15 -15h-74q-15 0 -15 -15v-184q0 -93 85 -93q19 0 19 -16v-67q0 -15 -19 -15q-27 0 -46 4q-9 2 -16 -12l-11 -22q-3 -6 -3.5 -8.5t1.5 -3.5t8 0
q14 2 25 2q41 0 66.5 -22.5t25.5 -57.5q0 -46 -36.5 -72t-92.5 -26q-42 0 -78 12q-10 3 -5 13l16 42q3 9 17 6q25 -5 39 -5q53 0 53 29q0 28 -53 28q-14 0 -56 -7q-14 -2 -19 6.5t0 16.5l44 94q5 11 -2 16q-62 41 -62 131v211q0 15 -15 15h-50q-15 0 -15 15z" />
    <glyph glyph-name="Tcaron" unicode="&#x164;" horiz-adv-x="399" 
d="M83 897h68q11 0 18 -12l25 -39q5 -8 10 0l25 39q8 12 17 12h68q12 0 14.5 -6.5t-4.5 -13.5l-84 -82q-7 -7 -20 -7h-41q-15 0 -21 7l-86 82q-8 7 -4.5 13.5t15.5 6.5zM31 665v70q0 15 15 15h307q15 0 15 -15v-70q0 -15 -15 -15h-86q-15 0 -15 -15v-620q0 -15 -15 -15h-75
q-15 0 -15 15v620q0 15 -15 15h-86q-15 0 -15 15z" />
    <glyph glyph-name="tcaron" unicode="&#x165;" horiz-adv-x="329" 
d="M259 628q-9 0 -13 5.5t-6 21.5l-20 121q-5 27 23 27h52q28 0 23 -27l-20 -121q-2 -16 -6 -21.5t-13 -5.5h-20zM15 405v60q0 15 15 15h50q15 0 15 15v88q0 15 15 15h70q15 0 15 -15v-88q0 -15 15 -15h74q15 0 15 -15v-60q0 -15 -15 -15h-74q-15 0 -15 -15v-184
q0 -93 85 -93q19 0 19 -16v-67q0 -15 -19 -15q-87 0 -136 43.5t-49 120.5v211q0 15 -15 15h-50q-15 0 -15 15z" />
    <glyph glyph-name="Tbar" unicode="&#x166;" horiz-adv-x="399" 
d="M31 665v70q0 15 15 15h307q15 0 15 -15v-70q0 -15 -15 -15h-86q-15 0 -15 -15v-110q0 -16 15 -16h36q15 0 15 -15v-64q0 -15 -15 -15h-36q-15 0 -15 -15v-385q0 -15 -15 -15h-75q-15 0 -15 15v385q0 15 -15 15h-36q-15 0 -15 15v64q0 15 15 15h36q15 0 15 16v110
q0 15 -15 15h-86q-15 0 -15 15z" />
    <glyph glyph-name="tbar" unicode="&#x167;" horiz-adv-x="336" 
d="M210 390q-15 0 -15 -15v-9q0 -16 15 -16h26q15 0 15 -15v-60q0 -15 -15 -15h-26q-15 0 -15 -15v-54q0 -93 85 -93q19 0 19 -16v-67q0 -15 -19 -15q-87 0 -136 43.5t-49 120.5v81q0 15 -15 15h-26q-15 0 -15 15v60q0 15 15 15h26q15 0 15 16v9q0 15 -15 15h-50
q-15 0 -15 15v60q0 15 15 15h50q15 0 15 15v88q0 15 15 15h70q15 0 15 -15v-88q0 -15 15 -15h74q15 0 15 -15v-60q0 -15 -15 -15h-74z" />
    <glyph glyph-name="Utilde" unicode="&#x168;" 
d="M112 784q-18 0 -18 12q0 55 28.5 84t73.5 29q41 0 80.5 -21.5t55.5 -21.5q18 0 28.5 9t10.5 22q0 12 19 12h36q19 0 19 -12q0 -54 -28.5 -83.5t-73.5 -29.5q-41 0 -81 22t-56 22q-17 0 -27.5 -9t-10.5 -23q0 -12 -20 -12h-36zM55 184v551q0 15 15 15h76q15 0 15 -15v-527
q0 -56 27.5 -84.5t74.5 -28.5t74.5 28.5t27.5 84.5v527q0 15 15 15h76q15 0 15 -15v-551q0 -87 -58 -138t-150 -51t-150 51t-58 138z" />
    <glyph glyph-name="utilde" unicode="&#x169;" horiz-adv-x="460" 
d="M76 545q-14 0 -14 14q0 53 27 81.5t71 28.5q40 0 78 -24.5t54 -24.5q37 0 37 35q0 14 17 14h40q15 0 15 -14q0 -53 -27.5 -81.5t-71.5 -28.5q-39 0 -77.5 24.5t-54.5 24.5q-17 0 -27 -9.5t-10 -25.5q0 -14 -16 -14h-41zM206 -5q-74 0 -117 41.5t-43 122.5v306q0 15 15 15
h70q15 0 15 -15v-280q0 -40 20.5 -66t62.5 -26q49 0 67 24.5t18 67.5v280q0 15 15 15h70q15 0 15 -15v-450q0 -15 -15 -15h-60q-15 0 -15 15v13q0 5 -5 5q-3 0 -16 -9.5t-38 -19t-59 -9.5z" />
    <glyph glyph-name="Umacron" unicode="&#x16a;" 
d="M152 801q-26 0 -26 20v44q0 20 26 20h224q15 0 20.5 -4.5t5.5 -15.5v-44q0 -11 -5.5 -15.5t-20.5 -4.5h-224zM55 184v551q0 15 15 15h76q15 0 15 -15v-527q0 -56 27.5 -84.5t74.5 -28.5t74.5 28.5t27.5 84.5v527q0 15 15 15h76q15 0 15 -15v-551q0 -87 -58 -138t-150 -51
t-150 51t-58 138z" />
    <glyph glyph-name="umacron" unicode="&#x16b;" horiz-adv-x="460" 
d="M117 561q-26 0 -26 20v44q0 20 26 20h224q15 0 20.5 -4.5t5.5 -15.5v-44q0 -11 -5.5 -15.5t-20.5 -4.5h-224zM206 -5q-74 0 -117 41.5t-43 122.5v306q0 15 15 15h70q15 0 15 -15v-280q0 -40 20.5 -66t62.5 -26q49 0 67 24.5t18 67.5v280q0 15 15 15h70q15 0 15 -15v-450
q0 -15 -15 -15h-60q-15 0 -15 15v13q0 5 -5 5q-3 0 -16 -9.5t-38 -19t-59 -9.5z" />
    <glyph glyph-name="Ubreve" unicode="&#x16c;" 
d="M155 879q0 18 12 18h48q14 0 14 -15q0 -36 38 -36q36 0 36 36q0 15 13 15h47q13 0 13 -18q0 -43 -30 -66.5t-82 -23.5q-51 0 -80 23t-29 67zM55 184v551q0 15 15 15h76q15 0 15 -15v-527q0 -56 27.5 -84.5t74.5 -28.5t74.5 28.5t27.5 84.5v527q0 15 15 15h76q15 0 15 -15
v-551q0 -87 -58 -138t-150 -51t-150 51t-58 138z" />
    <glyph glyph-name="ubreve" unicode="&#x16d;" horiz-adv-x="460" 
d="M94 662q0 15 17 15h38q19 0 19 -15q0 -23 18.5 -36t43.5 -13t43 13t18 36q0 15 18 15h37q18 0 18 -15q0 -54 -40.5 -84t-95.5 -30q-54 0 -94 30t-40 84zM206 -5q-74 0 -117 41.5t-43 122.5v306q0 15 15 15h70q15 0 15 -15v-280q0 -40 20.5 -66t62.5 -26q49 0 67 24.5
t18 67.5v280q0 15 15 15h70q15 0 15 -15v-450q0 -15 -15 -15h-60q-15 0 -15 15v13q0 5 -5 5q-3 0 -16 -9.5t-38 -19t-59 -9.5z" />
    <glyph glyph-name="Uring" unicode="&#x16e;" 
d="M264 765q-41 0 -70.5 29.5t-29.5 70.5q0 42 29.5 71.5t70.5 29.5q42 0 71.5 -29.5t29.5 -71.5q0 -41 -29.5 -70.5t-71.5 -29.5zM264 828q16 0 27 10.5t11 26.5q0 17 -11 27.5t-27 10.5t-26.5 -11t-10.5 -27t10.5 -26.5t26.5 -10.5zM55 184v551q0 15 15 15h76q15 0 15 -15
v-527q0 -56 27.5 -84.5t74.5 -28.5t74.5 28.5t27.5 84.5v527q0 15 15 15h76q15 0 15 -15v-551q0 -87 -58 -138t-150 -51t-150 51t-58 138z" />
    <glyph glyph-name="uring" unicode="&#x16f;" horiz-adv-x="460" 
d="M229 515q-41 0 -70.5 29.5t-29.5 70.5q0 42 29.5 71.5t70.5 29.5q42 0 71.5 -29.5t29.5 -71.5q0 -41 -29.5 -70.5t-71.5 -29.5zM229 578q16 0 27 10.5t11 26.5q0 17 -10.5 27.5t-27.5 10.5q-16 0 -26.5 -11t-10.5 -27t10.5 -26.5t26.5 -10.5zM206 -5q-74 0 -117 41.5
t-43 122.5v306q0 15 15 15h70q15 0 15 -15v-280q0 -40 20.5 -66t62.5 -26q49 0 67 24.5t18 67.5v280q0 15 15 15h70q15 0 15 -15v-450q0 -15 -15 -15h-60q-15 0 -15 15v13q0 5 -5 5q-3 0 -16 -9.5t-38 -19t-59 -9.5z" />
    <glyph glyph-name="Uhungarumlaut" unicode="&#x170;" 
d="M162 788q-7 0 -11 4t-2 10l30 80q5 15 19 15h67q8 0 11.5 -6.5t-2.5 -15.5l-51 -66q-16 -21 -29 -21h-32zM302 788q-7 0 -11 4t-2 10l30 80q5 15 19 15h67q8 0 11.5 -6.5t-2.5 -15.5l-51 -66q-16 -21 -29 -21h-32zM55 184v551q0 15 15 15h76q15 0 15 -15v-527
q0 -56 27.5 -84.5t74.5 -28.5t74.5 28.5t27.5 84.5v527q0 15 15 15h76q15 0 15 -15v-551q0 -87 -58 -138t-150 -51t-150 51t-58 138z" />
    <glyph glyph-name="uhungarumlaut" unicode="&#x171;" horiz-adv-x="460" 
d="M136 548q-24 0 -19 21l30 107q4 13 7.5 17t15.5 4h62q8 0 12 -5.5t0 -14.5l-48 -108q-9 -21 -29 -21h-31zM276 548q-24 0 -19 21l30 107q4 13 7.5 17t15.5 4h62q8 0 12 -5.5t0 -14.5l-48 -108q-9 -21 -29 -21h-31zM206 -5q-74 0 -117 41.5t-43 122.5v306q0 15 15 15h70
q15 0 15 -15v-280q0 -40 20.5 -66t62.5 -26q49 0 67 24.5t18 67.5v280q0 15 15 15h70q15 0 15 -15v-450q0 -15 -15 -15h-60q-15 0 -15 15v13q0 5 -5 5q-3 0 -16 -9.5t-38 -19t-59 -9.5z" />
    <glyph glyph-name="Uogonek" unicode="&#x172;" 
d="M340 -145q-58 -7 -99.5 12t-41.5 66q0 35 26 61q8 8 -2 10q-79 10 -123.5 59t-44.5 126v546q0 15 15 15h76q15 0 15 -15v-522q0 -56 27.5 -84.5t74.5 -28.5t74.5 28.5t27.5 84.5v522q0 15 15 15h76q15 0 15 -15v-546q0 -74 -40.5 -122t-111.5 -62q-33 -7 -33 -35
q0 -29 54 -29q15 0 15 -15v-56q0 -13 -15 -15z" />
    <glyph glyph-name="uogonek" unicode="&#x173;" horiz-adv-x="460" 
d="M399 -145q-66 -7 -103.5 13.5t-37.5 62.5q0 22 9.5 39t19.5 24.5t26 16.5q11 6 11 14v8q0 5 -5 5q-3 0 -16 -9.5t-38 -19t-59 -9.5q-74 0 -117 41.5t-43 122.5v301q0 15 15 15h70q15 0 15 -15v-275q0 -40 20.5 -66t62.5 -26q49 0 67 24.5t18 67.5v275q0 15 15 15h70
q15 0 15 -15v-450q0 -12 -15 -15q-14 -3 -20.5 -5t-15 -9.5t-8.5 -18.5q0 -26 44 -26q15 0 15 -15v-56q0 -13 -15 -15z" />
    <glyph glyph-name="Wcircumflex" unicode="&#x174;" horiz-adv-x="729" 
d="M249 788q-12 0 -15.5 6t4.5 14l86 82q6 7 21 7h41q13 0 20 -7l84 -82q7 -7 4.5 -13.5t-14.5 -6.5h-68q-10 0 -17 12l-25 39q-5 8 -10 0l-25 -39q-7 -12 -18 -12h-68zM201 0q-16 0 -21.5 4t-7.5 17l-144 708q-2 11 3 16t19 5h54q14 0 20 -4t8 -17l85 -463q1 -4 5.5 -4
t5.5 4l86 463q2 12 8.5 16.5t20.5 4.5h43q14 0 20.5 -4.5t8.5 -16.5l86 -463q1 -4 5.5 -4t5.5 4l85 463q3 21 28 21h54q14 0 19 -5t3 -16l-144 -708q-2 -13 -7.5 -17t-21.5 -4h-37q-17 0 -22.5 4t-7.5 17l-91 424q-1 5 -5.5 5t-5.5 -5l-91 -424q-2 -13 -7.5 -17t-22.5 -4
h-37z" />
    <glyph glyph-name="wcircumflex" unicode="&#x175;" horiz-adv-x="641" 
d="M205 548q-12 0 -15 6t5 14l93 102q6 7 21 7h25q13 0 19 -7l93 -102q7 -8 4.5 -14t-14.5 -6h-68q-11 0 -17 12l-25 39q-5 8 -10 0l-25 -39q-6 -12 -18 -12h-68zM179 0q-15 0 -20 3.5t-8 14.5l-125 445q-3 11 3 14t19 3h54q10 0 14.5 -0.5t8.5 -4t6 -10.5l65 -251
q2 -4 5 -4t5 4l63 251q4 15 18 15h67q14 0 18 -15l63 -251q1 -4 5 -4t5 4l65 251q2 7 6 10.5t8.5 4t14.5 0.5h54q9 0 13 -0.5t7.5 -4.5t1.5 -12l-125 -445q-4 -12 -8.5 -15t-19.5 -3h-45q-15 0 -20 3.5t-8 14.5l-63 236q-2 4 -6 4t-5 -4l-63 -236q-3 -11 -8 -14.5t-20 -3.5
h-45z" />
    <glyph glyph-name="Ycircumflex" unicode="&#x176;" horiz-adv-x="474" 
d="M121 788q-12 0 -15.5 6t4.5 14l86 82q6 7 21 7h41q13 0 20 -7l84 -82q7 -7 4.5 -13.5t-14.5 -6.5h-68q-10 0 -17 12l-25 39q-5 8 -10 0l-25 -39q-7 -12 -18 -12h-68zM199 0q-16 0 -16 15v254q0 5 -2 13l-151 452q-2 7 2 11.5t12 4.5h67q20 0 25 -15l96 -297q2 -4 6 -4
t5 4l96 297q5 15 25 15h67q19 0 14 -16l-150 -452q-3 -12 -3 -13v-254q0 -15 -15 -15h-78z" />
    <glyph glyph-name="ycircumflex" unicode="&#x177;" horiz-adv-x="433" 
d="M100 548q-12 0 -15 6t5 14l93 102q6 7 21 7h25q13 0 19 -7l93 -102q7 -8 4.5 -14t-14.5 -6h-68q-11 0 -17 12l-25 39q-5 8 -10 0l-25 -39q-6 -12 -18 -12h-68zM108 -250q-11 0 -15.5 0.5t-9 4.5t0.5 13l78 240q2 8 0 16l-136 439q-3 11 3 14t19 3h49q10 0 14.5 -0.5
t8.5 -4t6 -10.5l85 -281q1 -4 5 -4t5 4l86 281q2 7 6 10.5t8 4t14 0.5h50q9 0 13 -0.5t7.5 -4.5t1.5 -12l-218 -695q-4 -11 -9 -14.5t-19 -3.5h-53z" />
    <glyph glyph-name="Ydieresis" unicode="&#x178;" horiz-adv-x="474" 
d="M138 788q-28 0 -46.5 18.5t-18.5 46.5q0 27 18.5 46t46.5 19q27 0 46 -19t19 -46q0 -28 -19 -46.5t-46 -18.5zM338 788q-28 0 -46.5 18.5t-18.5 46.5q0 27 18.5 46t46.5 19q27 0 46 -19t19 -46q0 -28 -19 -46.5t-46 -18.5zM199 0q-16 0 -16 15v254q0 5 -2 13l-151 452
q-2 7 2 11.5t12 4.5h67q20 0 25 -15l96 -297q2 -4 6 -4t5 4l96 297q5 15 25 15h67q19 0 14 -16l-150 -452q-3 -12 -3 -13v-254q0 -15 -15 -15h-78z" />
    <glyph glyph-name="Zacute" unicode="&#x179;" horiz-adv-x="430" 
d="M196 788q-7 0 -11 4t-2 10l30 80q5 15 19 15h67q8 0 11.5 -6.5t-2.5 -15.5l-51 -66q-16 -21 -29 -21h-32zM58 0q-15 0 -15 15v72q0 9 6 24l223 530q4 9 -5 9h-209q-15 0 -15 15v70q0 15 15 15h314q15 0 15 -15v-72q0 -13 -6 -27l-224 -527q-4 -9 5 -9h210q15 0 15 -16
v-69q0 -15 -15 -15h-314z" />
    <glyph glyph-name="zacute" unicode="&#x17a;" horiz-adv-x="422" 
d="M195 548q-24 0 -19 21l30 107q4 13 8 17t15 4h62q8 0 12 -5.5t0 -14.5l-48 -108q-9 -21 -29 -21h-31zM56 0q-11 0 -15.5 4.5t-4.5 15.5v61q0 18 9 28l222 268q3 3 2 6t-5 3h-208q-11 0 -15.5 4.5t-4.5 15.5v54q0 11 4.5 15.5t15.5 4.5h310q12 0 16 -4.5t4 -15.5v-60
q0 -17 -8 -27l-223 -270q-3 -3 -2 -6t5 -3h208q11 0 15.5 -4.5t4.5 -15.5v-54q0 -11 -4.5 -15.5t-15.5 -4.5h-310z" />
    <glyph glyph-name="Zdotaccent" unicode="&#x17b;" horiz-adv-x="430" 
d="M213 788q-28 0 -46.5 18.5t-18.5 46.5q0 27 18.5 46t46.5 19q27 0 46 -19t19 -46q0 -28 -19 -46.5t-46 -18.5zM58 0q-15 0 -15 15v72q0 9 6 24l223 530q4 9 -5 9h-209q-15 0 -15 15v70q0 15 15 15h314q15 0 15 -15v-72q0 -13 -6 -27l-224 -527q-4 -9 5 -9h210
q15 0 15 -16v-69q0 -15 -15 -15h-314z" />
    <glyph glyph-name="zdotaccent" unicode="&#x17c;" horiz-adv-x="422" 
d="M211 548q-28 0 -46.5 18.5t-18.5 46.5q0 27 18.5 46t46.5 19q27 0 46 -19t19 -46q0 -28 -19 -46.5t-46 -18.5zM56 0q-11 0 -15.5 4.5t-4.5 15.5v61q0 18 9 28l222 268q3 3 2 6t-5 3h-208q-11 0 -15.5 4.5t-4.5 15.5v54q0 11 4.5 15.5t15.5 4.5h310q12 0 16 -4.5t4 -15.5
v-60q0 -17 -8 -27l-223 -270q-3 -3 -2 -6t5 -3h208q11 0 15.5 -4.5t4.5 -15.5v-54q0 -11 -4.5 -15.5t-15.5 -4.5h-310z" />
    <glyph glyph-name="Zcaron" unicode="&#x17d;" horiz-adv-x="430" 
d="M97 897h68q11 0 18 -12l25 -39q5 -8 10 0l25 39q8 12 17 12h68q12 0 14.5 -6.5t-4.5 -13.5l-84 -82q-7 -7 -20 -7h-41q-15 0 -21 7l-86 82q-8 7 -4.5 13.5t15.5 6.5zM58 0q-15 0 -15 15v72q0 9 6 24l223 530q4 9 -5 9h-209q-15 0 -15 15v70q0 15 15 15h314q15 0 15 -15
v-72q0 -13 -6 -27l-224 -527q-4 -9 5 -9h210q15 0 15 -16v-69q0 -15 -15 -15h-314z" />
    <glyph glyph-name="zcaron" unicode="&#x17e;" horiz-adv-x="422" 
d="M199 548q-15 0 -21 7l-93 102q-7 7 -4.5 13.5t14.5 6.5h68q12 0 18 -12l25 -39q6 -9 11 0l24 39q7 12 18 12h67q12 0 15 -6.5t-4 -13.5l-93 -102q-6 -7 -20 -7h-25zM56 0q-11 0 -15.5 4.5t-4.5 15.5v61q0 18 9 28l222 268q3 3 2 6t-5 3h-208q-11 0 -15.5 4.5t-4.5 15.5
v54q0 11 4.5 15.5t15.5 4.5h310q12 0 16 -4.5t4 -15.5v-60q0 -17 -8 -27l-223 -270q-3 -3 -2 -6t5 -3h208q11 0 15.5 -4.5t4.5 -15.5v-54q0 -11 -4.5 -15.5t-15.5 -4.5h-310z" />
    <glyph glyph-name="AEacute" unicode="&#x1fc;" horiz-adv-x="685" 
d="M380 788q-7 0 -11 4t-2 10l30 80q5 15 19 15h67q8 0 11.5 -6.5t-2.5 -15.5l-51 -66q-16 -21 -29 -21h-32zM40 0q-20 0 -13 17l304 715q5 11 8 14.5t10 3.5h281q15 0 15 -15v-64q0 -15 -15 -15h-176q-15 0 -15 -15v-200q0 -15 15 -15h176q15 0 15 -15v-64q0 -15 -15 -15
h-176q-15 0 -15 -15v-208q0 -15 15 -15h176q15 0 15 -15v-64q0 -15 -15 -15h-282q-14 0 -14 16v68q0 15 -15 15h-142q-14 0 -20 -15l-29 -69q-7 -15 -20 -15h-68zM211 193h116q7 0 7 11v292q0 5 -5 4q-2 -1 -3 -4l-122 -292q-6 -11 7 -11z" />
    <glyph glyph-name="aeacute" unicode="&#x1fd;" horiz-adv-x="704" 
d="M333 548q-24 0 -19 21l30 107q4 13 8 17t15 4h62q8 0 12 -5.5t0 -14.5l-48 -108q-9 -21 -29 -21h-31zM34 139v30q0 36 31.5 65.5t93.5 29.5h124q19 0 19 15v25q0 83 -84 83q-39 0 -61.5 -16t-22.5 -37q0 -15 -19 -15h-61q-20 0 -20 15v17q0 65 48 99.5t136 34.5
q81 0 121 -24q13 -8 25 0q46 24 122 24q87 0 135.5 -40.5t48.5 -113.5v-100q0 -15 -19 -15h-229q-20 0 -20 -15v-25q0 -83 84 -83q39 0 61.5 16t22.5 37q0 15 20 15h61q19 0 19 -15v-17q0 -65 -48 -99.5t-136 -34.5q-85 0 -121 24q-12 8 -25 1q-44 -25 -122 -25
q-88 0 -136 36t-48 108zM402 309q0 -15 20 -15h128q19 0 19 15v10q0 32 -21.5 50t-61.5 18t-62 -18t-22 -50v-10zM135 161q0 -32 21.5 -50t61.5 -18t62 18t22 50v10q0 15 -19 15h-129q-19 0 -19 -15v-10z" />
    <glyph glyph-name="Scommaaccent" unicode="&#x218;" horiz-adv-x="521" 
d="M53 164v37q0 15 15 15h76q15 0 15 -15v-13q0 -43 28 -68t74 -25q45 0 73.5 25t28.5 68v13q0 17 -6.5 31.5t-21.5 28t-28.5 23t-40 26t-42.5 27.5q-5 4 -30 20.5t-32 22l-27.5 21t-27.5 24l-21 25t-19 30t-9.5 31.5t-4.5 38v37q0 73 59 121t149 48t148.5 -48t58.5 -121
v-37q0 -15 -14 -15h-77q-14 0 -14 15v13q0 43 -28.5 68t-73.5 25t-73.5 -25t-28.5 -68v-13q0 -17 5 -30.5t19.5 -27t26 -22t40 -26.5t45.5 -30l33 -22.5t35.5 -24.5t30.5 -24t30.5 -30t21.5 -31t17 -38t5 -42v-37q0 -73 -58.5 -121t-148.5 -48t-149 48t-59 121zM235 -281
l-22 16q-10 8 -4 15q37 45 37 76q0 18 -25 40.5t-25 48.5q0 28 17.5 45t47.5 17q32 0 51 -25.5t19 -64.5q0 -42 -21.5 -88t-59.5 -77q-8 -7 -15 -3z" />
    <glyph glyph-name="scommaaccent" unicode="&#x219;" horiz-adv-x="416" 
d="M34 144v12q0 15 20 15h61q19 0 19 -15q0 -27 19 -47.5t56 -20.5q35 0 51.5 15.5t16.5 39.5t-25 36t-60.5 18t-71.5 16.5t-61 40.5t-25 81q0 68 45 109t129 41q83 0 128.5 -42.5t45.5 -106.5v-12q0 -15 -19 -15h-61q-20 0 -20 15q0 27 -18.5 47.5t-55.5 20.5
q-35 0 -52 -15t-17 -39t25 -36t60.5 -18.5t71.5 -17t61 -40.5t25 -81q0 -68 -44.5 -109t-128.5 -41q-83 0 -129 42.5t-46 106.5zM183 -281l-22 16q-10 8 -4 15q37 45 37 76q0 18 -25 40.5t-25 48.5q0 28 17.5 45t47.5 17q32 0 51 -25.5t19 -64.5q0 -42 -21.5 -88t-59.5 -77
q-8 -7 -15 -3z" />
    <glyph glyph-name="uni021A" unicode="&#x21a;" horiz-adv-x="399" 
d="M31 665v70q0 15 15 15h307q15 0 15 -15v-70q0 -15 -15 -15h-86q-15 0 -15 -15v-620q0 -15 -15 -15h-75q-15 0 -15 15v620q0 15 -15 15h-86q-15 0 -15 15zM175 -281l-22 16q-10 8 -4 15q37 45 37 76q0 18 -25 40.5t-25 48.5q0 28 17.5 45t47.5 17q32 0 51 -25.5t19 -64.5
q0 -42 -21.5 -88t-59.5 -77q-8 -7 -15 -3z" />
    <glyph glyph-name="uni021B" unicode="&#x21b;" horiz-adv-x="362" 
d="M15 405v60q0 15 15 15h50q15 0 15 15v88q0 15 15 15h70q15 0 15 -15v-88q0 -15 15 -15h74q15 0 15 -15v-60q0 -15 -15 -15h-74q-15 0 -15 -15v-184q0 -93 85 -93q19 0 19 -16v-67q0 -15 -19 -15q-87 0 -136 43.5t-49 120.5v211q0 15 -15 15h-50q-15 0 -15 15zM176 -281
l-22 16q-10 8 -4 15q37 45 37 76q0 18 -25 40.5t-25 48.5q0 28 17.5 45t47.5 17q32 0 51 -25.5t19 -64.5q0 -42 -21.5 -88t-59.5 -77q-8 -7 -15 -3z" />
    <glyph glyph-name="uni0237" unicode="&#x237;" horiz-adv-x="219" 
d="M-50 -235v67q0 16 19 16q85 0 85 93v524q0 15 15 15h70q15 0 15 -15v-551q0 -77 -49 -120.5t-136 -43.5q-19 0 -19 15z" />
    <glyph glyph-name="circumflex" unicode="&#x2c6;" horiz-adv-x="302" 
d="M36 548q-12 0 -15 6t5 14l93 102q6 7 21 7h25q13 0 19 -7l93 -102q7 -8 4.5 -14t-14.5 -6h-68q-11 0 -17 12l-25 39q-5 8 -10 0l-25 -39q-6 -12 -18 -12h-68z" />
    <glyph glyph-name="caron" unicode="&#x2c7;" horiz-adv-x="287" 
d="M132 548q-15 0 -21 7l-93 102q-7 7 -4.5 13.5t14.5 6.5h68q12 0 18 -12l25 -39q5 -9 11 0l24 39q8 12 18 12h67q12 0 15 -6.5t-4 -13.5l-93 -102q-6 -7 -20 -7h-25z" />
    <glyph glyph-name="breve" unicode="&#x2d8;" horiz-adv-x="342" 
d="M36 662q0 15 17 15h38q19 0 19 -15q0 -23 18.5 -36t43.5 -13t43 13t18 36q0 15 18 15h37q18 0 18 -15q0 -54 -40.5 -84t-95.5 -30q-54 0 -94 30t-40 84z" />
    <glyph glyph-name="dotaccent" unicode="&#x2d9;" horiz-adv-x="208" 
d="M104 548q-28 0 -46.5 18.5t-18.5 46.5q0 27 18.5 46t46.5 19q27 0 46 -19t19 -46q0 -28 -19 -46.5t-46 -18.5z" />
    <glyph glyph-name="ring" unicode="&#x2da;" horiz-adv-x="235" 
d="M117 515q-41 0 -70.5 29.5t-29.5 70.5q0 42 29.5 71.5t70.5 29.5q42 0 71.5 -29.5t29.5 -71.5q0 -41 -29.5 -70.5t-71.5 -29.5zM117 578q16 0 27 10.5t11 26.5q0 17 -10.5 27.5t-27.5 10.5q-16 0 -26.5 -11t-10.5 -27t10.5 -26.5t26.5 -10.5z" />
    <glyph glyph-name="ogonek" unicode="&#x2db;" horiz-adv-x="176" 
d="M141 -145q-54 -8 -92.5 13.5t-38.5 66.5q0 25 15 45.5t29 27.5l15 8h78q-6 -2 -14 -5.5t-22 -15.5t-14 -25q0 -29 49 -29q20 0 20 -15v-56q0 -12 -25 -15z" />
    <glyph glyph-name="tilde" unicode="&#x2dc;" horiz-adv-x="371" 
d="M25 548q-15 0 -15 15q0 55 28.5 84.5t73.5 29.5q41 0 80.5 -25.5t55.5 -25.5q18 0 28.5 9.5t10.5 26.5q0 15 17 15h41q16 0 16 -15q0 -55 -28.5 -84.5t-73.5 -29.5q-41 0 -81 25.5t-56 25.5q-17 0 -27.5 -10t-10.5 -26q0 -15 -17 -15h-42z" />
    <glyph glyph-name="hungarumlaut" unicode="&#x2dd;" horiz-adv-x="327" 
d="M43 548q-24 0 -19 21l30 107q4 13 8 17t15 4h62q8 0 12 -5.5t0 -14.5l-48 -108q-9 -21 -29 -21h-31zM183 548q-24 0 -19 21l30 107q4 13 8 17t15 4h62q8 0 12 -5.5t0 -14.5l-48 -108q-9 -21 -29 -21h-31z" />
    <glyph glyph-name="gravecomb" unicode="&#x300;" horiz-adv-x="0" 
d="M1 518h-32q-13 0 -29 21l-51 66q-6 9 -2.5 15.5t11.5 6.5h67q14 0 19 -15l30 -80q2 -6 -2 -10t-11 -4z" />
    <glyph glyph-name="acutecomb" unicode="&#x301;" horiz-adv-x="0" 
d="M-126 518q-7 0 -11 4t-2 10l30 80q5 15 19 15h67q8 0 11.5 -6.5t-2.5 -15.5l-51 -66q-16 -21 -29 -21h-32z" />
    <glyph glyph-name="uni0302" unicode="&#x302;" horiz-adv-x="0" 
d="M-744 518q-12 0 -15.5 6t4.5 14l86 82q6 7 21 7h41q13 0 20 -7l84 -82q7 -7 4.5 -13.5t-14.5 -6.5h-68q-9 0 -17 12l-25 39q-5 8 -10 0l-25 -39q-8 -12 -18 -12h-68z" />
    <glyph glyph-name="tildecomb" unicode="&#x303;" horiz-adv-x="0" 
d="M-351 428q-18 0 -18 12q0 55 28.5 84t73.5 29q41 0 80.5 -21.5t55.5 -21.5q18 0 28.5 9t10.5 22q0 12 19 12h36q19 0 19 -12q0 -54 -28.5 -83.5t-73.5 -29.5q-41 0 -81 22t-56 22q-17 0 -27.5 -9t-10.5 -23q0 -12 -20 -12h-36z" />
    <glyph glyph-name="uni0304" unicode="&#x304;" horiz-adv-x="0" 
d="M-268 531q-26 0 -26 20v44q0 20 26 20h224q15 0 20.5 -4.5t5.5 -15.5v-44q0 -11 -5.5 -15.5t-20.5 -4.5h-224z" />
    <glyph glyph-name="uni0306" unicode="&#x306;" horiz-adv-x="0" 
d="M-719 609q0 18 12 18h48q14 0 14 -15q0 -36 38 -36q36 0 36 36q0 15 13 15h47q13 0 13 -18q0 -43 -30 -66.5t-82 -23.5q-51 0 -80 23t-29 67z" />
    <glyph glyph-name="uni0307" unicode="&#x307;" horiz-adv-x="0" 
d="M-104 518q-28 0 -46.5 18.5t-18.5 46.5q0 27 18.5 46t46.5 19q27 0 46 -19t19 -46q0 -28 -19 -46.5t-46 -18.5z" />
    <glyph glyph-name="uni0308" unicode="&#x308;" horiz-adv-x="0" 
d="M-285 518q-28 0 -46.5 18.5t-18.5 46.5q0 27 18.5 46t46.5 19q27 0 46 -19t19 -46q0 -28 -19 -46.5t-46 -18.5zM-85 518q-28 0 -46.5 18.5t-18.5 46.5q0 27 18.5 46t46.5 19q27 0 46 -19t19 -46q0 -28 -19 -46.5t-46 -18.5z" />
    <glyph glyph-name="uni030A" unicode="&#x30a;" horiz-adv-x="0" 
d="M-118 495q-41 0 -70.5 29.5t-29.5 70.5q0 42 29.5 71.5t70.5 29.5q42 0 71.5 -29.5t29.5 -71.5q0 -41 -29.5 -70.5t-71.5 -29.5zM-118 558q16 0 27 10.5t11 26.5q0 17 -11 27.5t-27 10.5t-26.5 -11t-10.5 -27t10.5 -26.5t26.5 -10.5z" />
    <glyph glyph-name="uni030B" unicode="&#x30b;" horiz-adv-x="0" 
d="M-577 518q-7 0 -11 4t-2 10l30 80q5 15 19 15h67q8 0 11.5 -6.5t-2.5 -15.5l-51 -66q-16 -21 -29 -21h-32zM-437 518q-7 0 -11 4t-2 10l30 80q5 15 19 15h67q8 0 11.5 -6.5t-2.5 -15.5l-51 -66q-16 -21 -29 -21h-32z" />
    <glyph glyph-name="uni030C" unicode="&#x30c;" horiz-adv-x="0" 
d="M-564 627h68q10 0 18 -12l25 -39q5 -8 10 0l25 39q7 12 17 12h68q12 0 14.5 -6.5t-4.5 -13.5l-84 -82q-7 -7 -20 -7h-41q-15 0 -21 7l-86 82q-8 7 -4.5 13.5t15.5 6.5z" />
    <glyph glyph-name="Wgrave" unicode="&#x1e80;" horiz-adv-x="729" 
d="M382 788h-32q-13 0 -29 21l-51 66q-6 9 -2.5 15.5t11.5 6.5h67q14 0 19 -15l30 -80q2 -6 -2 -10t-11 -4zM201 0q-16 0 -21.5 4t-7.5 17l-144 708q-2 11 3 16t19 5h54q14 0 20 -4t8 -17l85 -463q1 -4 5.5 -4t5.5 4l86 463q2 12 8.5 16.5t20.5 4.5h43q14 0 20.5 -4.5
t8.5 -16.5l86 -463q1 -4 5.5 -4t5.5 4l85 463q3 21 28 21h54q14 0 19 -5t3 -16l-144 -708q-2 -13 -7.5 -17t-21.5 -4h-37q-17 0 -22.5 4t-7.5 17l-91 424q-1 5 -5.5 5t-5.5 -5l-91 -424q-2 -13 -7.5 -17t-22.5 -4h-37z" />
    <glyph glyph-name="wgrave" unicode="&#x1e81;" horiz-adv-x="641" 
d="M337 548h-31q-20 0 -29 21l-48 108q-4 9 0 14.5t12 5.5h62q11 0 15 -4t8 -17l30 -107q5 -21 -19 -21zM179 0q-15 0 -20 3.5t-8 14.5l-125 445q-3 11 3 14t19 3h54q10 0 14.5 -0.5t8.5 -4t6 -10.5l65 -251q2 -4 5 -4t5 4l63 251q4 15 18 15h67q14 0 18 -15l63 -251
q1 -4 5 -4t5 4l65 251q2 7 6 10.5t8.5 4t14.5 0.5h54q9 0 13 -0.5t7.5 -4.5t1.5 -12l-125 -445q-4 -12 -8.5 -15t-19.5 -3h-45q-15 0 -20 3.5t-8 14.5l-63 236q-2 4 -6 4t-5 -4l-63 -236q-3 -11 -8 -14.5t-20 -3.5h-45z" />
    <glyph glyph-name="Wacute" unicode="&#x1e82;" horiz-adv-x="729" 
d="M348 788q-7 0 -11 4t-2 10l30 80q5 15 19 15h67q8 0 11.5 -6.5t-2.5 -15.5l-51 -66q-16 -21 -29 -21h-32zM201 0q-16 0 -21.5 4t-7.5 17l-144 708q-2 11 3 16t19 5h54q14 0 20 -4t8 -17l85 -463q1 -4 5.5 -4t5.5 4l86 463q2 12 8.5 16.5t20.5 4.5h43q14 0 20.5 -4.5
t8.5 -16.5l86 -463q1 -4 5.5 -4t5.5 4l85 463q3 21 28 21h54q14 0 19 -5t3 -16l-144 -708q-2 -13 -7.5 -17t-21.5 -4h-37q-17 0 -22.5 4t-7.5 17l-91 424q-1 5 -5.5 5t-5.5 -5l-91 -424q-2 -13 -7.5 -17t-22.5 -4h-37z" />
    <glyph glyph-name="wacute" unicode="&#x1e83;" horiz-adv-x="641" 
d="M305 548q-24 0 -19 21l30 107q4 13 8 17t15 4h62q8 0 12 -5.5t0 -14.5l-48 -108q-9 -21 -29 -21h-31zM179 0q-15 0 -20 3.5t-8 14.5l-125 445q-3 11 3 14t19 3h54q10 0 14.5 -0.5t8.5 -4t6 -10.5l65 -251q2 -4 5 -4t5 4l63 251q4 15 18 15h67q14 0 18 -15l63 -251
q1 -4 5 -4t5 4l65 251q2 7 6 10.5t8.5 4t14.5 0.5h54q9 0 13 -0.5t7.5 -4.5t1.5 -12l-125 -445q-4 -12 -8.5 -15t-19.5 -3h-45q-15 0 -20 3.5t-8 14.5l-63 236q-2 4 -6 4t-5 -4l-63 -236q-3 -11 -8 -14.5t-20 -3.5h-45z" />
    <glyph glyph-name="Wdieresis" unicode="&#x1e84;" horiz-adv-x="729" 
d="M266 788q-28 0 -46.5 18.5t-18.5 46.5q0 27 18.5 46t46.5 19q27 0 46 -19t19 -46q0 -28 -19 -46.5t-46 -18.5zM466 788q-28 0 -46.5 18.5t-18.5 46.5q0 27 18.5 46t46.5 19q27 0 46 -19t19 -46q0 -28 -19 -46.5t-46 -18.5zM201 0q-16 0 -21.5 4t-7.5 17l-144 708
q-2 11 3 16t19 5h54q14 0 20 -4t8 -17l85 -463q1 -4 5.5 -4t5.5 4l86 463q2 12 8.5 16.5t20.5 4.5h43q14 0 20.5 -4.5t8.5 -16.5l86 -463q1 -4 5.5 -4t5.5 4l85 463q3 21 28 21h54q14 0 19 -5t3 -16l-144 -708q-2 -13 -7.5 -17t-21.5 -4h-37q-17 0 -22.5 4t-7.5 17l-91 424
q-1 5 -5.5 5t-5.5 -5l-91 -424q-2 -13 -7.5 -17t-22.5 -4h-37z" />
    <glyph glyph-name="wdieresis" unicode="&#x1e85;" horiz-adv-x="641" 
d="M232 548q-28 0 -46.5 18.5t-18.5 46.5q0 27 18.5 46t46.5 19q27 0 46 -19t19 -46q0 -28 -19 -46.5t-46 -18.5zM412 548q-28 0 -46.5 18.5t-18.5 46.5q0 27 18.5 46t46.5 19q27 0 46 -19t19 -46q0 -28 -19 -46.5t-46 -18.5zM179 0q-15 0 -20 3.5t-8 14.5l-125 445
q-3 11 3 14t19 3h54q10 0 14.5 -0.5t8.5 -4t6 -10.5l65 -251q2 -4 5 -4t5 4l63 251q4 15 18 15h67q14 0 18 -15l63 -251q1 -4 5 -4t5 4l65 251q2 7 6 10.5t8.5 4t14.5 0.5h54q9 0 13 -0.5t7.5 -4.5t1.5 -12l-125 -445q-4 -12 -8.5 -15t-19.5 -3h-45q-15 0 -20 3.5t-8 14.5
l-63 236q-2 4 -6 4t-5 -4l-63 -236q-3 -11 -8 -14.5t-20 -3.5h-45z" />
    <glyph glyph-name="Ygrave" unicode="&#x1ef2;" horiz-adv-x="474" 
d="M254 788h-32q-13 0 -29 21l-51 66q-6 9 -2.5 15.5t11.5 6.5h67q14 0 19 -15l30 -80q2 -6 -2 -10t-11 -4zM199 0q-16 0 -16 15v254q0 5 -2 13l-151 452q-2 7 2 11.5t12 4.5h67q20 0 25 -15l96 -297q2 -4 6 -4t5 4l96 297q5 15 25 15h67q19 0 14 -16l-150 -452
q-3 -12 -3 -13v-254q0 -15 -15 -15h-78z" />
    <glyph glyph-name="ygrave" unicode="&#x1ef3;" horiz-adv-x="433" 
d="M232 548h-31q-20 0 -29 21l-48 108q-4 9 0 14.5t12 5.5h62q12 0 15.5 -4t7.5 -17l30 -107q5 -21 -19 -21zM108 -250q-11 0 -15.5 0.5t-9 4.5t0.5 13l78 240q2 8 0 16l-136 439q-3 11 3 14t19 3h49q10 0 14.5 -0.5t8.5 -4t6 -10.5l85 -281q1 -4 5 -4t5 4l86 281
q2 7 6 10.5t8 4t14 0.5h50q9 0 13 -0.5t7.5 -4.5t1.5 -12l-218 -695q-4 -11 -9 -14.5t-19 -3.5h-53z" />
    <glyph glyph-name="endash" unicode="&#x2013;" horiz-adv-x="559" 
d="M55 208q-15 0 -15 15v64q0 15 15 15h449q15 0 15 -15v-64q0 -15 -15 -15h-449z" />
    <glyph glyph-name="emdash" unicode="&#x2014;" horiz-adv-x="669" 
d="M55 208q-15 0 -15 15v64q0 15 15 15h559q15 0 15 -15v-64q0 -15 -15 -15h-559z" />
    <glyph glyph-name="quoteleft" unicode="&#x2018;" horiz-adv-x="149" 
d="M110 832l22 -16q10 -8 4 -15q-37 -45 -37 -76q0 -18 25 -40.5t25 -48.5q0 -28 -17.5 -45t-47.5 -17q-32 0 -51 25.5t-19 64.5q0 42 21.5 88t59.5 77q8 7 15 3z" />
    <glyph glyph-name="quoteright" unicode="&#x2019;" horiz-adv-x="149" 
d="M53 566l-22 16q-10 8 -4 15q37 45 37 76q0 18 -25 40.5t-25 48.5q0 28 17.5 45t47.5 17q32 0 51 -25.5t19 -64.5q0 -42 -21.5 -88t-59.5 -77q-8 -7 -15 -3z" />
    <glyph glyph-name="quotesinglbase" unicode="&#x201a;" horiz-adv-x="149" 
d="M53 -134l-22 16q-10 8 -4 15q37 45 37 76q0 18 -25 40.5t-25 48.5q0 28 17.5 45t47.5 17q32 0 51 -25.5t19 -64.5q0 -42 -21.5 -88t-59.5 -77q-8 -7 -15 -3z" />
    <glyph glyph-name="quotedblleft" unicode="&#x201c;" horiz-adv-x="299" 
d="M110 822l22 -16q10 -8 4 -15q-37 -45 -37 -76q0 -18 25 -40.5t25 -48.5q0 -28 -17.5 -45t-47.5 -17q-32 0 -51 25.5t-19 64.5q0 42 21.5 88t59.5 77q8 7 15 3zM260 822l22 -16q10 -8 4 -15q-37 -45 -37 -76q0 -18 25 -40.5t25 -48.5q0 -28 -17.5 -45t-47.5 -17
q-32 0 -51 25.5t-19 64.5q0 42 21.5 88t59.5 77q8 7 15 3z" />
    <glyph glyph-name="quotedblright" unicode="&#x201d;" horiz-adv-x="299" 
d="M53 566l-22 16q-10 8 -4 15q37 45 37 76q0 18 -25 40.5t-25 48.5q0 28 17.5 45t47.5 17q32 0 51 -25.5t19 -64.5q0 -42 -21.5 -88t-59.5 -77q-8 -7 -15 -3zM203 566l-22 16q-10 8 -4 15q37 45 37 76q0 18 -25 40.5t-25 48.5q0 28 17.5 45t47.5 17q32 0 51 -25.5t19 -64.5
q0 -42 -21.5 -88t-59.5 -77q-8 -7 -15 -3z" />
    <glyph glyph-name="quotedblbase" unicode="&#x201e;" horiz-adv-x="299" 
d="M53 -134l-22 16q-10 8 -4 15q37 45 37 76q0 18 -25 40.5t-25 48.5q0 28 17.5 45t47.5 17q32 0 51 -25.5t19 -64.5q0 -42 -21.5 -88t-59.5 -77q-8 -7 -15 -3zM203 -134l-22 16q-10 8 -4 15q37 45 37 76q0 18 -25 40.5t-25 48.5q0 28 17.5 45t47.5 17q32 0 51 -25.5
t19 -64.5q0 -42 -21.5 -88t-59.5 -77q-8 -7 -15 -3z" />
    <glyph glyph-name="dagger" unicode="&#x2020;" horiz-adv-x="385" 
d="M155 -250q-15 0 -15 15v728q0 15 -15 15h-70q-15 0 -15 15v64q0 15 15 15h70q15 0 15 15v118q0 15 15 15h75q15 0 15 -15v-118q0 -15 15 -15h70q15 0 15 -15v-64q0 -15 -15 -15h-70q-15 0 -15 -15v-728q0 -15 -15 -15h-75z" />
    <glyph glyph-name="bullet" unicode="&#x2022;" horiz-adv-x="262" 
d="M130 191q-45 0 -77.5 32t-32.5 78t32.5 78t77.5 32q47 0 79.5 -32t32.5 -78t-32.5 -78t-79.5 -32z" />
    <glyph glyph-name="ellipsis" unicode="&#x2026;" horiz-adv-x="471" 
d="M82 0q-26 0 -44 18t-18 44t18 44t44 18t44.5 -18t18.5 -44t-18.5 -44t-44.5 -18zM235 0q-26 0 -44 18t-18 44t18 44t44 18t44.5 -18t18.5 -44t-18.5 -44t-44.5 -18zM388 0q-26 0 -44 18t-18 44t18 44t44 18t44.5 -18t18.5 -44t-18.5 -44t-44.5 -18z" />
    <glyph glyph-name="perthousand" unicode="&#x2030;" horiz-adv-x="791" 
d="M120 549q-41 0 -70.5 29.5t-29.5 70.5q0 42 29.5 71.5t70.5 29.5q42 0 71.5 -29.5t29.5 -71.5q0 -41 -29.5 -70.5t-71.5 -29.5zM386 750h60q18 0 13 -15l-307 -720q-7 -15 -18 -15h-60q-8 0 -11.5 4t-0.5 11l307 720q5 15 17 15zM120 612q16 0 27 10.5t11 26.5
q0 17 -11 27.5t-27 10.5t-26.5 -11t-10.5 -27t10.5 -26.5t26.5 -10.5zM410 0q-41 0 -70.5 29.5t-29.5 70.5q0 42 29.5 71.5t70.5 29.5q42 0 71.5 -29.5t29.5 -71.5q0 -41 -29.5 -70.5t-71.5 -29.5zM670 0q-41 0 -70.5 29.5t-29.5 70.5q0 42 29.5 71.5t70.5 29.5
q42 0 71.5 -29.5t29.5 -71.5q0 -41 -29.5 -70.5t-71.5 -29.5zM410 63q16 0 27 10.5t11 26.5t-11 27t-27 11t-26.5 -11t-10.5 -27t10.5 -26.5t26.5 -10.5zM670 63q16 0 27 10.5t11 26.5t-11 27t-27 11t-26.5 -11t-10.5 -27t10.5 -26.5t26.5 -10.5z" />
    <glyph glyph-name="guilsinglleft" unicode="&#x2039;" horiz-adv-x="299" 
d="M254 88l-209 120q-15 9 -15 21v60q0 12 15 21l209 120q6 4 10.5 1.5t4.5 -9.5v-64q0 -14 -15 -22l-124 -70q-14 -7 0 -14l124 -70q15 -8 15 -21v-64q0 -7 -4.5 -10t-10.5 1z" />
    <glyph glyph-name="guilsinglright" unicode="&#x203a;" horiz-adv-x="299" 
d="M45 88q-6 -4 -10.5 -1t-4.5 10v64q0 13 15 21l124 70q14 7 0 14l-124 70q-15 8 -15 22v64q0 7 4.5 9.5t10.5 -1.5l209 -120q15 -9 15 -21v-60q0 -12 -15 -21z" />
    <glyph glyph-name="exclamdbl" unicode="&#x203c;" horiz-adv-x="458" 
d="M107 200q-15 0 -15 15l-20 520q0 15 15 15h75q15 0 15 -15l-20 -520q0 -15 -15 -15h-35zM320 200q-15 0 -15 15l-20 520q0 15 15 15h75q15 0 15 -15l-20 -520q0 -15 -15 -15h-35zM122 0q-26 0 -44 18t-18 44t18 44t44 18t44.5 -18t18.5 -44t-18.5 -44t-44.5 -18zM335 0
q-26 0 -44 18t-18 44t18 44t44 18t44.5 -18t18.5 -44t-18.5 -44t-44.5 -18z" />
    <glyph glyph-name="fraction" unicode="&#x2044;" horiz-adv-x="429" 
d="M314 700h60q8 0 11.5 -4t0.5 -11l-285 -670q-7 -15 -18 -15h-60q-8 0 -11.5 4t-0.5 11l285 670q7 15 18 15z" />
    <glyph glyph-name="uni2070" unicode="&#x2070;" horiz-adv-x="400" 
d="M62 472v155q0 59 38 92.5t100 33.5q61 0 99.5 -33.5t38.5 -92.5v-155q0 -59 -38.5 -93t-99.5 -34q-62 0 -100 33.5t-38 93.5zM150 484q0 -59 50 -59q23 0 36.5 15.5t13.5 43.5v130q0 28 -13.5 44t-36.5 16q-50 0 -50 -60v-130z" />
    <glyph glyph-name="uni2074" unicode="&#x2074;" horiz-adv-x="373" 
d="M207 342q-8 0 -8 9v67q0 9 -9 9h-165q-9 0 -9 8v61q0 10 3 14l180 235q3 5 12 5h67q9 0 9 -8v-229q0 -9 9 -9h39q8 0 8 -9v-60q0 -8 -9 -8h-38q-9 0 -9 -9v-67q0 -9 -9 -9h-71zM114 504h76q9 0 9 9v102q0 4 -3.5 4t-4.5 -2l-81 -106q-5 -7 4 -7z" />
    <glyph glyph-name="uni2075" unicode="&#x2075;" horiz-adv-x="399" 
d="M207 342q-61 0 -99 30t-38 79v10q0 9 8 9h71q9 0 9 -9v-4q0 -18 13.5 -30t35.5 -12q23 0 36.5 14t13.5 34v44q0 21 -13.5 34.5t-36.5 13.5t-36 -11.5t-13 -30.5v-4q0 -8 -9 -8h-71q-8 0 -8 8v233q0 8 8 8h246q9 0 9 -8v-61q0 -9 -9 -9h-158q-8 0 -8 -8v-40q0 -8 6 -5
q15 8 45 8q60 0 97.5 -31.5t37.5 -82.5v-56q0 -51 -38.5 -83t-98.5 -32z" />
    <glyph glyph-name="uni2076" unicode="&#x2076;" horiz-adv-x="385" 
d="M193 342q-60 0 -99 31t-39 80v180q0 51 38.5 84t99.5 33q60 0 98.5 -31t38.5 -82v-9q0 -8 -10 -8h-70q-9 0 -9 8v3q0 20 -13 33t-35 13q-23 0 -36 -13.5t-13 -33.5v-35q0 -8 6 -5q15 8 45 8q61 0 98 -30.5t37 -82.5v-29q0 -51 -38 -82.5t-99 -31.5zM193 415q22 0 35 12.5
t13 32.5v21q0 20 -13 32.5t-35 12.5t-35.5 -12.5t-13.5 -32.5v-21q0 -20 13.5 -32.5t35.5 -12.5z" />
    <glyph glyph-name="uni2077" unicode="&#x2077;" horiz-adv-x="307" 
d="M59 342q-12 0 -9 8l120 316q2 5 -3 5h-115q-9 0 -9 9v62q0 8 9 8h204q8 0 8 -8v-64q0 -8 -3 -15l-119 -313q-4 -8 -11 -8h-72z" />
    <glyph glyph-name="uni2078" unicode="&#x2078;" horiz-adv-x="385" 
d="M193 342q-60 0 -99 31.5t-39 79.5v23q0 50 34 73q5 3 0 6q-34 23 -34 70v18q0 45 39 76t99 31q59 0 98 -31t39 -76v-18q0 -23 -9 -44.5t-25 -25.5q-6 -1 0 -6q34 -24 34 -73v-23q0 -48 -38.5 -79.5t-98.5 -31.5zM193 587q22 0 36 12t14 32v3q0 20 -14 32t-36 12
q-23 0 -36.5 -12t-13.5 -32v-3q0 -20 13.5 -32t36.5 -12zM193 414q22 0 36 12t14 33v14q0 20 -14 32.5t-36 12.5q-23 0 -36.5 -12.5t-13.5 -32.5v-14q0 -21 13.5 -33t36.5 -12z" />
    <glyph glyph-name="uni2079" unicode="&#x2079;" horiz-adv-x="385" 
d="M192 750q60 0 99 -31t39 -80v-180q0 -51 -38.5 -84t-99.5 -33q-60 0 -98.5 31t-38.5 82v9q0 8 10 8h70q9 0 9 -8v-3q0 -20 13 -33t35 -13q23 0 36 13.5t13 33.5v35q0 8 -6 5q-15 -8 -45 -8q-61 0 -98 30.5t-37 82.5v29q0 51 38 82.5t99 31.5zM192 677q-22 0 -35 -12.5
t-13 -32.5v-21q0 -20 13 -32.5t35 -12.5t35.5 12.5t13.5 32.5v21q0 20 -13.5 32.5t-35.5 12.5z" />
    <glyph glyph-name="uni2080" unicode="&#x2080;" horiz-adv-x="400" 
d="M62 -73v155q0 59 38 92.5t100 33.5q61 0 99.5 -33.5t38.5 -92.5v-155q0 -59 -38.5 -93t-99.5 -34q-62 0 -100 33.5t-38 93.5zM150 -61q0 -59 50 -59q23 0 36.5 15.5t13.5 43.5v130q0 28 -13.5 44t-36.5 16q-50 0 -50 -60v-130z" />
    <glyph glyph-name="uni2081" unicode="&#x2081;" horiz-adv-x="278" 
d="M129 -200q-9 0 -9 9v273q0 8 -5 3l-38 -37q-6 -5 -11 0l-47 40q-7 8 -1 14l102 101q5 5 11 5h68q9 0 9 -8v-391q0 -9 -9 -9h-70z" />
    <glyph glyph-name="uni2082" unicode="&#x2082;" horiz-adv-x="370" 
d="M53 -191v91q0 21 8.5 39t27 33.5t30.5 23l36 21.5q5 3 7 4q10 6 25.5 13.5t22.5 12t15.5 10.5t11.5 12t3 14v5q0 17 -14 29t-35 12q-22 0 -35.5 -13t-13.5 -33v-4q0 -9 -9 -9h-71q-9 0 -9 9v16q0 51 38.5 82t99.5 31q60 0 98 -31.5t38 -82.5v-13q0 -22 -9 -41t-28.5 -35
t-32 -24t-37.5 -22q-7 -4 -18.5 -10t-17.5 -9.5l-14 -8.5t-12 -8.5l-8.5 -7.5t-6 -8.5t-1.5 -9.5v-12q0 -9 8 -9h162q8 0 8 -8v-59q0 -9 -8 -9h-250q-9 0 -9 9z" />
    <glyph glyph-name="uni2083" unicode="&#x2083;" horiz-adv-x="383" 
d="M190 -200q-61 0 -99 30.5t-38 81.5v11q0 9 9 9h70q9 0 9 -9v-5q0 -20 13.5 -32.5t35.5 -12.5q23 0 36.5 12.5t13.5 32.5v10q0 40 -57 40q-9 0 -9 10v58q0 9 9 9q57 0 57 38v8q0 20 -13 32t-37 12q-22 0 -35.5 -12t-13.5 -32v-6q0 -8 -9 -8h-70q-9 0 -9 8v12q0 50 38 80.5
t99 30.5t99.5 -30.5t38.5 -80.5v-19q0 -44 -39 -70q-2 -2 0 -4q15 -9 27 -28.5t12 -41.5v-22q0 -51 -38.5 -81.5t-99.5 -30.5z" />
    <glyph glyph-name="uni2084" unicode="&#x2084;" horiz-adv-x="373" 
d="M207 -200q-8 0 -8 9v67q0 9 -9 9h-165q-9 0 -9 8v61q0 10 3 14l180 235q3 5 12 5h67q9 0 9 -8v-229q0 -9 9 -9h39q8 0 8 -9v-60q0 -8 -9 -8h-38q-9 0 -9 -9v-67q0 -9 -9 -9h-71zM114 -38h76q9 0 9 9v102q0 4 -3.5 4t-4.5 -2l-81 -106q-5 -7 4 -7z" />
    <glyph glyph-name="uni2085" unicode="&#x2085;" horiz-adv-x="399" 
d="M207 -200q-61 0 -99 30t-38 79v10q0 9 8 9h71q9 0 9 -9v-4q0 -18 13.5 -30t35.5 -12q23 0 36.5 14t13.5 34v44q0 21 -13.5 34.5t-36.5 13.5t-36 -11.5t-13 -30.5v-4q0 -8 -9 -8h-71q-8 0 -8 8v233q0 8 8 8h246q9 0 9 -8v-61q0 -9 -9 -9h-158q-8 0 -8 -8v-40q0 -8 6 -5
q15 8 45 8q60 0 97.5 -31.5t37.5 -82.5v-56q0 -51 -38.5 -83t-98.5 -32z" />
    <glyph glyph-name="uni2086" unicode="&#x2086;" horiz-adv-x="385" 
d="M193 -200q-60 0 -99 31t-39 80v180q0 51 38.5 84t99.5 33q60 0 98.5 -31t38.5 -82v-9q0 -8 -10 -8h-70q-9 0 -9 8v3q0 20 -13 33t-35 13q-23 0 -36 -13.5t-13 -33.5v-35q0 -8 6 -5q15 8 45 8q61 0 98 -30.5t37 -82.5v-29q0 -51 -38 -82.5t-99 -31.5zM193 -127
q22 0 35 12.5t13 32.5v21q0 20 -13 32.5t-35 12.5t-35.5 -12.5t-13.5 -32.5v-21q0 -20 13.5 -32.5t35.5 -12.5z" />
    <glyph glyph-name="uni2087" unicode="&#x2087;" horiz-adv-x="307" 
d="M59 -200q-12 0 -9 8l120 316q2 5 -3 5h-115q-9 0 -9 9v62q0 8 9 8h204q8 0 8 -8v-64q0 -8 -3 -15l-119 -313q-4 -8 -11 -8h-72z" />
    <glyph glyph-name="uni2088" unicode="&#x2088;" horiz-adv-x="385" 
d="M193 -200q-60 0 -99 31.5t-39 79.5v23q0 50 34 73q5 3 0 6q-34 23 -34 70v18q0 45 39 76t99 31q59 0 98 -31t39 -76v-18q0 -23 -9 -44.5t-25 -25.5q-6 -1 0 -6q34 -24 34 -73v-23q0 -48 -38.5 -79.5t-98.5 -31.5zM193 45q22 0 36 12t14 32v3q0 20 -14 32t-36 12
q-23 0 -36.5 -12t-13.5 -32v-3q0 -20 13.5 -32t36.5 -12zM193 -128q22 0 36 12t14 33v14q0 20 -14 32.5t-36 12.5q-23 0 -36.5 -12.5t-13.5 -32.5v-14q0 -21 13.5 -33t36.5 -12z" />
    <glyph glyph-name="uni2089" unicode="&#x2089;" horiz-adv-x="385" 
d="M192 208q60 0 99 -31t39 -80v-180q0 -51 -38.5 -84t-99.5 -33q-60 0 -98.5 31t-38.5 82v9q0 8 10 8h70q9 0 9 -8v-3q0 -20 13 -33t35 -13q23 0 36 13.5t13 33.5v35q0 8 -6 5q-15 -8 -45 -8q-61 0 -98 30.5t-37 82.5v29q0 51 38 82.5t99 31.5zM192 135q-22 0 -35 -12.5
t-13 -32.5v-21q0 -20 13 -32.5t35 -12.5t35.5 12.5t13.5 32.5v21q0 20 -13.5 32.5t-35.5 12.5z" />
    <glyph glyph-name="lira" unicode="&#x20a4;" horiz-adv-x="518" 
d="M85 0q-15 0 -15 15v215q0 15 -15 15h-30q-15 0 -15 15v50q0 15 15 15h30q15 0 15 15v10q0 15 -15 15h-30q-15 0 -15 15v50q0 15 15 15h30q15 0 15 15v111q0 76 54 127.5t146 51.5t146 -51.5t54 -127.5v-27q0 -15 -15 -15h-75q-15 0 -15 15v3q0 46 -24 74.5t-71 28.5
q-48 0 -71.5 -28t-23.5 -75v-87q0 -15 15 -15h185q15 0 15 -15v-50q0 -15 -15 -15h-185q-15 0 -15 -15v-10q0 -15 15 -15h185q15 0 15 -15v-50q0 -15 -15 -15h-185q-15 0 -15 -15v-121q0 -15 15 -15h265q15 0 15 -15v-64q0 -15 -15 -15h-370z" />
    <glyph glyph-name="Euro" unicode="&#x20ac;" horiz-adv-x="583" 
d="M335 0q-90 0 -148.5 48t-58.5 121v91q0 15 -15 15h-43q-15 0 -15 15v50q0 15 15 15h43q15 0 15 15v10q0 15 -15 15h-43q-15 0 -15 15v50q0 15 15 15h43q15 0 15 15v91q0 73 58.5 121t148.5 48t149 -48t59 -121v-37q0 -15 -15 -15h-76q-15 0 -15 15v13q0 43 -28.5 68
t-73.5 25q-46 0 -74 -25t-28 -68v-67q0 -15 15 -15h148q15 0 15 -15v-50q0 -15 -15 -15h-148q-15 0 -15 -15v-10q0 -15 15 -15h148q15 0 15 -15v-50q0 -15 -15 -15h-148q-15 0 -15 -15v-67q0 -43 28 -68t74 -25q45 0 73.5 25t28.5 68v13q0 15 15 15h76q15 0 15 -15v-37
q0 -73 -59 -121t-149 -48z" />
    <glyph glyph-name="uni2116" unicode="&#x2116;" horiz-adv-x="952" 
d="M590 472v155q0 59 38 92.5t100 33.5q61 0 99.5 -33.5t38.5 -92.5v-155q0 -59 -38.5 -93t-99.5 -34q-62 0 -100 33.5t-38 93.5zM85 0q-15 0 -15 15v720q0 15 15 15h57q20 0 27 -13l234 -463q2 -4 6 -3.5t4 5.5v459q0 15 15 15h75q15 0 15 -15v-720q0 -15 -15 -15h-58
q-20 0 -26 12l-234 463q-2 4 -6 3.5t-4 -5.5v-458q0 -15 -15 -15h-75zM678 484q0 -59 50 -59q23 0 36.5 15.5t13.5 43.5v130q0 28 -13.5 44t-36.5 16q-50 0 -50 -60v-130zM599 198q-15 0 -15 15v64q0 15 15 15h269q15 0 15 -15v-64q0 -15 -15 -15h-269z" />
    <glyph glyph-name="trademark" unicode="&#x2122;" horiz-adv-x="747" 
d="M31 679v62q0 9 9 9h215q9 0 9 -9v-62q0 -9 -9 -9h-55q-8 0 -8 -8v-341q0 -8 -9 -8h-70q-9 0 -9 8v341q0 8 -9 8h-55q-9 0 -9 9zM322 313q-9 0 -9 8v420q0 9 9 9h68q10 0 14 -9l89 -201q1 -4 3 0l89 201q4 9 14 9h69q9 0 9 -9v-420q0 -8 -9 -8h-71q-9 0 -9 8v196
q0 2 -1 2.5t-2 -1.5l-45 -105q-3 -8 -14 -8h-63q-10 0 -13 8l-45 104q-2 3 -4 0v-196q0 -8 -9 -8h-70z" />
    <glyph glyph-name="uni2153" unicode="&#x2153;" horiz-adv-x="766" 
d="M129 292q-9 0 -9 9v273q0 8 -5 3l-38 -37q-6 -5 -11 0l-47 40q-7 8 -1 14l102 101q5 5 11 5h68q9 0 9 -8v-391q0 -9 -9 -9h-70zM454 700h60q8 0 11.5 -4t0.5 -11l-285 -670q-7 -15 -18 -15h-60q-8 0 -11.5 4t-0.5 11l285 670q7 15 18 15zM573 0q-61 0 -99 30.5t-38 81.5
v11q0 9 9 9h70q9 0 9 -9v-5q0 -20 13.5 -32.5t35.5 -12.5q23 0 36.5 12.5t13.5 32.5v10q0 40 -57 40q-9 0 -9 10v58q0 9 9 9q57 0 57 38v8q0 20 -13 32t-37 12q-22 0 -35.5 -12t-13.5 -32v-6q0 -8 -9 -8h-70q-9 0 -9 8v12q0 50 38 80.5t99 30.5t99.5 -30.5t38.5 -80.5v-19
q0 -44 -39 -70q-2 -2 0 -4q15 -9 27 -28.5t12 -41.5v-22q0 -51 -38.5 -81.5t-99.5 -30.5z" />
    <glyph glyph-name="uni2154" unicode="&#x2154;" horiz-adv-x="856" 
d="M53 301v91q0 21 8.5 39t27 33.5t30.5 23l36 21.5q5 3 7 4q10 6 25.5 13.5t22.5 12t15.5 10.5t11.5 12t3 14v5q0 17 -14 29t-35 12q-22 0 -35.5 -13t-13.5 -33v-4q0 -9 -9 -9h-71q-9 0 -9 9v16q0 51 38.5 82t99.5 31q60 0 98 -31.5t38 -82.5v-13q0 -22 -9 -41t-28.5 -35
t-32 -24t-37.5 -22q-7 -4 -18.5 -10t-17.5 -9.5l-14 -8.5t-12 -8.5l-8.5 -7.5t-6 -8.5t-1.5 -9.5v-12q0 -9 8 -9h162q8 0 8 -8v-59q0 -9 -8 -9h-250q-9 0 -9 9zM554 700h60q8 0 11.5 -4t0.5 -11l-285 -670q-7 -15 -18 -15h-60q-8 0 -11.5 4t-0.5 11l285 670q7 15 18 15z
M663 0q-61 0 -99 30.5t-38 81.5v11q0 9 9 9h70q9 0 9 -9v-5q0 -20 13.5 -32.5t35.5 -12.5q23 0 36.5 12.5t13.5 32.5v10q0 40 -57 40q-9 0 -9 10v58q0 9 9 9q57 0 57 38v8q0 20 -13 32t-37 12q-22 0 -35.5 -12t-13.5 -32v-6q0 -8 -9 -8h-70q-9 0 -9 8v12q0 50 38 80.5
t99 30.5t99.5 -30.5t38.5 -80.5v-19q0 -44 -39 -70q-2 -2 0 -4q15 -9 27 -28.5t12 -41.5v-22q0 -51 -38.5 -81.5t-99.5 -30.5z" />
    <glyph glyph-name="oneeighth" unicode="&#x215b;" horiz-adv-x="796" 
d="M129 292q-9 0 -9 9v273q0 8 -5 3l-38 -37q-6 -5 -11 0l-47 40q-7 8 -1 14l102 101q5 5 11 5h68q9 0 9 -8v-391q0 -9 -9 -9h-70zM474 700h60q8 0 11.5 -4t0.5 -11l-285 -670q-7 -15 -18 -15h-60q-8 0 -11.5 4t-0.5 11l285 670q7 15 18 15zM604 0q-60 0 -99 31.5t-39 79.5
v23q0 50 34 73q4 3 0 6q-34 23 -34 70v18q0 45 39 76t99 31q59 0 98 -31t39 -76v-18q0 -23 -9 -44.5t-25 -25.5q-6 -1 0 -6q34 -24 34 -73v-23q0 -48 -38.5 -79.5t-98.5 -31.5zM604 245q22 0 36 12t14 32v3q0 20 -14 32t-36 12q-23 0 -36.5 -12t-13.5 -32v-3q0 -20 13.5 -32
t36.5 -12zM604 72q22 0 36 12t14 33v14q0 20 -14 32.5t-36 12.5t-36 -12.5t-14 -32.5v-14q0 -21 13.5 -33t36.5 -12z" />
    <glyph glyph-name="partialdiff" unicode="&#x2202;" horiz-adv-x="525" 
d="M262 0q-90 0 -148.5 48t-58.5 121v92q0 73 58.5 121t148.5 48q46 0 92 -18q10 -4 10 6q0 52 -23.5 96t-61.5 72.5t-66.5 43.5t-58.5 26q-15 5 -10 18l25 60q9 22 21 18q50 -17 95.5 -43.5t89 -68t69.5 -104.5t26 -138v-229q0 -73 -59 -121t-149 -48zM262 100
q45 0 73.5 25t28.5 68v44q0 43 -28.5 68t-73.5 25q-46 0 -74 -25t-28 -68v-44q0 -43 28 -68t74 -25z" />
    <glyph glyph-name="minus" unicode="&#x2212;" horiz-adv-x="379" 
d="M55 208q-15 0 -15 15v64q0 15 15 15h269q15 0 15 -15v-64q0 -15 -15 -15h-269z" />
    <glyph glyph-name="approxequal" unicode="&#x2248;" horiz-adv-x="431" 
d="M59 269q-18 0 -18 12q0 55 28.5 84t73.5 29q41 0 80.5 -21.5t55.5 -21.5q18 0 28.5 9t10.5 22q0 12 19 12h36q19 0 19 -12q0 -54 -28.5 -83.5t-73.5 -29.5q-41 0 -81 22t-56 22q-17 0 -27.5 -9t-10.5 -23q0 -12 -20 -12h-36zM59 120q-18 0 -18 12q0 55 28.5 84t73.5 29
q41 0 80.5 -21.5t55.5 -21.5q18 0 28.5 9t10.5 22q0 12 19 12h36q19 0 19 -12q0 -54 -28.5 -83.5t-73.5 -29.5q-41 0 -81 22t-56 22q-17 0 -27.5 -9t-10.5 -23q0 -12 -20 -12h-36z" />
    <glyph glyph-name="i.loclTRK" horiz-adv-x="230" 
d="M115 518q-28 0 -46.5 18.5t-18.5 46.5q0 27 18.5 46t46.5 19q27 0 46 -19t19 -46q0 -28 -19 -46.5t-46 -18.5zM80 0q-15 0 -15 15v450q0 15 15 15h70q15 0 15 -15v-450q0 -15 -15 -15h-70z" />
    <glyph glyph-name="zero.osf" horiz-adv-x="416" 
d="M34 178v124q0 84 47 133.5t127 49.5t127 -49.5t47 -133.5v-124q0 -84 -47 -133.5t-127 -49.5t-127 49.5t-47 133.5zM134 195q0 -49 20.5 -75.5t53.5 -26.5t53.5 26.5t20.5 75.5v90q0 49 -20.5 75.5t-53.5 26.5t-53.5 -26.5t-20.5 -75.5v-90z" />
    <glyph glyph-name="one.osf" horiz-adv-x="329" 
d="M174 0q-15 0 -15 15v309q0 6 -3.5 6t-6.5 -3l-62 -53q-12 -10 -20 -1l-46 54q-11 13 -1 22l139 122q11 9 15 9h70q15 0 15 -15v-450q0 -15 -15 -15h-70z" />
    <glyph glyph-name="two.osf" horiz-adv-x="432" 
d="M53 10v111q0 15 4 28.5t14.5 26l18 21t24.5 19.5l24 15.5t27.5 15.5t23.5 13q14 8 36.5 19l33.5 16.5t20 15t9 20.5v16q0 20 -17.5 33.5t-48.5 13.5q-32 0 -49 -15t-17 -38v-14q0 -11 -11 -11h-81q-11 0 -11 11v28q0 60 46 95t123 35q76 0 121.5 -36t45.5 -95v-25
q0 -13 -4 -25.5t-8.5 -22t-16.5 -21l-17.5 -17t-22 -16l-21.5 -13.5l-23.5 -13.5t-20.5 -11.5q-12 -7 -29.5 -16l-28 -14.5t-21 -12.5t-15.5 -14t-5 -14v-20q0 -11 9 -11h206q9 0 9 -9v-68q0 -10 -9 -10h-307q-11 0 -11 10z" />
    <glyph glyph-name="three.osf" horiz-adv-x="473" 
d="M236 -75q-77 0 -130 40.5t-53 105.5v20q0 12 15 12h76q15 0 15 -12v-7q0 -30 23 -48.5t54 -18.5t54 18.5t23 48.5v18q0 28 -24.5 44t-57.5 16q-15 0 -15 12v70q0 12 15 12q33 0 57.5 15.5t24.5 43.5v11q0 30 -23 48.5t-54 18.5t-54 -18.5t-23 -48.5v-7q0 -12 -15 -12h-76
q-15 0 -15 12v20q0 65 53 105.5t130 40.5t129.5 -40.5t52.5 -105.5v-34q0 -31 -15.5 -57t-44.5 -36q-2 -1 -2 -3.5t2 -3.5q60 -41 60 -94v-40q0 -65 -52.5 -105.5t-129.5 -40.5z" />
    <glyph glyph-name="four.osf" horiz-adv-x="497" 
d="M289 -77q-14 0 -14 15v73q0 14 -14 14h-231q-14 0 -14 15v68q0 14 5 21l255 342q7 9 18 9h68q14 0 14 -14v-331q0 -15 14 -15h63q14 0 14 -14v-66q0 -15 -14 -15h-63q-14 0 -14 -14v-73q0 -15 -14 -15h-73zM133 120h128q14 0 14 15v174q0 5 -4.5 6t-7.5 -3l-137 -180
q-3 -4 -1 -8t8 -4z" />
    <glyph glyph-name="five.osf" horiz-adv-x="500" 
d="M258 -77q-80 0 -134 40t-54 101v31q0 14 14 14h73q14 0 14 -14v-8q0 -32 25 -50t62 -18q36 0 61.5 22.5t25.5 55.5v60q0 34 -26 61t-61 27q-36 0 -61.5 -18.5t-25.5 -50.5v-7q0 -15 -14 -15h-73q-14 0 -14 15v297q0 14 14 14h331q14 0 14 -14v-67q0 -14 -14 -14h-230
q-14 0 -14 -15v-56q0 -4 3.5 -5.5t5.5 0.5q32 21 78 21q78 0 132.5 -44t54.5 -106v-106q0 -62 -54.5 -106.5t-132.5 -44.5z" />
    <glyph glyph-name="six.osf" horiz-adv-x="479" 
d="M240 -5q-80 0 -132.5 41t-52.5 115v238q0 75 53 120.5t132 45.5q76 0 130 -46.5t54 -114.5v-21q0 -14 -14 -14h-72q-14 0 -14 14v3q0 39 -25 61t-59 22q-36 0 -60 -24.5t-24 -71.5v-30q0 -11 9 -6q36 18 75 18q79 0 131.5 -42t52.5 -114v-38q0 -74 -52.5 -115t-131.5 -41
zM240 90q36 0 60 20t24 59v2q0 39 -24 58.5t-60 19.5q-35 0 -59.5 -19.5t-24.5 -58.5v-2q0 -39 24.5 -59t59.5 -20z" />
    <glyph glyph-name="seven.osf" horiz-adv-x="414" 
d="M110 -77q-19 0 -13 15l162 439q3 8 -3 8h-199q-14 0 -14 14v67q0 14 14 14h300q14 0 14 -14v-59q0 -9 -6 -25l-162 -445q-5 -14 -19 -14h-74z" />
    <glyph glyph-name="eight.osf" horiz-adv-x="479" 
d="M240 0q-81 0 -133 41t-52 103v43q0 28 13 55t36 42q8 5 0 10q-49 32 -49 95v30q0 60 52.5 100.5t132.5 40.5t132 -40.5t52 -100.5v-30q0 -61 -50 -95q-8 -5 0 -10q23 -15 36.5 -42t13.5 -55v-43q0 -62 -52 -103t-132 -41zM240 331q37 0 60.5 19t23.5 51v3q0 32 -23.5 51
t-60.5 19q-38 0 -61 -19t-23 -51v-3q0 -33 22.5 -51.5t61.5 -18.5zM240 86q37 0 60.5 19t23.5 51v21q0 32 -23.5 51t-60.5 19q-38 0 -61 -19t-23 -51v-21q0 -32 23 -51t61 -19z" />
    <glyph glyph-name="nine.osf" horiz-adv-x="479" 
d="M239 485q80 0 132.5 -41t52.5 -115v-238q0 -75 -53 -120.5t-132 -45.5q-76 0 -130 46.5t-54 114.5v21q0 14 14 14h72q14 0 14 -14v-3q0 -39 25 -61t59 -22q36 0 60 24.5t24 71.5v30q0 11 -9 6q-36 -18 -75 -18q-79 0 -131.5 42t-52.5 114v38q0 74 52.5 115t131.5 41z
M239 390q-36 0 -60 -20t-24 -59v-2q0 -39 24 -58.5t60 -19.5q35 0 59.5 19.5t24.5 58.5v2q0 39 -24.5 59t-59.5 20z" />
    </font>
</defs>
</svg>
